<?xml version="1.0" encoding="UTF-8"?> <svg xmlns="http://www.w3.org/2000/svg" width="2410" height="307" viewBox="0 0 2410 307" fill="none"> <g clip-path="url(#clip0_116_270)"> <path d="M164.52 205.257C164.52 202.697 165.013 200.391 165.997 198.34C166.998 196.288 168.401 194.697 170.207 193.564C172.028 192.415 174.088 191.841 176.385 191.841C179.93 191.841 182.802 193.088 185.001 195.583C187.2 198.061 188.3 201.351 188.3 205.454V206.07C188.3 208.646 187.799 210.968 186.798 213.036C185.814 215.088 184.419 216.671 182.614 217.787C180.808 218.903 178.749 219.461 176.435 219.461C172.906 219.461 170.034 218.222 167.819 215.744C165.62 213.249 164.52 209.951 164.52 205.848V205.257ZM167.474 206.07C167.474 209.253 168.295 211.871 169.936 213.922C171.593 215.957 173.76 216.975 176.435 216.975C179.093 216.975 181.243 215.957 182.884 213.922C184.542 211.871 185.371 209.171 185.371 205.823V205.257C185.371 203.222 184.993 201.36 184.238 199.669C183.483 197.979 182.425 196.674 181.063 195.755C179.701 194.82 178.141 194.352 176.385 194.352C173.76 194.352 171.618 195.386 169.961 197.454C168.303 199.505 167.474 202.197 167.474 205.528V206.07ZM205.138 194.106C208.519 194.106 211.259 195.214 213.36 197.429C215.461 199.628 216.511 202.549 216.511 206.193V206.833C216.511 209.245 216.027 211.42 215.058 213.356C214.107 215.276 212.728 216.778 210.923 217.861C209.134 218.928 207.074 219.461 204.744 219.461C201.232 219.461 198.385 218.296 196.202 215.966C194.036 213.619 192.953 210.492 192.953 206.587V204.223C192.953 198.709 194.003 194.303 196.104 191.004C198.204 187.705 201.191 185.736 205.064 185.096C207.509 184.702 209.224 184.169 210.209 183.496C211.21 182.823 211.711 181.904 211.711 180.739H214.246C214.246 182.117 213.959 183.258 213.385 184.161C212.81 185.063 211.949 185.794 210.8 186.352C209.651 186.893 207.895 187.353 205.532 187.73C202.824 188.157 200.641 189.314 198.984 191.201C197.343 193.072 196.276 195.583 195.784 198.734C196.834 197.355 198.147 196.239 199.722 195.386C201.314 194.532 203.119 194.106 205.138 194.106ZM195.907 206.217V206.833C195.907 209.836 196.719 212.281 198.344 214.168C199.968 216.039 202.102 216.975 204.744 216.975C207.403 216.975 209.536 216.031 211.144 214.144C212.753 212.24 213.557 209.746 213.557 206.66V206.02C213.557 203.247 212.736 200.982 211.095 199.226C209.47 197.47 207.337 196.592 204.695 196.592C202.053 196.592 199.927 197.486 198.319 199.275C196.711 201.048 195.907 203.362 195.907 206.217ZM224.733 192.333V216.482H236.598V192.333H239.552V216.482H251.27V192.333H254.224V216.482H257.424L257.202 226.871H254.495V218.969H221.779V192.333H224.733ZM279.702 192.333H282.656V218.969H279.702V197.084L265.326 218.969H262.397V192.333H265.326V214.242L279.702 192.333ZM308.061 192.333H311.015V218.969H308.061V197.084L293.685 218.969H290.755V192.333H293.685V214.242L308.061 192.333ZM307.913 182.733C307.913 184.62 307.265 186.146 305.968 187.312C304.688 188.477 302.965 189.059 300.799 189.059C298.665 189.059 296.942 188.485 295.629 187.336C294.333 186.171 293.685 184.637 293.685 182.733H296.195C296.195 184.095 296.597 185.137 297.402 185.859C298.222 186.581 299.355 186.942 300.799 186.942C302.243 186.942 303.367 186.565 304.171 185.81C304.992 185.055 305.402 184.029 305.402 182.733H307.913ZM345.921 214.981L356.507 192.333H360.15V218.969H357.196V197.109L346.955 218.969H344.863L334.425 196.617V218.969H331.496V192.333H335.361L345.921 214.981ZM378.366 219.461C376.102 219.461 374.05 218.903 372.212 217.787C370.39 216.671 368.971 215.12 367.953 213.135C366.936 211.132 366.427 208.892 366.427 206.414V205.356C366.427 202.796 366.919 200.49 367.904 198.438C368.905 196.387 370.292 194.779 372.064 193.613C373.837 192.432 375.757 191.841 377.825 191.841C381.058 191.841 383.618 192.949 385.505 195.164C387.409 197.363 388.361 200.375 388.361 204.199V205.848H369.357V206.414C369.357 209.434 370.218 211.953 371.941 213.972C373.681 215.974 375.864 216.975 378.489 216.975C380.065 216.975 381.452 216.688 382.65 216.113C383.864 215.539 384.964 214.62 385.948 213.356L387.794 214.759C385.628 217.894 382.485 219.461 378.366 219.461ZM377.825 194.352C375.609 194.352 373.738 195.164 372.212 196.789C370.702 198.414 369.783 200.596 369.455 203.337H385.431V203.017C385.349 200.457 384.619 198.373 383.24 196.764C381.862 195.156 380.057 194.352 377.825 194.352ZM412.928 194.844H403.229V218.969H400.275V194.844H390.945V192.333H412.928V194.844ZM439.194 205.922C439.194 210.074 438.275 213.373 436.437 215.818C434.599 218.247 432.138 219.461 429.052 219.461C425.409 219.461 422.619 218.181 420.683 215.621V229.209H417.753V192.333H420.486L420.633 196.1C422.553 193.261 425.335 191.841 428.978 191.841C432.162 191.841 434.657 193.047 436.462 195.46C438.284 197.872 439.194 201.22 439.194 205.503V205.922ZM436.24 205.405C436.24 202.008 435.543 199.325 434.148 197.355C432.753 195.386 430.808 194.401 428.314 194.401C426.509 194.401 424.958 194.836 423.661 195.706C422.365 196.576 421.372 197.839 420.683 199.497V212.273C421.388 213.799 422.398 214.964 423.71 215.769C425.023 216.573 426.574 216.975 428.363 216.975C430.841 216.975 432.769 215.99 434.148 214.021C435.543 212.035 436.24 209.163 436.24 205.405ZM462.556 218.969C462.26 218.132 462.072 216.893 461.989 215.252C460.956 216.597 459.634 217.639 458.026 218.378C456.434 219.1 454.744 219.461 452.955 219.461C450.395 219.461 448.319 218.747 446.727 217.319C445.152 215.892 444.364 214.086 444.364 211.904C444.364 209.311 445.439 207.259 447.589 205.75C449.755 204.24 452.766 203.485 456.623 203.485H461.965V200.457C461.965 198.553 461.374 197.06 460.192 195.977C459.027 194.877 457.321 194.327 455.072 194.327C453.021 194.327 451.322 194.853 449.976 195.903C448.631 196.953 447.958 198.217 447.958 199.694L445.004 199.669C445.004 197.552 445.989 195.722 447.958 194.18C449.927 192.621 452.348 191.841 455.22 191.841C458.19 191.841 460.529 192.588 462.236 194.081C463.959 195.558 464.845 197.626 464.894 200.285V212.888C464.894 215.465 465.165 217.393 465.707 218.673V218.969H462.556ZM453.3 216.852C455.269 216.852 457.025 216.376 458.568 215.424C460.127 214.472 461.259 213.2 461.965 211.608V205.75H456.697C453.759 205.782 451.462 206.324 449.804 207.374C448.147 208.408 447.318 209.836 447.318 211.658C447.318 213.151 447.868 214.39 448.967 215.375C450.083 216.359 451.527 216.852 453.3 216.852ZM493.13 206.66H489.585V218.969H486.631V206.66H483.111L473.264 218.969H469.522L480.551 205.306L470.753 192.333H474.323L483.061 204.026H486.631V192.333H489.585V204.026H493.179L501.918 192.333H505.537L495.69 205.306L506.743 218.969H502.976L493.13 206.66Z" fill="#D3E0F4"></path> <path d="M893.727 194.408C892.562 194.408 891.429 194.638 890.33 195.097C889.247 195.557 888.352 196.254 887.647 197.19C886.941 198.109 886.588 199.274 886.588 200.685H883.732C883.732 198.946 884.208 197.419 885.16 196.106C886.128 194.777 887.376 193.743 888.902 193.005C890.428 192.25 892.037 191.872 893.727 191.872C895.516 191.872 897.116 192.209 898.527 192.882C899.939 193.554 901.128 194.498 902.097 195.713C903.081 196.911 903.828 198.322 904.337 199.947C904.845 201.555 905.1 203.294 905.1 205.165V206.199C905.1 208.07 904.845 209.818 904.337 211.443C903.828 213.051 903.081 214.462 902.097 215.677C901.128 216.875 899.939 217.81 898.527 218.483C897.132 219.156 895.54 219.492 893.751 219.492C891.913 219.492 890.231 219.115 888.705 218.36C887.195 217.589 885.989 216.497 885.086 215.086C884.184 213.658 883.732 211.96 883.732 209.99H886.588C886.588 211.467 886.916 212.731 887.573 213.781C888.229 214.815 889.099 215.611 890.182 216.169C891.265 216.711 892.455 216.981 893.751 216.981C895.196 216.981 896.443 216.686 897.493 216.095C898.56 215.504 899.438 214.708 900.127 213.707C900.817 212.69 901.325 211.541 901.653 210.261C901.998 208.965 902.17 207.611 902.17 206.199V205.165C902.17 203.738 901.998 202.384 901.653 201.104C901.325 199.807 900.817 198.658 900.127 197.657C899.438 196.656 898.56 195.868 897.493 195.294C896.443 194.703 895.187 194.408 893.727 194.408ZM903.5 204.279V206.79H890.084V204.279H903.5ZM919.279 192.365V219H916.35V192.365H919.279ZM928.978 192.365V194.876H906.995V192.365H928.978ZM949.656 214.224V200.488C949.656 199.225 949.394 198.133 948.868 197.214C948.343 196.295 947.572 195.589 946.555 195.097C945.537 194.605 944.282 194.359 942.788 194.359C941.41 194.359 940.179 194.605 939.096 195.097C938.029 195.573 937.184 196.221 936.56 197.042C935.953 197.846 935.649 198.74 935.649 199.725L932.695 199.7C932.695 198.699 932.941 197.731 933.434 196.796C933.926 195.86 934.624 195.023 935.526 194.285C936.429 193.546 937.504 192.964 938.751 192.537C940.015 192.094 941.401 191.872 942.911 191.872C944.815 191.872 946.489 192.192 947.933 192.832C949.394 193.472 950.534 194.432 951.355 195.713C952.175 196.993 952.586 198.601 952.586 200.537V213.412C952.586 214.331 952.651 215.283 952.783 216.268C952.93 217.252 953.135 218.065 953.398 218.705V219H950.272C950.075 218.409 949.919 217.671 949.804 216.784C949.705 215.882 949.656 215.028 949.656 214.224ZM950.345 203.491L950.395 205.756H944.61C943.1 205.756 941.746 205.896 940.548 206.175C939.366 206.437 938.365 206.831 937.545 207.356C936.724 207.865 936.092 208.48 935.649 209.203C935.223 209.925 935.009 210.745 935.009 211.664C935.009 212.616 935.247 213.486 935.723 214.274C936.215 215.061 936.905 215.693 937.791 216.169C938.694 216.629 939.76 216.858 940.991 216.858C942.632 216.858 944.076 216.555 945.324 215.948C946.587 215.34 947.629 214.544 948.45 213.56C949.271 212.575 949.82 211.5 950.099 210.335L951.379 212.033C951.166 212.854 950.772 213.699 950.198 214.569C949.64 215.422 948.91 216.227 948.007 216.981C947.104 217.72 946.038 218.327 944.807 218.803C943.592 219.263 942.214 219.492 940.671 219.492C938.932 219.492 937.413 219.164 936.117 218.508C934.837 217.851 933.836 216.957 933.114 215.824C932.408 214.676 932.055 213.379 932.055 211.935C932.055 210.622 932.334 209.449 932.892 208.415C933.45 207.364 934.254 206.478 935.305 205.756C936.371 205.018 937.651 204.46 939.145 204.082C940.655 203.688 942.345 203.491 944.216 203.491H950.345ZM969.276 206.692L958.469 192.365H962.014L970.777 204.033H975.701L975.43 206.692H969.276ZM971.048 206.396L960.98 219H957.238L969.202 204.131L971.048 206.396ZM977.276 192.365V219H974.347V192.365H977.276ZM993.228 192.365L982.372 206.692H976.267L975.947 204.033H980.895L989.634 192.365H993.228ZM990.692 219L980.6 206.396L982.47 204.131L994.434 219H990.692ZM1015.38 214.224V200.488C1015.38 199.225 1015.12 198.133 1014.6 197.214C1014.07 196.295 1013.3 195.589 1012.28 195.097C1011.26 194.605 1010.01 194.359 1008.51 194.359C1007.14 194.359 1005.91 194.605 1004.82 195.097C1003.76 195.573 1002.91 196.221 1002.29 197.042C1001.68 197.846 1001.38 198.74 1001.38 199.725L998.422 199.7C998.422 198.699 998.668 197.731 999.161 196.796C999.653 195.86 1000.35 195.023 1001.25 194.285C1002.16 193.546 1003.23 192.964 1004.48 192.537C1005.74 192.094 1007.13 191.872 1008.64 191.872C1010.54 191.872 1012.22 192.192 1013.66 192.832C1015.12 193.472 1016.26 194.432 1017.08 195.713C1017.9 196.993 1018.31 198.601 1018.31 200.537V213.412C1018.31 214.331 1018.38 215.283 1018.51 216.268C1018.66 217.252 1018.86 218.065 1019.12 218.705V219H1016C1015.8 218.409 1015.65 217.671 1015.53 216.784C1015.43 215.882 1015.38 215.028 1015.38 214.224ZM1016.07 203.491L1016.12 205.756H1010.34C1008.83 205.756 1007.47 205.896 1006.27 206.175C1005.09 206.437 1004.09 206.831 1003.27 207.356C1002.45 207.865 1001.82 208.48 1001.38 209.203C1000.95 209.925 1000.74 210.745 1000.74 211.664C1000.74 212.616 1000.97 213.486 1001.45 214.274C1001.94 215.061 1002.63 215.693 1003.52 216.169C1004.42 216.629 1005.49 216.858 1006.72 216.858C1008.36 216.858 1009.8 216.555 1011.05 215.948C1012.31 215.34 1013.36 214.544 1014.18 213.56C1015 212.575 1015.55 211.5 1015.83 210.335L1017.11 212.033C1016.89 212.854 1016.5 213.699 1015.92 214.569C1015.37 215.422 1014.64 216.227 1013.73 216.981C1012.83 217.72 1011.76 218.327 1010.53 218.803C1009.32 219.263 1007.94 219.492 1006.4 219.492C1004.66 219.492 1003.14 219.164 1001.84 218.508C1000.56 217.851 999.563 216.957 998.841 215.824C998.135 214.676 997.782 213.379 997.782 211.935C997.782 210.622 998.061 209.449 998.619 208.415C999.177 207.364 999.981 206.478 1001.03 205.756C1002.1 205.018 1003.38 204.46 1004.87 204.082C1006.38 203.688 1008.07 203.491 1009.94 203.491H1016.07Z" fill="#D3E0F4"></path> <path d="M212.851 140H196.903V62.9609L173.376 71.0009V57.4911L210.808 43.7176H212.851V140ZM296.019 43.5858V56.832H294.042C285.08 56.9639 277.918 59.4242 272.558 64.213C267.198 69.0019 264.013 75.7898 263.002 84.5767C268.143 79.1727 274.711 76.4708 282.707 76.4708C291.186 76.4708 297.864 79.4583 302.741 85.4334C307.662 91.4085 310.122 99.119 310.122 108.565C310.122 118.318 307.245 126.227 301.489 132.29C295.778 138.309 288.265 141.318 278.951 141.318C269.373 141.318 261.597 137.781 255.622 130.708C249.69 123.634 246.725 114.364 246.725 102.897V97.4275C246.725 80.6006 250.811 67.4203 258.982 57.8865C267.198 48.3527 278.995 43.5858 294.372 43.5858H296.019ZM278.819 89.3875C275.304 89.3875 272.075 90.376 269.131 92.3531C266.232 94.3301 264.101 96.9662 262.739 100.261V105.138C262.739 112.255 264.233 117.923 267.22 122.141C270.208 126.314 274.074 128.401 278.819 128.401C283.564 128.401 287.32 126.622 290.088 123.063C292.856 119.505 294.24 114.826 294.24 109.026C294.24 103.227 292.834 98.5039 290.022 94.8573C287.21 91.2108 283.476 89.3875 278.819 89.3875ZM385.448 99.6023C385.448 113.398 382.856 123.81 377.671 130.84C372.531 137.825 364.689 141.318 354.145 141.318C343.776 141.318 335.956 137.913 330.684 131.103C325.455 124.249 322.775 114.123 322.644 100.723V84.1154C322.644 70.3199 325.214 59.9734 330.354 53.0757C335.538 46.1779 343.425 42.7291 354.013 42.7291C364.513 42.7291 372.333 46.0901 377.474 52.812C382.658 59.534 385.316 69.595 385.448 82.995V99.6023ZM369.434 81.677C369.434 72.6704 368.204 66.0803 365.743 61.9065C363.283 57.6888 359.373 55.5799 354.013 55.5799C348.785 55.5799 344.94 57.5789 342.48 61.577C340.02 65.5311 338.724 71.7258 338.592 80.1613V101.909C338.592 110.871 339.844 117.549 342.348 121.943C344.852 126.336 348.785 128.533 354.145 128.533C359.285 128.533 363.085 126.512 365.546 122.47C368.006 118.384 369.302 112.014 369.434 103.359V81.677ZM476.59 120.295L497.678 68.6944H517.713V140H501.698V92.8144L482.06 140H471.186L451.481 92.5508V140H435.467V68.6944H455.633L476.59 120.295ZM573.004 96.0436H532.672V87.8059L551.454 70.6055C556.419 66.0803 558.901 62.3458 558.901 59.4022C558.901 57.557 558.308 56.0632 557.122 54.9209C555.936 53.7347 554.2 53.1416 551.916 53.1416C549.367 53.1416 547.368 53.8665 545.919 55.3163C544.469 56.7661 543.744 58.6773 543.744 61.0498H531.486C531.486 55.9534 533.331 51.7357 537.022 48.3966C540.756 45.0137 545.589 43.3222 551.52 43.3222C557.803 43.3222 562.658 44.7281 566.084 47.5399C569.511 50.3517 571.225 54.2839 571.225 59.3363C571.225 64.0373 568.896 68.6285 564.239 73.1098L557.781 78.8432L548.555 86.2901H573.004V96.0436Z" fill="white"></path> <g filter="url(#filter0_f_116_270)"> <path d="M97.2145 49.5735H12.838C11.8245 49.5735 11.0039 50.394 11.0039 51.4075V135.784C11.0039 136.797 11.8245 137.618 12.838 137.618H97.214C98.2275 137.618 99.048 136.797 99.048 135.784V51.4075C99.0486 50.3946 98.228 49.5735 97.2145 49.5735ZM95.3804 133.949H95.3799H14.6726V53.2422H95.3804V133.949Z" fill="white"></path> <path d="M98.4922 51.4072V51.4075V135.784C98.4922 136.49 97.9205 137.062 97.214 137.062H12.838C12.1315 137.062 11.5597 136.49 11.5597 135.784V51.4075C11.5597 50.701 12.1315 50.1293 12.838 50.1293H97.2145C97.921 50.1293 98.4926 50.7014 98.4922 51.4072ZM95.3804 134.505H95.9362V133.949V53.2422V52.6863H95.3804H14.6726H14.1168V53.2422V133.949V134.505H14.6726H95.3799H95.3804Z" stroke="#F9C84B" stroke-width="1.11168"></path> </g> <g filter="url(#filter1_f_116_270)"> <path d="M12.838 38.5685C11.8245 38.5685 11.0039 39.3891 11.0039 40.4026V45.9054C11.0039 46.9189 11.8245 47.7395 12.838 47.7395C13.8515 47.7395 14.6721 46.9189 14.6721 45.9054V40.4032C14.6726 39.3891 13.8515 38.5685 12.838 38.5685Z" fill="white"></path> <path d="M14.1162 40.4029V40.4032V45.9054C14.1162 46.6119 13.5445 47.1837 12.838 47.1837C12.1315 47.1837 11.5597 46.6119 11.5597 45.9054V40.4026C11.5597 39.6961 12.1315 39.1244 12.838 39.1244C13.5447 39.1244 14.1166 39.6962 14.1162 40.4029Z" stroke="#F9C84B" stroke-width="1.11168"></path> </g> <g filter="url(#filter2_f_116_270)"> <path d="M7.33688 49.5735H1.83408C0.820582 49.5735 0 50.3946 0 51.4075C0 52.4205 0.820582 53.2416 1.83408 53.2416H7.33688C8.35038 53.2416 9.17096 52.421 9.17096 51.4075C9.17096 50.394 8.35038 49.5735 7.33688 49.5735Z" fill="white"></path> <path d="M1.83408 50.1293H7.33688C8.0434 50.1293 8.61512 50.701 8.61512 51.4075C8.61512 52.1141 8.0434 52.6858 7.33688 52.6858H1.83408C1.12767 52.6858 0.555838 52.1136 0.555838 51.4075C0.555838 50.7014 1.12767 50.1293 1.83408 50.1293Z" stroke="#F9C84B" stroke-width="1.11168"></path> </g> <g filter="url(#filter3_f_116_270)"> <path d="M7.33688 133.95H1.83408C0.820582 133.95 0 134.771 0 135.784C0 136.798 0.820582 137.618 1.83408 137.618H7.33688C8.35038 137.618 9.17096 136.798 9.17096 135.784C9.17096 134.771 8.35038 133.95 7.33688 133.95Z" fill="white"></path> <path d="M1.83408 134.506H7.33688C8.0434 134.506 8.61512 135.078 8.61512 135.784C8.61512 136.491 8.0434 137.062 7.33688 137.062H1.83408C1.12756 137.062 0.555838 136.491 0.555838 135.784C0.555838 135.078 1.12756 134.506 1.83408 134.506Z" stroke="#F9C84B" stroke-width="1.11168"></path> </g> <g filter="url(#filter4_f_116_270)"> <path d="M12.838 139.453C11.8245 139.453 11.0039 140.274 11.0039 141.287V146.79C11.0039 147.803 11.8245 148.624 12.838 148.624C13.8515 148.624 14.6721 147.803 14.6721 146.79V141.287C14.6726 140.274 13.8515 139.453 12.838 139.453Z" fill="white"></path> <path d="M14.1162 141.287V141.287V146.79C14.1162 147.496 13.5445 148.068 12.838 148.068C12.1315 148.068 11.5597 147.496 11.5597 146.79V141.287C11.5597 140.581 12.1316 140.009 12.838 140.009C13.5447 140.009 14.1166 140.581 14.1162 141.287Z" stroke="#F9C84B" stroke-width="1.11168"></path> </g> <g filter="url(#filter5_f_116_270)"> <path d="M97.2169 139.453C96.2034 139.453 95.3828 140.274 95.3828 141.287V146.79C95.3828 147.803 96.2034 148.624 97.2169 148.624C98.2304 148.624 99.051 147.803 99.051 146.79V141.287C99.051 140.274 98.2304 139.453 97.2169 139.453Z" fill="white"></path> <path d="M95.9387 141.287C95.9387 140.581 96.5105 140.009 97.2169 140.009C97.9233 140.009 98.4951 140.581 98.4951 141.287V146.79C98.4951 147.496 97.9234 148.068 97.2169 148.068C96.5104 148.068 95.9387 147.496 95.9387 146.79V141.287Z" stroke="#F9C84B" stroke-width="1.11168"></path> </g> <g filter="url(#filter6_f_116_270)"> <path d="M108.225 133.95H102.722C101.708 133.95 100.888 134.77 100.888 135.784C100.888 136.797 101.709 137.618 102.722 137.618H108.225C109.238 137.618 110.059 136.797 110.059 135.784C110.059 134.77 109.238 133.95 108.225 133.95Z" fill="white"></path> <path d="M102.722 134.506H108.225C108.931 134.506 109.503 135.077 109.503 135.784C109.503 136.49 108.931 137.062 108.225 137.062H102.722C102.016 137.062 101.444 136.49 101.444 135.784C101.444 135.077 102.015 134.506 102.722 134.506Z" stroke="#F9C84B" stroke-width="1.11168"></path> </g> <g filter="url(#filter7_f_116_270)"> <path d="M108.225 49.5739H102.722C101.708 49.5739 100.888 50.3945 100.888 51.408C100.888 52.4215 101.709 53.2421 102.722 53.2421H108.225C109.238 53.2421 110.059 52.4215 110.059 51.408C110.059 50.3945 109.238 49.5739 108.225 49.5739Z" fill="white"></path> <path d="M102.722 50.1297H108.225C108.931 50.1297 109.503 50.7014 109.503 51.408C109.503 52.1145 108.931 52.6862 108.225 52.6862H102.722C102.016 52.6862 101.444 52.1144 101.444 51.408C101.444 50.7014 102.015 50.1297 102.722 50.1297Z" stroke="#F9C84B" stroke-width="1.11168"></path> </g> <g filter="url(#filter8_f_116_270)"> <path d="M97.2169 38.5685C96.2034 38.5685 95.3828 39.3891 95.3828 40.4026V45.9054C95.3828 46.9189 96.2034 47.7395 97.2169 47.7395C98.2304 47.7395 99.051 46.9189 99.051 45.9054V40.4032C99.051 39.3891 98.2304 38.5685 97.2169 38.5685Z" fill="white"></path> <path d="M95.9387 40.4026C95.9387 39.6961 96.5104 39.1244 97.2169 39.1244C97.9233 39.1244 98.4951 39.696 98.4951 40.4032V45.9054C98.4951 46.6119 97.9234 47.1837 97.2169 47.1837C96.5104 47.1837 95.9387 46.6119 95.9387 45.9054V40.4026Z" stroke="#F9C84B" stroke-width="1.11168"></path> </g> <path d="M940.112 121.603V132H887.261V123.065L912.929 95.0694C915.744 91.8926 917.965 89.149 919.589 86.8386C921.214 84.5282 922.351 82.4524 923 80.6113C923.686 78.7341 924.029 76.911 924.029 75.1421C924.029 72.6512 923.56 70.4671 922.621 68.5899C921.719 66.6766 920.383 65.1784 918.614 64.0954C916.845 62.9763 914.697 62.4167 912.17 62.4167C909.246 62.4167 906.791 63.0485 904.806 64.312C902.82 65.5755 901.322 67.3264 900.311 69.5646C899.301 71.7667 898.795 74.2937 898.795 77.1457H885.745C885.745 72.5609 886.792 68.3733 888.886 64.5828C890.98 60.7561 894.012 57.7237 897.983 55.4855C901.954 53.2112 906.737 52.074 912.333 52.074C917.603 52.074 922.08 52.9585 925.762 54.7274C929.444 56.4963 932.242 59.0053 934.155 62.2543C936.105 65.5033 937.08 69.348 937.08 73.7883C937.08 76.2431 936.682 78.6799 935.888 81.0986C935.094 83.5173 933.957 85.9361 932.477 88.3548C931.033 90.7374 929.318 93.1381 927.333 95.5568C925.347 97.9394 923.163 100.358 920.78 102.813L903.723 121.603H940.112Z" fill="white"></path> <g filter="url(#filter9_f_116_270)"> <path d="M812.876 114.826H715.121C713.947 114.826 712.996 115.094 712.996 115.425V142.975C712.996 143.306 713.947 143.574 715.121 143.574H812.875C814.049 143.574 815 143.306 815 142.975V115.425C815.001 115.094 814.05 114.826 812.876 114.826ZM810.751 139.376H717.246V119.024H810.751V139.376Z" fill="white"></path> <path d="M810.751 139.932H811.307V139.376V119.024V118.468H810.751H717.246H716.691V119.024V139.376V139.932H717.246H810.751ZM715.121 115.382H812.876C813.427 115.382 813.905 115.445 814.228 115.536C814.322 115.563 814.393 115.589 814.444 115.612V142.788C814.393 142.81 814.322 142.837 814.227 142.863C813.904 142.954 813.426 143.018 812.875 143.018H715.121C714.57 143.018 714.092 142.954 713.769 142.863C713.674 142.837 713.603 142.81 713.552 142.788V115.612C713.603 115.589 713.674 115.563 713.769 115.536C714.092 115.445 714.57 115.382 715.121 115.382ZM814.54 115.665C814.54 115.665 814.537 115.663 814.533 115.66C814.538 115.663 814.54 115.665 814.54 115.665ZM814.444 115.425C814.444 115.425 814.444 115.424 814.444 115.424V115.425V115.425ZM814.54 142.734C814.54 142.734 814.538 142.736 814.533 142.74C814.537 142.736 814.539 142.735 814.54 142.734ZM713.456 142.734C713.457 142.734 713.459 142.736 713.463 142.74C713.458 142.736 713.456 142.734 713.456 142.734ZM713.456 115.665C713.456 115.665 713.458 115.663 713.463 115.66C713.459 115.663 713.457 115.665 713.456 115.665Z" stroke="#F9C84B" stroke-width="1.11168"></path> </g> <g filter="url(#filter10_f_116_270)"> <path d="M813.545 79.4346H746.713C745.911 79.4346 745.261 79.7026 745.261 80.0335V107.584C745.261 107.915 745.911 108.183 746.713 108.183H813.544C814.347 108.183 814.997 107.915 814.997 107.584V80.0335C814.997 79.7027 814.347 79.4346 813.545 79.4346ZM812.092 104.985H748.167V82.6325H812.092V104.985Z" fill="white"></path> <path d="M812.092 105.541H812.648V104.985V82.6325V82.0767H812.092H748.167H747.611V82.6325V104.985V105.541H748.167H812.092ZM746.713 79.9905H813.545C813.892 79.9905 814.18 80.0495 814.36 80.1239C814.394 80.138 814.421 80.1511 814.441 80.1623V107.455C814.421 107.466 814.394 107.479 814.36 107.493C814.179 107.568 813.891 107.627 813.544 107.627H746.713C746.366 107.627 746.078 107.568 745.898 107.493C745.864 107.479 745.837 107.466 745.817 107.455V80.1624C745.837 80.1512 745.864 80.138 745.898 80.1238C746.078 80.0494 746.366 79.9905 746.713 79.9905Z" stroke="#F9C84B" stroke-width="1.11168"></path> </g> <g filter="url(#filter11_f_116_270)"> <path d="M814.238 44.0443H779.328C778.909 44.0443 778.569 44.3122 778.569 44.6432V72.1933C778.569 72.5243 778.909 72.7922 779.328 72.7922H814.238C814.657 72.7922 814.997 72.5243 814.997 72.1933V44.6432C814.997 44.3124 814.657 44.0443 814.238 44.0443ZM811.479 69.5945H782.087V47.2422H811.479V69.5945Z" fill="white"></path> <path d="M811.479 70.1503H812.035V69.5945V47.2422V46.6864H811.479H782.087H781.531V47.2422V69.5945V70.1503H782.087H811.479ZM779.328 44.6001H814.238C814.332 44.6001 814.398 44.6308 814.43 44.656C814.435 44.6596 814.438 44.6626 814.441 44.6651V72.1713C814.438 72.1738 814.435 72.1769 814.43 72.1805C814.398 72.2057 814.332 72.2364 814.238 72.2364H779.328C779.234 72.2364 779.168 72.2057 779.136 72.1805C779.131 72.1769 779.128 72.1738 779.125 72.1713V44.6652C779.128 44.6627 779.131 44.6596 779.136 44.656C779.168 44.6308 779.234 44.6001 779.328 44.6001ZM814.447 44.6727C814.447 44.6727 814.447 44.6722 814.446 44.6712L814.447 44.6727ZM814.447 72.1638C814.447 72.1638 814.447 72.1643 814.446 72.1653L814.447 72.1638ZM779.119 72.1638C779.119 72.1638 779.119 72.1643 779.12 72.1653L779.119 72.1638ZM779.119 44.6727C779.119 44.6727 779.119 44.6722 779.12 44.6712L779.119 44.6727Z" stroke="#F9C84B" stroke-width="1.11168"></path> </g> <path d="M1243.59 214.962L1254.17 192.362H1257.1L1244.62 219H1242.55L1230.1 192.362H1233.03L1243.59 214.962ZM1232.11 192.362V219H1229.19V192.362H1232.11ZM1254.86 219V192.362H1257.82V219H1254.86ZM1276.04 219.492C1274.3 219.492 1272.7 219.172 1271.23 218.532C1269.79 217.892 1268.53 216.989 1267.44 215.824C1266.38 214.659 1265.55 213.28 1264.96 211.688C1264.38 210.08 1264.1 208.323 1264.1 206.42V205.361C1264.1 203.309 1264.4 201.455 1265.01 199.797C1265.61 198.139 1266.45 196.72 1267.52 195.538C1268.58 194.356 1269.8 193.454 1271.16 192.83C1272.54 192.19 1273.98 191.87 1275.49 191.87C1277.18 191.87 1278.69 192.173 1280 192.781C1281.31 193.371 1282.41 194.217 1283.3 195.316C1284.2 196.4 1284.88 197.688 1285.34 199.182C1285.8 200.659 1286.03 202.292 1286.03 204.081V205.878H1265.87V203.367H1283.1V203.022C1283.07 201.529 1282.76 200.134 1282.19 198.837C1281.63 197.524 1280.8 196.457 1279.68 195.636C1278.56 194.816 1277.17 194.405 1275.49 194.405C1274.25 194.405 1273.1 194.668 1272.05 195.193C1271.01 195.719 1270.12 196.473 1269.36 197.458C1268.63 198.427 1268.05 199.584 1267.64 200.93C1267.25 202.259 1267.05 203.736 1267.05 205.361V206.42C1267.05 207.897 1267.26 209.275 1267.69 210.556C1268.13 211.819 1268.76 212.935 1269.56 213.904C1270.38 214.872 1271.35 215.627 1272.47 216.169C1273.58 216.71 1274.81 216.981 1276.16 216.981C1277.73 216.981 1279.13 216.694 1280.34 216.12C1281.56 215.529 1282.65 214.601 1283.62 213.338L1285.46 214.766C1284.89 215.619 1284.17 216.407 1283.3 217.129C1282.44 217.851 1281.42 218.426 1280.22 218.852C1279.02 219.279 1277.63 219.492 1276.04 219.492ZM1300.95 192.362V219H1298.02V192.362H1300.95ZM1310.65 192.362V194.873H1288.67V192.362H1310.65ZM1318.43 197.483V229.242H1315.48V192.362H1318.23L1318.43 197.483ZM1336.94 205.435V205.952C1336.94 207.938 1336.71 209.76 1336.25 211.417C1335.79 213.075 1335.13 214.511 1334.26 215.726C1333.41 216.924 1332.35 217.851 1331.08 218.508C1329.82 219.164 1328.38 219.492 1326.78 219.492C1325.18 219.492 1323.76 219.246 1322.52 218.754C1321.27 218.261 1320.19 217.564 1319.29 216.661C1318.41 215.742 1317.69 214.675 1317.15 213.461C1316.62 212.23 1316.25 210.884 1316.04 209.423V202.604C1316.29 200.995 1316.69 199.534 1317.25 198.221C1317.81 196.908 1318.52 195.776 1319.39 194.824C1320.28 193.872 1321.33 193.142 1322.54 192.633C1323.76 192.124 1325.14 191.87 1326.7 191.87C1328.33 191.87 1329.77 192.19 1331.03 192.83C1332.31 193.454 1333.39 194.364 1334.26 195.563C1335.15 196.744 1335.81 198.172 1336.25 199.846C1336.71 201.504 1336.94 203.367 1336.94 205.435ZM1333.99 205.952V205.435C1333.99 203.876 1333.82 202.431 1333.5 201.102C1333.18 199.772 1332.7 198.615 1332.04 197.631C1331.4 196.629 1330.58 195.85 1329.58 195.292C1328.6 194.734 1327.42 194.455 1326.06 194.455C1324.65 194.455 1323.44 194.693 1322.44 195.169C1321.46 195.628 1320.64 196.244 1319.98 197.015C1319.32 197.77 1318.81 198.599 1318.43 199.502C1318.05 200.404 1317.77 201.291 1317.59 202.161V210.014C1317.9 211.261 1318.41 212.418 1319.09 213.485C1319.78 214.536 1320.7 215.381 1321.85 216.021C1323.02 216.645 1324.44 216.957 1326.11 216.957C1327.46 216.957 1328.62 216.678 1329.61 216.12C1330.59 215.562 1331.4 214.782 1332.04 213.781C1332.7 212.78 1333.18 211.614 1333.5 210.285C1333.82 208.955 1333.99 207.511 1333.99 205.952ZM1359.69 214.224V200.486C1359.69 199.223 1359.43 198.131 1358.9 197.212C1358.38 196.293 1357.61 195.587 1356.59 195.095C1355.57 194.602 1354.32 194.356 1352.82 194.356C1351.44 194.356 1350.21 194.602 1349.13 195.095C1348.06 195.571 1347.22 196.219 1346.59 197.04C1345.99 197.844 1345.68 198.738 1345.68 199.723L1342.73 199.699C1342.73 198.697 1342.97 197.729 1343.47 196.794C1343.96 195.858 1344.66 195.021 1345.56 194.282C1346.46 193.544 1347.54 192.961 1348.79 192.534C1350.05 192.091 1351.44 191.87 1352.95 191.87C1354.85 191.87 1356.52 192.19 1357.97 192.83C1359.43 193.47 1360.57 194.43 1361.39 195.71C1362.21 196.99 1362.62 198.599 1362.62 200.536V213.411C1362.62 214.331 1362.69 215.283 1362.82 216.267C1362.97 217.252 1363.17 218.064 1363.43 218.705V219H1360.31C1360.11 218.409 1359.95 217.671 1359.84 216.784C1359.74 215.882 1359.69 215.028 1359.69 214.224ZM1360.38 203.49L1360.43 205.755H1354.64C1353.13 205.755 1351.78 205.894 1350.58 206.173C1349.4 206.436 1348.4 206.83 1347.58 207.355C1346.76 207.864 1346.13 208.479 1345.68 209.202C1345.26 209.924 1345.04 210.744 1345.04 211.663C1345.04 212.615 1345.28 213.485 1345.76 214.273C1346.25 215.061 1346.94 215.693 1347.82 216.169C1348.73 216.628 1349.79 216.858 1351.03 216.858C1352.67 216.858 1354.11 216.554 1355.36 215.947C1356.62 215.34 1357.66 214.544 1358.48 213.559C1359.31 212.574 1359.86 211.499 1360.13 210.334L1361.41 212.033C1361.2 212.853 1360.81 213.699 1360.23 214.569C1359.67 215.422 1358.94 216.226 1358.04 216.981C1357.14 217.72 1356.07 218.327 1354.84 218.803C1353.63 219.263 1352.25 219.492 1350.71 219.492C1348.97 219.492 1347.45 219.164 1346.15 218.508C1344.87 217.851 1343.87 216.957 1343.15 215.824C1342.44 214.675 1342.09 213.379 1342.09 211.934C1342.09 210.621 1342.37 209.448 1342.93 208.414C1343.48 207.363 1344.29 206.477 1345.34 205.755C1346.41 205.016 1347.69 204.458 1349.18 204.081C1350.69 203.687 1352.38 203.49 1354.25 203.49H1360.38ZM1379.31 206.69L1368.5 192.362H1372.05L1380.81 204.032H1385.74L1385.47 206.69H1379.31ZM1381.09 206.395L1371.02 219H1367.27L1379.24 204.13L1381.09 206.395ZM1387.31 192.362V219H1384.38V192.362H1387.31ZM1403.27 192.362L1392.41 206.69H1386.3L1385.98 204.032H1390.93L1399.67 192.362H1403.27ZM1400.73 219L1390.64 206.395L1392.51 204.13L1404.47 219H1400.73ZM1430.94 192.362V219H1428.01V192.362H1430.94ZM1440.64 192.362V194.873H1418.65V192.362H1440.64ZM1453.83 219.492C1452.1 219.492 1450.49 219.172 1449.03 218.532C1447.59 217.892 1446.33 216.989 1445.24 215.824C1444.18 214.659 1443.35 213.28 1442.76 211.688C1442.18 210.08 1441.89 208.323 1441.89 206.42V205.361C1441.89 203.309 1442.2 201.455 1442.81 199.797C1443.41 198.139 1444.25 196.72 1445.32 195.538C1446.38 194.356 1447.6 193.454 1448.96 192.83C1450.34 192.19 1451.78 191.87 1453.29 191.87C1454.98 191.87 1456.49 192.173 1457.8 192.781C1459.11 193.371 1460.21 194.217 1461.1 195.316C1462 196.4 1462.68 197.688 1463.14 199.182C1463.6 200.659 1463.83 202.292 1463.83 204.081V205.878H1443.67V203.367H1460.9V203.022C1460.87 201.529 1460.56 200.134 1459.99 198.837C1459.43 197.524 1458.59 196.457 1457.48 195.636C1456.36 194.816 1454.97 194.405 1453.29 194.405C1452.05 194.405 1450.9 194.668 1449.85 195.193C1448.81 195.719 1447.92 196.473 1447.16 197.458C1446.42 198.427 1445.85 199.584 1445.44 200.93C1445.05 202.259 1444.85 203.736 1444.85 205.361V206.42C1444.85 207.897 1445.06 209.275 1445.49 210.556C1445.93 211.819 1446.56 212.935 1447.36 213.904C1448.18 214.872 1449.15 215.627 1450.27 216.169C1451.38 216.71 1452.61 216.981 1453.96 216.981C1455.53 216.981 1456.93 216.694 1458.14 216.12C1459.36 215.529 1460.45 214.601 1461.42 213.338L1463.26 214.766C1462.69 215.619 1461.97 216.407 1461.1 217.129C1460.24 217.851 1459.22 218.426 1458.02 218.852C1456.82 219.279 1455.43 219.492 1453.83 219.492ZM1472.55 197.483V229.242H1469.59V192.362H1472.35L1472.55 197.483ZM1491.06 205.435V205.952C1491.06 207.938 1490.83 209.76 1490.37 211.417C1489.91 213.075 1489.25 214.511 1488.38 215.726C1487.52 216.924 1486.46 217.851 1485.2 218.508C1483.94 219.164 1482.5 219.492 1480.89 219.492C1479.3 219.492 1477.88 219.246 1476.63 218.754C1475.38 218.261 1474.31 217.564 1473.41 216.661C1472.52 215.742 1471.81 214.675 1471.27 213.461C1470.74 212.23 1470.37 210.884 1470.16 209.423V202.604C1470.4 200.995 1470.81 199.534 1471.36 198.221C1471.92 196.908 1472.64 195.776 1473.51 194.824C1474.39 193.872 1475.44 193.142 1476.66 192.633C1477.87 192.124 1479.26 191.87 1480.82 191.87C1482.44 191.87 1483.89 192.19 1485.15 192.83C1486.43 193.454 1487.51 194.364 1488.38 195.563C1489.26 196.744 1489.93 198.172 1490.37 199.846C1490.83 201.504 1491.06 203.367 1491.06 205.435ZM1488.1 205.952V205.435C1488.1 203.876 1487.94 202.431 1487.61 201.102C1487.3 199.772 1486.82 198.615 1486.16 197.631C1485.52 196.629 1484.7 195.85 1483.7 195.292C1482.71 194.734 1481.54 194.455 1480.18 194.455C1478.77 194.455 1477.56 194.693 1476.56 195.169C1475.57 195.628 1474.75 196.244 1474.1 197.015C1473.44 197.77 1472.92 198.599 1472.55 199.502C1472.17 200.404 1471.89 201.291 1471.71 202.161V210.014C1472.02 211.261 1472.52 212.418 1473.21 213.485C1473.9 214.536 1474.82 215.381 1475.97 216.021C1477.13 216.645 1478.55 216.957 1480.23 216.957C1481.57 216.957 1482.74 216.678 1483.72 216.12C1484.71 215.562 1485.52 214.782 1486.16 213.781C1486.82 212.78 1487.3 211.614 1487.61 210.285C1487.94 208.955 1488.1 207.511 1488.1 205.952ZM1500.51 197.483V229.242H1497.56V192.362H1500.32L1500.51 197.483ZM1519.03 205.435V205.952C1519.03 207.938 1518.8 209.76 1518.34 211.417C1517.88 213.075 1517.21 214.511 1516.34 215.726C1515.49 216.924 1514.43 217.851 1513.17 218.508C1511.9 219.164 1510.47 219.492 1508.86 219.492C1507.27 219.492 1505.85 219.246 1504.6 218.754C1503.35 218.261 1502.28 217.564 1501.37 216.661C1500.49 215.742 1499.77 214.675 1499.23 213.461C1498.71 212.23 1498.34 210.884 1498.12 209.423V202.604C1498.37 200.995 1498.77 199.534 1499.33 198.221C1499.89 196.908 1500.6 195.776 1501.47 194.824C1502.36 193.872 1503.41 193.142 1504.62 192.633C1505.84 192.124 1507.23 191.87 1508.78 191.87C1510.41 191.87 1511.85 192.19 1513.12 192.83C1514.4 193.454 1515.47 194.364 1516.34 195.563C1517.23 196.744 1517.89 198.172 1518.34 199.846C1518.8 201.504 1519.03 203.367 1519.03 205.435ZM1516.07 205.952V205.435C1516.07 203.876 1515.91 202.431 1515.58 201.102C1515.27 199.772 1514.78 198.615 1514.13 197.631C1513.49 196.629 1512.67 195.85 1511.67 195.292C1510.68 194.734 1509.51 194.455 1508.14 194.455C1506.73 194.455 1505.53 194.693 1504.53 195.169C1503.54 195.628 1502.72 196.244 1502.06 197.015C1501.41 197.77 1500.89 198.599 1500.51 199.502C1500.14 200.404 1499.86 201.291 1499.68 202.161V210.014C1499.99 211.261 1500.49 212.418 1501.18 213.485C1501.87 214.536 1502.79 215.381 1503.93 216.021C1505.1 216.645 1506.52 216.957 1508.19 216.957C1509.54 216.957 1510.71 216.678 1511.69 216.12C1512.67 215.562 1513.49 214.782 1514.13 213.781C1514.78 212.78 1515.27 211.614 1515.58 210.285C1515.91 208.955 1516.07 207.511 1516.07 205.952ZM1541.77 214.224V200.486C1541.77 199.223 1541.51 198.131 1540.99 197.212C1540.46 196.293 1539.69 195.587 1538.67 195.095C1537.65 194.602 1536.4 194.356 1534.91 194.356C1533.53 194.356 1532.3 194.602 1531.21 195.095C1530.15 195.571 1529.3 196.219 1528.68 197.04C1528.07 197.844 1527.77 198.738 1527.77 199.723L1524.81 199.699C1524.81 198.697 1525.06 197.729 1525.55 196.794C1526.04 195.858 1526.74 195.021 1527.64 194.282C1528.55 193.544 1529.62 192.961 1530.87 192.534C1532.13 192.091 1533.52 191.87 1535.03 191.87C1536.93 191.87 1538.61 192.19 1540.05 192.83C1541.51 193.47 1542.65 194.43 1543.47 195.71C1544.29 196.99 1544.7 198.599 1544.7 200.536V213.411C1544.7 214.331 1544.77 215.283 1544.9 216.267C1545.05 217.252 1545.25 218.064 1545.52 218.705V219H1542.39C1542.19 218.409 1542.04 217.671 1541.92 216.784C1541.82 215.882 1541.77 215.028 1541.77 214.224ZM1542.46 203.49L1542.51 205.755H1536.73C1535.22 205.755 1533.86 205.894 1532.67 206.173C1531.48 206.436 1530.48 206.83 1529.66 207.355C1528.84 207.864 1528.21 208.479 1527.77 209.202C1527.34 209.924 1527.13 210.744 1527.13 211.663C1527.13 212.615 1527.36 213.485 1527.84 214.273C1528.33 215.061 1529.02 215.693 1529.91 216.169C1530.81 216.628 1531.88 216.858 1533.11 216.858C1534.75 216.858 1536.19 216.554 1537.44 215.947C1538.71 215.34 1539.75 214.544 1540.57 213.559C1541.39 212.574 1541.94 211.499 1542.22 210.334L1543.5 212.033C1543.28 212.853 1542.89 213.699 1542.32 214.569C1541.76 215.422 1541.03 216.226 1540.12 216.981C1539.22 217.72 1538.16 218.327 1536.92 218.803C1535.71 219.263 1534.33 219.492 1532.79 219.492C1531.05 219.492 1529.53 219.164 1528.23 218.508C1526.95 217.851 1525.95 216.957 1525.23 215.824C1524.52 214.675 1524.17 213.379 1524.17 211.934C1524.17 210.621 1524.45 209.448 1525.01 208.414C1525.57 207.363 1526.37 206.477 1527.42 205.755C1528.49 205.016 1529.77 204.458 1531.26 204.081C1532.77 203.687 1534.46 203.49 1536.33 203.49H1542.46ZM1562.43 216.957C1563.68 216.957 1564.84 216.727 1565.93 216.267C1567.03 215.791 1567.93 215.094 1568.63 214.175C1569.36 213.239 1569.77 212.098 1569.86 210.753H1572.67C1572.59 212.443 1572.07 213.953 1571.12 215.283C1570.18 216.596 1568.95 217.63 1567.43 218.385C1565.92 219.123 1564.25 219.492 1562.43 219.492C1560.58 219.492 1558.93 219.156 1557.51 218.483C1556.09 217.81 1554.91 216.875 1553.96 215.676C1553.01 214.462 1552.29 213.05 1551.79 211.442C1551.32 209.817 1551.08 208.069 1551.08 206.198V205.164C1551.08 203.293 1551.32 201.553 1551.79 199.945C1552.29 198.32 1553.01 196.908 1553.96 195.71C1554.91 194.496 1556.09 193.552 1557.51 192.879C1558.92 192.206 1560.55 191.87 1562.41 191.87C1564.31 191.87 1566.02 192.255 1567.53 193.027C1569.05 193.798 1570.27 194.89 1571.17 196.301C1572.09 197.713 1572.59 199.387 1572.67 201.323H1569.86C1569.78 199.896 1569.41 198.665 1568.73 197.631C1568.06 196.597 1567.17 195.801 1566.07 195.243C1564.97 194.684 1563.75 194.405 1562.41 194.405C1560.9 194.405 1559.61 194.701 1558.54 195.292C1557.47 195.866 1556.6 196.662 1555.93 197.68C1555.27 198.681 1554.79 199.83 1554.48 201.127C1554.17 202.407 1554.01 203.753 1554.01 205.164V206.198C1554.01 207.626 1554.16 208.988 1554.45 210.285C1554.77 211.565 1555.25 212.706 1555.91 213.707C1556.58 214.708 1557.45 215.504 1558.52 216.095C1559.6 216.669 1560.9 216.957 1562.43 216.957ZM1580.8 202.013H1589.49C1591.59 202.013 1593.36 202.382 1594.8 203.121C1596.25 203.843 1597.34 204.844 1598.08 206.124C1598.83 207.404 1599.21 208.849 1599.21 210.457C1599.21 211.672 1599 212.804 1598.57 213.855C1598.16 214.889 1597.54 215.791 1596.7 216.563C1595.88 217.334 1594.86 217.933 1593.65 218.36C1592.45 218.787 1591.06 219 1589.49 219H1578.92V192.362H1581.85V216.464H1589.49C1591.11 216.464 1592.42 216.185 1593.43 215.627C1594.43 215.053 1595.15 214.314 1595.59 213.411C1596.05 212.509 1596.28 211.549 1596.28 210.531C1596.28 209.53 1596.05 208.578 1595.59 207.675C1595.15 206.756 1594.43 206.009 1593.43 205.435C1592.42 204.844 1591.11 204.549 1589.49 204.549H1580.8V202.013ZM1608.25 192.362V219H1605.32V192.362H1608.25Z" fill="#D3E0F4"></path> <path d="M1266.86 39.8849V119H1253.81V55.3722L1234.47 61.9245V51.1484L1265.29 39.8849H1266.86ZM1345.81 97.5019C1345.81 102.412 1344.67 106.545 1342.4 109.903C1340.12 113.26 1337.02 115.805 1333.08 117.538C1329.18 119.235 1324.78 120.083 1319.87 120.083C1314.96 120.083 1310.54 119.235 1306.6 117.538C1302.67 115.805 1299.56 113.26 1297.29 109.903C1295.01 106.545 1293.88 102.412 1293.88 97.5019C1293.88 94.2528 1294.51 91.3106 1295.77 88.6752C1297.04 86.0038 1298.82 83.7114 1301.13 81.798C1303.48 79.8486 1306.22 78.3504 1309.36 77.3035C1312.54 76.2565 1316.01 75.7331 1319.76 75.7331C1324.74 75.7331 1329.2 76.6536 1333.14 78.4948C1337.07 80.3359 1340.16 82.881 1342.4 86.1301C1344.67 89.3792 1345.81 93.1698 1345.81 97.5019ZM1332.7 96.8521C1332.7 94.2167 1332.16 91.9063 1331.08 89.9207C1330 87.9352 1328.48 86.4009 1326.53 85.3179C1324.58 84.2348 1322.32 83.6933 1319.76 83.6933C1317.16 83.6933 1314.91 84.2348 1312.99 85.3179C1311.08 86.4009 1309.58 87.9352 1308.5 89.9207C1307.45 91.9063 1306.93 94.2167 1306.93 96.8521C1306.93 99.5236 1307.45 101.834 1308.5 103.783C1309.55 105.697 1311.04 107.159 1312.99 108.17C1314.94 109.181 1317.23 109.686 1319.87 109.686C1322.51 109.686 1324.78 109.181 1326.69 108.17C1328.61 107.159 1330.09 105.697 1331.13 103.783C1332.18 101.834 1332.7 99.5236 1332.7 96.8521ZM1344.02 60.8956C1344.02 64.8306 1342.97 68.3324 1340.88 71.401C1338.82 74.4695 1335.97 76.8883 1332.32 78.6572C1328.68 80.3901 1324.53 81.2565 1319.87 81.2565C1315.18 81.2565 1310.99 80.3901 1307.31 78.6572C1303.66 76.8883 1300.79 74.4695 1298.7 71.401C1296.64 68.3324 1295.61 64.8306 1295.61 60.8956C1295.61 56.2025 1296.64 52.2494 1298.7 49.0364C1300.79 45.7874 1303.66 43.3145 1307.31 41.6177C1310.95 39.921 1315.12 39.0726 1319.82 39.0726C1324.51 39.0726 1328.68 39.921 1332.32 41.6177C1335.97 43.3145 1338.82 45.7874 1340.88 49.0364C1342.97 52.2494 1344.02 56.2025 1344.02 60.8956ZM1330.97 61.3288C1330.97 58.9822 1330.5 56.9245 1329.56 55.1556C1328.66 53.3505 1327.38 51.9426 1325.72 50.9317C1324.06 49.9209 1322.09 49.4155 1319.82 49.4155C1317.54 49.4155 1315.57 49.9029 1313.91 50.8776C1312.25 51.8523 1310.97 53.2242 1310.07 54.9931C1309.17 56.762 1308.71 58.8739 1308.71 61.3288C1308.71 63.7476 1309.17 65.8595 1310.07 67.6645C1310.97 69.4335 1312.25 70.8233 1313.91 71.8342C1315.61 72.845 1317.6 73.3504 1319.87 73.3504C1322.14 73.3504 1324.11 72.845 1325.77 71.8342C1327.43 70.8233 1328.71 69.4335 1329.62 67.6645C1330.52 65.8595 1330.97 63.7476 1330.97 61.3288ZM1420.48 103.188L1437.92 60.4082H1449.24L1424.92 119H1416.04L1391.78 60.4082H1403.1L1420.48 103.188ZM1399.74 60.4082V119H1386.69V60.4082H1399.74ZM1441.22 119V60.4082H1454.33V119H1441.22ZM1499.49 75.0291V82.881H1466.51V76.2746L1482.05 61.9245C1483.53 60.5887 1484.71 59.3613 1485.57 58.2422C1486.48 57.0869 1487.13 56.04 1487.52 55.1014C1487.96 54.1628 1488.17 53.3686 1488.17 52.7187C1488.17 51.1664 1487.67 49.9029 1486.66 48.9281C1485.65 47.9173 1484.18 47.4119 1482.27 47.4119C1479.96 47.4119 1478.23 48.0617 1477.07 49.3614C1475.95 50.6249 1475.39 52.1772 1475.39 54.0184H1465.54C1465.54 51.383 1466.19 48.9642 1467.49 46.7621C1468.82 44.5599 1470.7 42.809 1473.12 41.5094C1475.57 40.2098 1478.5 39.56 1481.89 39.56C1485.32 39.56 1488.23 40.0834 1490.61 41.1303C1493.03 42.1773 1494.87 43.6755 1496.13 45.6249C1497.43 47.5744 1498.08 49.9209 1498.08 52.6646C1498.08 54.6501 1497.65 56.4913 1496.78 58.188C1495.92 59.8487 1494.65 61.5093 1492.99 63.17C1491.37 64.8306 1489.35 66.6537 1486.93 68.6392L1479.29 75.0291H1499.49Z" fill="white"></path> <g filter="url(#filter12_f_116_270)"> <path d="M1189.24 31.1248H1101.08C1100.02 31.1248 1099.16 32.0469 1099.16 33.1859V128.007C1099.16 129.146 1100.02 130.068 1101.08 130.068H1189.24C1190.3 130.068 1191.16 129.146 1191.16 128.007V33.1859C1191.16 32.0475 1190.3 31.1248 1189.24 31.1248ZM1187.33 125.946H1187.33H1103V35.2476H1187.33V125.946Z" fill="white"></path> <path d="M1190.7 33.1857V33.1859V128.007C1190.7 128.925 1190.02 129.611 1189.24 129.611H1101.08C1100.3 129.611 1099.62 128.925 1099.62 128.007V33.1859C1099.62 32.2673 1100.3 31.5815 1101.08 31.5815H1189.24C1190.02 31.5815 1190.7 32.2678 1190.7 33.1857ZM1187.33 126.402H1187.78V125.946V35.2476V34.7909H1187.33H1103H1102.54V35.2476V125.946V126.402H1103H1187.33H1187.33Z" stroke="#F9C84B" stroke-width="0.913462"></path> </g> <g filter="url(#filter13_f_116_270)"> <path d="M1179.95 31.2502C1178.89 31.2502 1178.04 39.8909 1178.04 50.5505V108.457C1178.04 119.122 1178.89 127.757 1179.95 127.757C1181.01 127.757 1181.87 119.122 1181.87 108.457V50.5505C1181.87 39.8909 1181.01 31.2502 1179.95 31.2502Z" fill="white"></path> <path d="M1178.49 50.5505C1178.49 45.2308 1178.71 40.4215 1179.05 36.9481C1179.22 35.2087 1179.43 33.8188 1179.65 32.8713C1179.75 32.4313 1179.86 32.1076 1179.95 31.894C1180.05 32.1076 1180.15 32.4313 1180.25 32.8713C1180.48 33.8188 1180.68 35.2087 1180.85 36.9481C1181.2 40.4215 1181.41 45.2308 1181.41 50.5505V108.457C1181.41 113.78 1181.2 118.589 1180.85 122.062C1180.68 123.801 1180.48 125.19 1180.25 126.137C1180.15 126.577 1180.05 126.9 1179.95 127.114C1179.86 126.9 1179.75 126.577 1179.65 126.137C1179.43 125.19 1179.22 123.801 1179.05 122.062C1178.71 118.589 1178.49 113.78 1178.49 108.457V50.5505Z" stroke="#F9C84B" stroke-width="0.913462"></path> </g> <g filter="url(#filter14_f_116_270)"> <path d="M1157.19 31.2499C1156.13 31.2499 1155.27 39.8907 1155.27 50.5502V108.457C1155.27 119.122 1156.13 127.757 1157.19 127.757C1158.24 127.757 1159.1 119.122 1159.1 108.457V50.5502C1159.1 39.8907 1158.24 31.2499 1157.19 31.2499Z" fill="white"></path> <path d="M1155.73 50.5502C1155.73 45.2306 1155.94 40.4213 1156.29 36.9479C1156.46 35.2084 1156.66 33.8185 1156.88 32.871C1156.99 32.4313 1157.09 32.1077 1157.19 31.894C1157.28 32.1077 1157.38 32.4313 1157.49 32.871C1157.71 33.8185 1157.91 35.2084 1158.09 36.9479C1158.43 40.4213 1158.65 45.2306 1158.65 50.5502V108.457C1158.65 113.779 1158.43 118.589 1158.09 122.061C1157.91 123.801 1157.71 125.19 1157.49 126.137C1157.38 126.576 1157.28 126.9 1157.19 127.113C1157.09 126.9 1156.99 126.576 1156.88 126.137C1156.66 125.19 1156.46 123.801 1156.29 122.061C1155.94 118.589 1155.73 113.779 1155.73 108.457V50.5502Z" stroke="#F9C84B" stroke-width="0.913462"></path> </g> <g filter="url(#filter15_f_116_270)"> <path d="M1134.42 31.2499C1133.36 31.2499 1132.5 39.8907 1132.5 50.5502V108.457C1132.5 119.122 1133.36 127.757 1134.42 127.757C1135.48 127.757 1136.34 119.122 1136.34 108.457V50.5502C1136.34 39.8907 1135.48 31.2499 1134.42 31.2499Z" fill="white"></path> <path d="M1132.96 50.5502C1132.96 45.2306 1133.17 40.4213 1133.52 36.9479C1133.69 35.2084 1133.9 33.8185 1134.12 32.871C1134.22 32.4311 1134.32 32.1074 1134.42 31.8937C1134.52 32.1074 1134.62 32.4311 1134.72 32.871C1134.94 33.8185 1135.15 35.2084 1135.32 36.9479C1135.67 40.4213 1135.88 45.2306 1135.88 50.5502V108.457C1135.88 113.779 1135.67 118.589 1135.32 122.061C1135.15 123.8 1134.94 125.19 1134.72 126.137C1134.62 126.577 1134.52 126.9 1134.42 127.114C1134.32 126.9 1134.22 126.577 1134.12 126.137C1133.9 125.19 1133.69 123.8 1133.52 122.061C1133.17 118.589 1132.96 113.779 1132.96 108.457V50.5502Z" stroke="#F9C84B" stroke-width="0.913462"></path> </g> <g filter="url(#filter16_f_116_270)"> <path d="M1111.65 31.2502C1110.59 31.2502 1109.73 39.8909 1109.73 50.5505V108.457C1109.73 119.122 1110.59 127.757 1111.65 127.757C1112.71 127.757 1113.57 119.122 1113.57 108.457V50.5505C1113.57 39.8909 1112.71 31.2502 1111.65 31.2502Z" fill="white"></path> <path d="M1110.19 50.5505C1110.19 45.2308 1110.4 40.4215 1110.75 36.9481C1110.92 35.2087 1111.12 33.8188 1111.35 32.8712C1111.45 32.4315 1111.55 32.108 1111.65 31.8943C1111.74 32.108 1111.85 32.4315 1111.95 32.8712C1112.17 33.8188 1112.38 35.2087 1112.55 36.9481C1112.89 40.4215 1113.11 45.2308 1113.11 50.5505V108.457C1113.11 113.78 1112.89 118.589 1112.55 122.062C1112.38 123.801 1112.17 125.19 1111.95 126.137C1111.85 126.577 1111.74 126.9 1111.65 127.114C1111.55 126.9 1111.45 126.577 1111.35 126.137C1111.12 125.19 1110.92 123.801 1110.75 122.062C1110.4 118.589 1110.19 113.78 1110.19 108.457V50.5505Z" stroke="#F9C84B" stroke-width="0.913462"></path> </g> <path d="M1831.21 192.332V218.97H1828.26V192.332H1831.21ZM1848.74 192.332L1836.53 206.758H1830.18L1829.86 204.124H1835.27L1845.02 192.332H1848.74ZM1846.08 218.97L1834.98 206.365L1836.85 204.1L1849.97 218.97H1846.08ZM1852.06 206.069V205.257C1852.06 203.32 1852.34 201.531 1852.9 199.89C1853.46 198.248 1854.25 196.829 1855.29 195.631C1856.34 194.432 1857.59 193.505 1859.05 192.849C1860.52 192.176 1862.14 191.839 1863.93 191.839C1865.73 191.839 1867.37 192.176 1868.83 192.849C1870.29 193.505 1871.54 194.432 1872.6 195.631C1873.65 196.829 1874.45 198.248 1875.01 199.89C1875.57 201.531 1875.85 203.32 1875.85 205.257V206.069C1875.85 208.006 1875.57 209.795 1875.01 211.436C1874.45 213.061 1873.65 214.472 1872.6 215.671C1871.56 216.869 1870.31 217.804 1868.85 218.477C1867.39 219.134 1865.77 219.462 1863.98 219.462C1862.17 219.462 1860.54 219.134 1859.08 218.477C1857.62 217.804 1856.36 216.869 1855.31 215.671C1854.26 214.472 1853.46 213.061 1852.9 211.436C1852.34 209.795 1852.06 208.006 1852.06 206.069ZM1854.99 205.257V206.069C1854.99 207.53 1855.19 208.917 1855.58 210.23C1855.98 211.526 1856.55 212.683 1857.31 213.701C1858.06 214.702 1859 215.49 1860.11 216.064C1861.23 216.639 1862.52 216.926 1863.98 216.926C1865.42 216.926 1866.69 216.639 1867.79 216.064C1868.91 215.49 1869.85 214.702 1870.6 213.701C1871.36 212.683 1871.92 211.526 1872.3 210.23C1872.69 208.917 1872.89 207.53 1872.89 206.069V205.257C1872.89 203.812 1872.69 202.442 1872.3 201.145C1871.92 199.849 1871.35 198.692 1870.58 197.674C1869.82 196.656 1868.89 195.852 1867.77 195.261C1866.65 194.67 1865.37 194.375 1863.93 194.375C1862.49 194.375 1861.2 194.67 1860.09 195.261C1858.99 195.852 1858.05 196.656 1857.28 197.674C1856.53 198.692 1855.95 199.849 1855.56 201.145C1855.18 202.442 1854.99 203.812 1854.99 205.257ZM1896.67 214.932L1907.26 192.332H1910.19L1897.71 218.97H1895.64L1883.18 192.332H1886.11L1896.67 214.932ZM1885.2 192.332V218.97H1882.27V192.332H1885.2ZM1907.95 218.97V192.332H1910.9V218.97H1907.95ZM1937 204.247V206.758H1921.19V204.247H1937ZM1921.96 192.332V218.97H1919.03V192.332H1921.96ZM1939.26 192.332V218.97H1936.31V192.332H1939.26ZM1963.39 214.193V200.456C1963.39 199.192 1963.13 198.101 1962.6 197.182C1962.08 196.262 1961.31 195.557 1960.29 195.064C1959.27 194.572 1958.02 194.326 1956.52 194.326C1955.14 194.326 1953.91 194.572 1952.83 195.064C1951.76 195.54 1950.92 196.189 1950.29 197.009C1949.69 197.813 1949.38 198.708 1949.38 199.693L1946.43 199.668C1946.43 198.667 1946.67 197.699 1947.17 196.763C1947.66 195.828 1948.36 194.991 1949.26 194.252C1950.16 193.513 1951.24 192.931 1952.48 192.504C1953.75 192.061 1955.14 191.839 1956.65 191.839C1958.55 191.839 1960.22 192.159 1961.67 192.799C1963.13 193.439 1964.27 194.4 1965.09 195.68C1965.91 196.96 1966.32 198.568 1966.32 200.505V213.381C1966.32 214.3 1966.39 215.252 1966.52 216.237C1966.67 217.222 1966.87 218.034 1967.13 218.674V218.97H1964.01C1963.81 218.379 1963.65 217.64 1963.54 216.754C1963.44 215.851 1963.39 214.998 1963.39 214.193ZM1964.08 203.459L1964.13 205.724H1958.34C1956.83 205.724 1955.48 205.864 1954.28 206.143C1953.1 206.406 1952.1 206.799 1951.28 207.325C1950.46 207.833 1949.83 208.449 1949.38 209.171C1948.96 209.893 1948.74 210.714 1948.74 211.633C1948.74 212.585 1948.98 213.455 1949.46 214.243C1949.95 215.03 1950.64 215.662 1951.52 216.138C1952.43 216.598 1953.49 216.828 1954.72 216.828C1956.37 216.828 1957.81 216.524 1959.06 215.917C1960.32 215.309 1961.36 214.513 1962.18 213.529C1963.01 212.544 1963.55 211.469 1963.83 210.304L1965.11 212.002C1964.9 212.823 1964.51 213.668 1963.93 214.538C1963.37 215.392 1962.64 216.196 1961.74 216.951C1960.84 217.689 1959.77 218.297 1958.54 218.773C1957.33 219.232 1955.95 219.462 1954.4 219.462C1952.67 219.462 1951.15 219.134 1949.85 218.477C1948.57 217.821 1947.57 216.926 1946.85 215.794C1946.14 214.645 1945.79 213.348 1945.79 211.904C1945.79 210.591 1946.07 209.417 1946.63 208.383C1947.18 207.333 1947.99 206.447 1949.04 205.724C1950.1 204.986 1951.38 204.428 1952.88 204.05C1954.39 203.656 1956.08 203.459 1957.95 203.459H1964.08ZM1983.23 192.332V218.97H1980.3V192.332H1983.23ZM1992.93 192.332V194.843H1970.95V192.332H1992.93ZM2000 201.982H2008.69C2010.79 201.982 2012.56 202.352 2014.01 203.09C2015.45 203.812 2016.54 204.814 2017.28 206.094C2018.04 207.374 2018.41 208.818 2018.41 210.427C2018.41 211.641 2018.2 212.774 2017.77 213.824C2017.36 214.858 2016.74 215.761 2015.9 216.532C2015.08 217.304 2014.07 217.903 2012.85 218.329C2011.65 218.756 2010.27 218.97 2008.69 218.97H1998.13V192.332H2001.06V216.434H2008.69C2010.31 216.434 2011.63 216.155 2012.63 215.597C2013.63 215.022 2014.35 214.284 2014.8 213.381C2015.26 212.478 2015.48 211.518 2015.48 210.501C2015.48 209.499 2015.26 208.547 2014.8 207.645C2014.35 206.726 2013.63 205.979 2012.63 205.404C2011.63 204.814 2010.31 204.518 2008.69 204.518H2000V201.982ZM2027.45 192.332V218.97H2024.52V192.332H2027.45Z" fill="#D3E0F4"></path> <path d="M1843.88 95.3395L1833.48 92.7944L1837.76 53.1556H1880.27V64.2025H1848.59L1846.42 83.5345C1847.65 82.8125 1849.34 82.1086 1851.51 81.4226C1853.68 80.7006 1856.15 80.3396 1858.93 80.3396C1862.65 80.3396 1865.97 80.9533 1868.89 82.1808C1871.85 83.3721 1874.36 85.123 1876.42 87.4334C1878.48 89.7078 1880.05 92.4876 1881.13 95.7727C1882.21 99.0218 1882.76 102.686 1882.76 106.765C1882.76 110.412 1882.21 113.823 1881.13 117C1880.08 120.177 1878.5 122.975 1876.37 125.394C1874.24 127.812 1871.55 129.708 1868.3 131.079C1865.08 132.415 1861.28 133.083 1856.87 133.083C1853.59 133.083 1850.43 132.614 1847.4 131.675C1844.4 130.7 1841.71 129.274 1839.33 127.397C1836.94 125.484 1835.03 123.137 1833.59 120.357C1832.14 117.542 1831.31 114.311 1831.1 110.664H1843.88C1844.2 113.228 1844.9 115.412 1845.99 117.217C1847.11 118.986 1848.59 120.339 1850.43 121.278C1852.27 122.217 1854.4 122.686 1856.82 122.686C1859.02 122.686 1860.92 122.307 1862.5 121.549C1864.09 120.755 1865.41 119.635 1866.46 118.191C1867.54 116.711 1868.33 114.978 1868.84 112.993C1869.38 111.007 1869.65 108.805 1869.65 106.386C1869.65 104.076 1869.34 101.964 1868.73 100.051C1868.15 98.1374 1867.27 96.4767 1866.08 95.0688C1864.92 93.6608 1863.46 92.5778 1861.69 91.8197C1859.92 91.0255 1857.88 90.6284 1855.57 90.6284C1852.47 90.6284 1850.09 91.0796 1848.42 91.9821C1846.8 92.8847 1845.28 94.0038 1843.88 95.3395Z" fill="white"></path> <g filter="url(#filter17_f_116_270)"> <path d="M1785.19 44.1248H1689.67C1688.52 44.1248 1687.59 44.4253 1687.59 44.7964V75.695C1687.59 76.0661 1688.52 76.3666 1689.67 76.3666H1785.19C1786.33 76.3666 1787.26 76.0661 1787.26 75.695V44.7964C1787.26 44.4255 1786.33 44.1248 1785.19 44.1248ZM1784.23 73.9117H1690.63V46.5799H1784.23V73.9117Z" fill="white"></path> <path d="M1785.19 44.1248H1689.67C1688.52 44.1248 1687.59 44.4253 1687.59 44.7964V75.695C1687.59 76.0661 1688.52 76.3666 1689.67 76.3666H1785.19C1786.33 76.3666 1787.26 76.0661 1787.26 75.695V44.7964C1787.26 44.4255 1786.33 44.1248 1785.19 44.1248ZM1784.23 73.9117H1690.63V46.5799H1784.23V73.9117Z" stroke="#F9C84B" stroke-width="0.913462"></path> </g> <g filter="url(#filter18_f_116_270)"> <path d="M1735.85 83.0367H1688.63C1688.06 83.0367 1687.6 83.5962 1687.6 84.2873V141.817C1687.6 142.508 1688.06 143.067 1688.63 143.067H1735.85C1736.41 143.067 1736.87 142.508 1736.87 141.817V84.2873C1736.87 83.5966 1736.41 83.0367 1735.85 83.0367ZM1733.7 139.455H1690.77V86.6498H1733.7V139.455Z" fill="white"></path> <path d="M1736.42 84.2871V84.2873V141.817C1736.42 142.344 1736.08 142.611 1735.85 142.611H1688.63C1688.39 142.611 1688.06 142.344 1688.06 141.817V84.2873C1688.06 83.76 1688.39 83.4935 1688.63 83.4935H1735.85C1736.08 83.4935 1736.42 83.7602 1736.42 84.2871ZM1733.7 139.911H1734.16V139.455V86.6498V86.1931H1733.7H1690.77H1690.32V86.6498V139.455V139.911H1690.77H1733.7Z" stroke="#F9C84B" stroke-width="0.913462"></path> </g> <g filter="url(#filter19_f_116_270)"> <path d="M1786.33 83.035H1743.41C1742.89 83.035 1742.47 83.294 1742.47 83.6139V110.248C1742.47 110.568 1742.89 110.827 1743.41 110.827H1786.33C1786.85 110.827 1787.27 110.568 1787.27 110.248V83.6139C1787.27 83.2942 1786.85 83.035 1786.33 83.035ZM1784.28 107.446H1745.46V86.4164H1784.28V107.446Z" fill="white"></path> <path d="M1784.28 107.902H1784.74V107.446V86.4164V85.9597H1784.28H1745.46H1745V86.4164V107.446V107.902H1745.46H1784.28ZM1743.41 83.4917H1786.33C1786.52 83.4917 1786.67 83.5395 1786.75 83.5926C1786.79 83.6127 1786.8 83.6282 1786.81 83.6374V110.224C1786.8 110.234 1786.79 110.249 1786.75 110.269C1786.67 110.322 1786.52 110.37 1786.33 110.37H1743.41C1743.22 110.37 1743.07 110.322 1742.99 110.269C1742.96 110.249 1742.94 110.234 1742.93 110.224V83.6375C1742.94 83.6283 1742.96 83.6128 1742.99 83.5926C1743.07 83.5395 1743.22 83.4917 1743.41 83.4917ZM1786.82 83.6469C1786.82 83.647 1786.82 83.6457 1786.81 83.643C1786.82 83.6455 1786.82 83.6469 1786.82 83.6469ZM1786.82 110.215C1786.82 110.215 1786.82 110.216 1786.81 110.219C1786.82 110.216 1786.82 110.215 1786.82 110.215ZM1742.92 110.215C1742.92 110.215 1742.92 110.216 1742.93 110.219C1742.92 110.216 1742.92 110.215 1742.92 110.215ZM1742.92 83.647C1742.92 83.647 1742.92 83.6456 1742.93 83.6431C1742.92 83.6458 1742.92 83.6471 1742.92 83.647Z" stroke="#F9C84B" stroke-width="0.913462"></path> </g> <g filter="url(#filter20_f_116_270)"> <path d="M1786.33 116.389H1743.41C1742.89 116.389 1742.47 116.637 1742.47 116.944V142.513C1742.47 142.82 1742.89 143.069 1743.41 143.069H1786.33C1786.85 143.069 1787.27 142.82 1787.27 142.513V116.944C1787.27 116.637 1786.85 116.389 1786.33 116.389ZM1784.28 139.734H1745.46V119.724H1784.28V139.734Z" fill="white"></path> <path d="M1784.28 140.191H1784.74V139.734V119.724V119.267H1784.28H1745.46H1745V119.724V139.734V140.191H1745.46H1784.28ZM1743.41 116.845H1786.33C1786.52 116.845 1786.67 116.892 1786.76 116.944C1786.79 116.959 1786.8 116.971 1786.81 116.979V142.478C1786.8 142.486 1786.79 142.498 1786.76 142.514C1786.67 142.565 1786.52 142.612 1786.33 142.612H1743.41C1743.22 142.612 1743.07 142.565 1742.98 142.514C1742.95 142.498 1742.94 142.486 1742.93 142.478V116.98C1742.94 116.971 1742.95 116.959 1742.98 116.944C1743.07 116.892 1743.22 116.845 1743.41 116.845ZM1786.82 116.992C1786.82 116.992 1786.82 116.991 1786.82 116.988C1786.82 116.991 1786.82 116.992 1786.82 116.992ZM1786.82 142.465C1786.82 142.465 1786.82 142.466 1786.82 142.469C1786.82 142.466 1786.82 142.465 1786.82 142.465ZM1742.92 142.465C1742.92 142.465 1742.92 142.466 1742.92 142.469C1742.92 142.466 1742.92 142.465 1742.92 142.465ZM1742.92 116.992C1742.92 116.992 1742.92 116.991 1742.92 116.988C1742.92 116.991 1742.92 116.992 1742.92 116.992Z" stroke="#F9C84B" stroke-width="0.913462"></path> </g> <path d="M2218.46 192.362V194.922H2204.97V219H2202.04V192.362H2218.46ZM2221.02 206.1V205.287C2221.02 203.35 2221.3 201.561 2221.86 199.92C2222.41 198.279 2223.21 196.859 2224.24 195.661C2225.29 194.463 2226.55 193.536 2228.01 192.879C2229.47 192.206 2231.1 191.87 2232.89 191.87C2234.69 191.87 2236.32 192.206 2237.78 192.879C2239.25 193.536 2240.5 194.463 2241.55 195.661C2242.6 196.859 2243.41 198.279 2243.96 199.92C2244.52 201.561 2244.8 203.35 2244.8 205.287V206.1C2244.8 208.036 2244.52 209.825 2243.96 211.467C2243.41 213.091 2242.6 214.503 2241.55 215.701C2240.52 216.899 2239.27 217.835 2237.81 218.508C2236.35 219.164 2234.72 219.492 2232.93 219.492C2231.13 219.492 2229.5 219.164 2228.04 218.508C2226.57 217.835 2225.32 216.899 2224.27 215.701C2223.22 214.503 2222.41 213.091 2221.86 211.467C2221.3 209.825 2221.02 208.036 2221.02 206.1ZM2223.95 205.287V206.1C2223.95 207.56 2224.15 208.947 2224.54 210.26C2224.93 211.557 2225.51 212.714 2226.26 213.732C2227.02 214.733 2227.95 215.52 2229.07 216.095C2230.19 216.669 2231.47 216.957 2232.93 216.957C2234.38 216.957 2235.65 216.669 2236.75 216.095C2237.87 215.52 2238.8 214.733 2239.56 213.732C2240.31 212.714 2240.88 211.557 2241.26 210.26C2241.65 208.947 2241.85 207.56 2241.85 206.1V205.287C2241.85 203.843 2241.65 202.472 2241.26 201.176C2240.88 199.879 2240.3 198.722 2239.53 197.704C2238.78 196.687 2237.84 195.883 2236.73 195.292C2235.61 194.701 2234.33 194.405 2232.89 194.405C2231.44 194.405 2230.16 194.701 2229.04 195.292C2227.95 195.883 2227.01 196.687 2226.24 197.704C2225.48 198.722 2224.91 199.879 2224.51 201.176C2224.14 202.472 2223.95 203.843 2223.95 205.287ZM2260.73 216.957C2261.98 216.957 2263.14 216.727 2264.23 216.267C2265.33 215.791 2266.23 215.094 2266.93 214.175C2267.66 213.239 2268.07 212.098 2268.16 210.753H2270.97C2270.89 212.443 2270.37 213.953 2269.42 215.283C2268.48 216.596 2267.25 217.63 2265.73 218.385C2264.22 219.123 2262.55 219.492 2260.73 219.492C2258.87 219.492 2257.23 219.156 2255.81 218.483C2254.39 217.81 2253.21 216.875 2252.26 215.676C2251.31 214.462 2250.59 213.05 2250.09 211.442C2249.62 209.817 2249.38 208.069 2249.38 206.198V205.164C2249.38 203.293 2249.62 201.553 2250.09 199.945C2250.59 198.32 2251.31 196.908 2252.26 195.71C2253.21 194.496 2254.39 193.552 2255.81 192.879C2257.22 192.206 2258.85 191.87 2260.7 191.87C2262.61 191.87 2264.32 192.255 2265.83 193.027C2267.35 193.798 2268.57 194.89 2269.47 196.301C2270.39 197.713 2270.89 199.387 2270.97 201.323H2268.16C2268.08 199.896 2267.7 198.665 2267.03 197.631C2266.36 196.597 2265.47 195.801 2264.37 195.243C2263.27 194.684 2262.05 194.405 2260.7 194.405C2259.19 194.405 2257.91 194.701 2256.84 195.292C2255.77 195.866 2254.9 196.662 2254.23 197.68C2253.57 198.681 2253.09 199.83 2252.78 201.127C2252.47 202.407 2252.31 203.753 2252.31 205.164V206.198C2252.31 207.626 2252.46 208.988 2252.75 210.285C2253.06 211.565 2253.55 212.706 2254.21 213.707C2254.88 214.708 2255.75 215.504 2256.82 216.095C2257.9 216.669 2259.2 216.957 2260.73 216.957ZM2286.31 192.362V219H2283.38V192.362H2286.31ZM2296.01 192.362V194.873H2274.02V192.362H2296.01ZM2309.2 219.492C2307.46 219.492 2305.86 219.172 2304.4 218.532C2302.96 217.892 2301.7 216.989 2300.61 215.824C2299.55 214.659 2298.72 213.28 2298.13 211.688C2297.55 210.08 2297.26 208.323 2297.26 206.42V205.361C2297.26 203.309 2297.57 201.455 2298.18 199.797C2298.78 198.139 2299.62 196.72 2300.69 195.538C2301.75 194.356 2302.97 193.454 2304.33 192.83C2305.71 192.19 2307.15 191.87 2308.66 191.87C2310.35 191.87 2311.86 192.173 2313.17 192.781C2314.48 193.371 2315.58 194.217 2316.47 195.316C2317.37 196.4 2318.05 197.688 2318.51 199.182C2318.97 200.659 2319.2 202.292 2319.2 204.081V205.878H2299.04V203.367H2316.27V203.022C2316.24 201.529 2315.93 200.134 2315.36 198.837C2314.8 197.524 2313.96 196.457 2312.85 195.636C2311.73 194.816 2310.34 194.405 2308.66 194.405C2307.42 194.405 2306.27 194.668 2305.22 195.193C2304.18 195.719 2303.29 196.473 2302.53 197.458C2301.79 198.427 2301.22 199.584 2300.81 200.93C2300.42 202.259 2300.22 203.736 2300.22 205.361V206.42C2300.22 207.897 2300.43 209.275 2300.86 210.556C2301.3 211.819 2301.93 212.935 2302.73 213.904C2303.55 214.872 2304.52 215.627 2305.63 216.169C2306.75 216.71 2307.98 216.981 2309.33 216.981C2310.9 216.981 2312.3 216.694 2313.51 216.12C2314.73 215.529 2315.82 214.601 2316.79 213.338L2318.63 214.766C2318.06 215.619 2317.34 216.407 2316.47 217.129C2315.61 217.851 2314.59 218.426 2313.39 218.852C2312.19 219.279 2310.8 219.492 2309.2 219.492ZM2328.11 214.224L2342.51 192.362H2345.47V219H2342.51V197.138L2328.11 219H2325.21V192.362H2328.11V214.224ZM2339.81 182.81H2342.32C2342.32 184.041 2342.03 185.132 2341.46 186.084C2340.9 187.036 2340.09 187.783 2339.02 188.325C2337.95 188.866 2336.69 189.137 2335.23 189.137C2333.03 189.137 2331.29 188.546 2330.01 187.364C2328.74 186.183 2328.11 184.665 2328.11 182.81H2330.6C2330.6 183.942 2330.94 184.927 2331.63 185.764C2332.34 186.585 2333.54 186.995 2335.23 186.995C2336.87 186.995 2338.04 186.577 2338.75 185.74C2339.45 184.902 2339.81 183.926 2339.81 182.81Z" fill="#D3E0F4"></path> <path d="M2255.27 110.502C2255.27 115.412 2254.13 119.545 2251.86 122.903C2249.58 126.26 2246.48 128.805 2242.54 130.538C2238.64 132.235 2234.24 133.083 2229.33 133.083C2224.42 133.083 2220 132.235 2216.06 130.538C2212.13 128.805 2209.02 126.26 2206.75 122.903C2204.47 119.545 2203.34 115.412 2203.34 110.502C2203.34 107.253 2203.97 104.311 2205.23 101.675C2206.49 99.0038 2208.28 96.7114 2210.59 94.798C2212.94 92.8486 2215.68 91.3504 2218.82 90.3035C2222 89.2565 2225.47 88.7331 2229.22 88.7331C2234.2 88.7331 2238.66 89.6536 2242.6 91.4948C2246.53 93.3359 2249.62 95.881 2251.86 99.1301C2254.13 102.379 2255.27 106.17 2255.27 110.502ZM2242.16 109.852C2242.16 107.217 2241.62 104.906 2240.54 102.921C2239.45 100.935 2237.94 99.4009 2235.99 98.3179C2234.04 97.2348 2231.78 96.6933 2229.22 96.6933C2226.62 96.6933 2224.36 97.2348 2222.45 98.3179C2220.54 99.4009 2219.04 100.935 2217.96 102.921C2216.91 104.906 2216.39 107.217 2216.39 109.852C2216.39 112.524 2216.91 114.834 2217.96 116.783C2219 118.697 2220.5 120.159 2222.45 121.17C2224.4 122.181 2226.69 122.686 2229.33 122.686C2231.96 122.686 2234.24 122.181 2236.15 121.17C2238.06 120.159 2239.54 118.697 2240.59 116.783C2241.64 114.834 2242.16 112.524 2242.16 109.852ZM2253.48 73.8956C2253.48 77.8306 2252.43 81.3324 2250.34 84.401C2248.28 87.4695 2245.43 89.8883 2241.78 91.6572C2238.14 93.3901 2233.99 94.2565 2229.33 94.2565C2224.63 94.2565 2220.45 93.3901 2216.76 91.6572C2213.12 89.8883 2210.25 87.4695 2208.15 84.401C2206.1 81.3324 2205.07 77.8306 2205.07 73.8956C2205.07 69.2025 2206.1 65.2494 2208.15 62.0364C2210.25 58.7874 2213.12 56.3145 2216.76 54.6177C2220.41 52.921 2224.58 52.0726 2229.27 52.0726C2233.97 52.0726 2238.14 52.921 2241.78 54.6177C2245.43 56.3145 2248.28 58.7874 2250.34 62.0364C2252.43 65.2494 2253.48 69.2025 2253.48 73.8956ZM2240.43 74.3288C2240.43 71.9822 2239.96 69.9245 2239.02 68.1556C2238.12 66.3505 2236.84 64.9426 2235.18 63.9317C2233.52 62.9209 2231.55 62.4155 2229.27 62.4155C2227 62.4155 2225.03 62.9029 2223.37 63.8776C2221.71 64.8523 2220.43 66.2242 2219.53 67.9931C2218.62 69.762 2218.17 71.8739 2218.17 74.3288C2218.17 76.7476 2218.62 78.8595 2219.53 80.6645C2220.43 82.4335 2221.71 83.8233 2223.37 84.8342C2225.07 85.845 2227.05 86.3504 2229.33 86.3504C2231.6 86.3504 2233.57 85.845 2235.23 84.8342C2236.89 83.8233 2238.17 82.4335 2239.08 80.6645C2239.98 78.8595 2240.43 76.7476 2240.43 74.3288ZM2318.41 88.7872V100.538H2264.36V88.7872H2318.41ZM2297.72 66.6935V124.094H2285.1V66.6935H2297.72ZM2364 52.8849V132H2350.95V68.3722L2331.62 74.9245V64.1484L2362.43 52.8849H2364Z" fill="white"></path> <g filter="url(#filter21_f_116_270)"> <path d="M2130.93 44.1248H2092.02C2090.97 44.1248 2090.12 44.4253 2090.12 44.7964V75.695C2090.12 76.0661 2090.97 76.3666 2092.02 76.3666H2130.93C2131.99 76.3666 2132.84 76.0661 2132.84 75.695V44.7964C2132.84 44.4255 2131.99 44.1248 2130.93 44.1248ZM2130.05 73.9117H2092.9V46.5799H2130.05V73.9117Z" fill="white"></path> <path d="M2130.93 44.1248H2092.02C2090.97 44.1248 2090.12 44.4253 2090.12 44.7964V75.695C2090.12 76.0661 2090.97 76.3666 2092.02 76.3666H2130.93C2131.99 76.3666 2132.84 76.0661 2132.84 75.695V44.7964C2132.84 44.4255 2131.99 44.1248 2130.93 44.1248ZM2130.05 73.9117H2092.9V46.5799H2130.05V73.9117Z" stroke="#F9C84B" stroke-width="0.913462"></path> </g> <g filter="url(#filter22_f_116_270)"> <path d="M2138.18 83.0367H2084.8C2084.28 83.0367 2083.86 83.5962 2083.86 84.2873L2071.34 141.817C2071.34 142.508 2071.76 143.067 2072.28 143.067H2150.7C2151.22 143.067 2151.64 142.508 2151.64 141.817L2139.12 84.2873C2139.13 83.5966 2138.7 83.0367 2138.18 83.0367ZM2148.73 139.455H2074.26L2086.77 86.6498H2136.21L2148.73 139.455Z" fill="white"></path> <path d="M2084.3 84.3844L2084.32 84.3364V84.2873C2084.32 84.0314 2084.39 83.8176 2084.5 83.6778C2084.6 83.5383 2084.72 83.4935 2084.8 83.4935H2138.18C2138.27 83.4935 2138.38 83.5383 2138.48 83.6779C2138.59 83.8177 2138.67 84.0315 2138.67 84.2871L2138.67 84.3363L2138.68 84.3844L2151.18 141.862C2151.18 142.098 2151.1 142.295 2151 142.426C2150.9 142.566 2150.78 142.611 2150.7 142.611H2072.28C2072.2 142.611 2072.09 142.566 2071.98 142.426C2071.88 142.295 2071.81 142.098 2071.8 141.862L2084.3 84.3844ZM2148.73 139.911H2149.31L2149.17 139.349L2136.66 86.5445L2136.57 86.1931H2136.21H2086.77H2086.41L2086.33 86.5445L2073.81 139.349L2073.68 139.911H2074.26H2148.73Z" stroke="#F9C84B" stroke-width="0.913462"></path> </g> </g> <defs> <filter id="filter0_f_116_270" x="8.78056" y="47.3501" width="92.4906" height="92.4909" filterUnits="userSpaceOnUse" color-interpolation-filters="sRGB"> <feFlood flood-opacity="0" result="BackgroundImageFix"></feFlood> <feBlend mode="normal" in="SourceGraphic" in2="BackgroundImageFix" result="shape"></feBlend> <feGaussianBlur stdDeviation="1.11168" result="effect1_foregroundBlur_116_270"></feGaussianBlur> </filter> <filter id="filter1_f_116_270" x="8.78056" y="36.3452" width="8.11467" height="13.6177" filterUnits="userSpaceOnUse" color-interpolation-filters="sRGB"> <feFlood flood-opacity="0" result="BackgroundImageFix"></feFlood> <feBlend mode="normal" in="SourceGraphic" in2="BackgroundImageFix" result="shape"></feBlend> <feGaussianBlur stdDeviation="1.11168" result="effect1_foregroundBlur_116_270"></feGaussianBlur> </filter> <filter id="filter2_f_116_270" x="-2.22335" y="47.3501" width="13.6176" height="8.11488" filterUnits="userSpaceOnUse" color-interpolation-filters="sRGB"> <feFlood flood-opacity="0" result="BackgroundImageFix"></feFlood> <feBlend mode="normal" in="SourceGraphic" in2="BackgroundImageFix" result="shape"></feBlend> <feGaussianBlur stdDeviation="1.11168" result="effect1_foregroundBlur_116_270"></feGaussianBlur> </filter> <filter id="filter3_f_116_270" x="-2.22335" y="131.727" width="13.6176" height="8.11485" filterUnits="userSpaceOnUse" color-interpolation-filters="sRGB"> <feFlood flood-opacity="0" result="BackgroundImageFix"></feFlood> <feBlend mode="normal" in="SourceGraphic" in2="BackgroundImageFix" result="shape"></feBlend> <feGaussianBlur stdDeviation="1.11168" result="effect1_foregroundBlur_116_270"></feGaussianBlur> </filter> <filter id="filter4_f_116_270" x="8.78056" y="137.23" width="8.11467" height="13.6177" filterUnits="userSpaceOnUse" color-interpolation-filters="sRGB"> <feFlood flood-opacity="0" result="BackgroundImageFix"></feFlood> <feBlend mode="normal" in="SourceGraphic" in2="BackgroundImageFix" result="shape"></feBlend> <feGaussianBlur stdDeviation="1.11168" result="effect1_foregroundBlur_116_270"></feGaussianBlur> </filter> <filter id="filter5_f_116_270" x="93.1595" y="137.23" width="8.11467" height="13.6177" filterUnits="userSpaceOnUse" color-interpolation-filters="sRGB"> <feFlood flood-opacity="0" result="BackgroundImageFix"></feFlood> <feBlend mode="normal" in="SourceGraphic" in2="BackgroundImageFix" result="shape"></feBlend> <feGaussianBlur stdDeviation="1.11168" result="effect1_foregroundBlur_116_270"></feGaussianBlur> </filter> <filter id="filter6_f_116_270" x="98.6643" y="131.726" width="13.6176" height="8.11485" filterUnits="userSpaceOnUse" color-interpolation-filters="sRGB"> <feFlood flood-opacity="0" result="BackgroundImageFix"></feFlood> <feBlend mode="normal" in="SourceGraphic" in2="BackgroundImageFix" result="shape"></feBlend> <feGaussianBlur stdDeviation="1.11168" result="effect1_foregroundBlur_116_270"></feGaussianBlur> </filter> <filter id="filter7_f_116_270" x="98.6643" y="47.3505" width="13.6176" height="8.11488" filterUnits="userSpaceOnUse" color-interpolation-filters="sRGB"> <feFlood flood-opacity="0" result="BackgroundImageFix"></feFlood> <feBlend mode="normal" in="SourceGraphic" in2="BackgroundImageFix" result="shape"></feBlend> <feGaussianBlur stdDeviation="1.11168" result="effect1_foregroundBlur_116_270"></feGaussianBlur> </filter> <filter id="filter8_f_116_270" x="93.1595" y="36.3452" width="8.11467" height="13.6177" filterUnits="userSpaceOnUse" color-interpolation-filters="sRGB"> <feFlood flood-opacity="0" result="BackgroundImageFix"></feFlood> <feBlend mode="normal" in="SourceGraphic" in2="BackgroundImageFix" result="shape"></feBlend> <feGaussianBlur stdDeviation="1.11168" result="effect1_foregroundBlur_116_270"></feGaussianBlur> </filter> <filter id="filter9_f_116_270" x="710.773" y="112.602" width="106.451" height="33.1946" filterUnits="userSpaceOnUse" color-interpolation-filters="sRGB"> <feFlood flood-opacity="0" result="BackgroundImageFix"></feFlood> <feBlend mode="normal" in="SourceGraphic" in2="BackgroundImageFix" result="shape"></feBlend> <feGaussianBlur stdDeviation="1.11168" result="effect1_foregroundBlur_116_270"></feGaussianBlur> </filter> <filter id="filter10_f_116_270" x="743.037" y="77.2113" width="74.183" height="33.1946" filterUnits="userSpaceOnUse" color-interpolation-filters="sRGB"> <feFlood flood-opacity="0" result="BackgroundImageFix"></feFlood> <feBlend mode="normal" in="SourceGraphic" in2="BackgroundImageFix" result="shape"></feBlend> <feGaussianBlur stdDeviation="1.11168" result="effect1_foregroundBlur_116_270"></feGaussianBlur> </filter> <filter id="filter11_f_116_270" x="776.346" y="41.821" width="40.8744" height="33.1946" filterUnits="userSpaceOnUse" color-interpolation-filters="sRGB"> <feFlood flood-opacity="0" result="BackgroundImageFix"></feFlood> <feBlend mode="normal" in="SourceGraphic" in2="BackgroundImageFix" result="shape"></feBlend> <feGaussianBlur stdDeviation="1.11168" result="effect1_foregroundBlur_116_270"></feGaussianBlur> </filter> <filter id="filter12_f_116_270" x="1097.34" y="29.2978" width="95.649" height="102.597" filterUnits="userSpaceOnUse" color-interpolation-filters="sRGB"> <feFlood flood-opacity="0" result="BackgroundImageFix"></feFlood> <feBlend mode="normal" in="SourceGraphic" in2="BackgroundImageFix" result="shape"></feBlend> <feGaussianBlur stdDeviation="0.913462" result="effect1_foregroundBlur_116_270"></feGaussianBlur> </filter> <filter id="filter13_f_116_270" x="1176.21" y="29.4233" width="7.48783" height="100.161" filterUnits="userSpaceOnUse" color-interpolation-filters="sRGB"> <feFlood flood-opacity="0" result="BackgroundImageFix"></feFlood> <feBlend mode="normal" in="SourceGraphic" in2="BackgroundImageFix" result="shape"></feBlend> <feGaussianBlur stdDeviation="0.913462" result="effect1_foregroundBlur_116_270"></feGaussianBlur> </filter> <filter id="filter14_f_116_270" x="1153.44" y="29.423" width="7.48686" height="100.161" filterUnits="userSpaceOnUse" color-interpolation-filters="sRGB"> <feFlood flood-opacity="0" result="BackgroundImageFix"></feFlood> <feBlend mode="normal" in="SourceGraphic" in2="BackgroundImageFix" result="shape"></feBlend> <feGaussianBlur stdDeviation="0.913462" result="effect1_foregroundBlur_116_270"></feGaussianBlur> </filter> <filter id="filter15_f_116_270" x="1130.68" y="29.423" width="7.48783" height="100.161" filterUnits="userSpaceOnUse" color-interpolation-filters="sRGB"> <feFlood flood-opacity="0" result="BackgroundImageFix"></feFlood> <feBlend mode="normal" in="SourceGraphic" in2="BackgroundImageFix" result="shape"></feBlend> <feGaussianBlur stdDeviation="0.913462" result="effect1_foregroundBlur_116_270"></feGaussianBlur> </filter> <filter id="filter16_f_116_270" x="1107.91" y="29.4233" width="7.48686" height="100.161" filterUnits="userSpaceOnUse" color-interpolation-filters="sRGB"> <feFlood flood-opacity="0" result="BackgroundImageFix"></feFlood> <feBlend mode="normal" in="SourceGraphic" in2="BackgroundImageFix" result="shape"></feBlend> <feGaussianBlur stdDeviation="0.913462" result="effect1_foregroundBlur_116_270"></feGaussianBlur> </filter> <filter id="filter17_f_116_270" x="1685.31" y="41.8411" width="104.236" height="36.8092" filterUnits="userSpaceOnUse" color-interpolation-filters="sRGB"> <feFlood flood-opacity="0" result="BackgroundImageFix"></feFlood> <feBlend mode="normal" in="SourceGraphic" in2="BackgroundImageFix" result="shape"></feBlend> <feGaussianBlur stdDeviation="0.913462" result="effect1_foregroundBlur_116_270"></feGaussianBlur> </filter> <filter id="filter18_f_116_270" x="1685.77" y="81.2098" width="52.9263" height="63.6844" filterUnits="userSpaceOnUse" color-interpolation-filters="sRGB"> <feFlood flood-opacity="0" result="BackgroundImageFix"></feFlood> <feBlend mode="normal" in="SourceGraphic" in2="BackgroundImageFix" result="shape"></feBlend> <feGaussianBlur stdDeviation="0.913462" result="effect1_foregroundBlur_116_270"></feGaussianBlur> </filter> <filter id="filter19_f_116_270" x="1740.65" y="81.208" width="48.4468" height="31.4457" filterUnits="userSpaceOnUse" color-interpolation-filters="sRGB"> <feFlood flood-opacity="0" result="BackgroundImageFix"></feFlood> <feBlend mode="normal" in="SourceGraphic" in2="BackgroundImageFix" result="shape"></feBlend> <feGaussianBlur stdDeviation="0.913462" result="effect1_foregroundBlur_116_270"></feGaussianBlur> </filter> <filter id="filter20_f_116_270" x="1740.65" y="114.562" width="48.4468" height="30.3341" filterUnits="userSpaceOnUse" color-interpolation-filters="sRGB"> <feFlood flood-opacity="0" result="BackgroundImageFix"></feFlood> <feBlend mode="normal" in="SourceGraphic" in2="BackgroundImageFix" result="shape"></feBlend> <feGaussianBlur stdDeviation="0.913462" result="effect1_foregroundBlur_116_270"></feGaussianBlur> </filter> <filter id="filter21_f_116_270" x="2087.83" y="41.8411" width="47.2915" height="36.8092" filterUnits="userSpaceOnUse" color-interpolation-filters="sRGB"> <feFlood flood-opacity="0" result="BackgroundImageFix"></feFlood> <feBlend mode="normal" in="SourceGraphic" in2="BackgroundImageFix" result="shape"></feBlend> <feGaussianBlur stdDeviation="0.913462" result="effect1_foregroundBlur_116_270"></feGaussianBlur> </filter> <filter id="filter22_f_116_270" x="2069.51" y="81.2098" width="83.9537" height="63.6844" filterUnits="userSpaceOnUse" color-interpolation-filters="sRGB"> <feFlood flood-opacity="0" result="BackgroundImageFix"></feFlood> <feBlend mode="normal" in="SourceGraphic" in2="BackgroundImageFix" result="shape"></feBlend> <feGaussianBlur stdDeviation="0.913462" result="effect1_foregroundBlur_116_270"></feGaussianBlur> </filter> <clipPath id="clip0_116_270"> <rect width="2410" height="307" fill="white"></rect> </clipPath> </defs> </svg> 