<?xml version="1.0" encoding="UTF-8"?> <svg xmlns="http://www.w3.org/2000/svg" width="360" height="360" viewBox="0 0 360 360" fill="none"> <path d="M186.745 337.348C186.852 337.183 186.918 336.928 186.892 336.782C186.847 336.538 186.84 336.539 186.804 336.783C186.782 336.929 186.683 337.043 186.583 337.035C186.484 337.027 186.444 337.07 186.496 337.13C186.548 337.19 186.505 337.325 186.401 337.431C186.267 337.566 186.261 337.626 186.38 337.636C186.473 337.643 186.637 337.514 186.745 337.348Z" fill="#161710"></path> <path d="M184.104 336.644C184.279 336.46 184.633 335.66 184.484 335.787C184.343 335.906 183.804 336.813 183.871 336.818C183.905 336.821 184.01 336.742 184.104 336.644Z" fill="#161710"></path> <path d="M184.676 336.471C184.738 336.42 184.794 336.306 184.8 336.219C184.808 336.123 184.735 336.126 184.615 336.227C184.506 336.319 184.45 336.432 184.491 336.479C184.531 336.527 184.615 336.523 184.676 336.471Z" fill="#161710"></path> <path d="M187.356 336.48C187.416 336.399 187.39 336.328 187.3 336.321C187.21 336.314 187.13 336.377 187.124 336.461C187.117 336.545 187.142 336.617 187.18 336.62C187.217 336.623 187.297 336.56 187.356 336.48Z" fill="#161710"></path> <path d="M187.828 335.952C187.724 335.901 187.55 335.887 187.44 335.921C187.33 335.955 187.414 335.997 187.628 336.014C187.841 336.031 187.931 336.003 187.828 335.952Z" fill="#161710"></path> <path fill-rule="evenodd" clip-rule="evenodd" d="M185.487 334.749C186.289 333.71 188.097 331.169 188.578 330.405C188.757 330.123 189.327 329.335 189.846 328.655C190.365 327.975 191.115 326.976 191.512 326.435C191.908 325.894 192.267 325.454 192.307 325.457C192.429 325.467 191.663 326.633 191.067 327.347C190.446 328.09 188.132 331.424 187.757 332.114C187.625 332.358 187.34 332.779 187.124 333.049C186.909 333.32 186.722 333.669 186.709 333.826C186.697 333.983 186.633 334.107 186.567 334.102C186.501 334.097 186.424 334.374 186.397 334.718L186.347 335.343L186.665 334.739C186.991 334.122 187.272 333.91 187.05 334.449C186.602 335.537 188.167 333.494 190.113 330.451C191.149 328.83 192.531 326.933 192.824 326.73C192.958 326.636 193.075 326.465 193.085 326.349C193.094 326.233 193.175 326.144 193.265 326.151C193.43 326.164 192.92 326.981 191.756 328.567C191.406 329.043 191.116 329.49 191.11 329.56C191.105 329.63 190.903 329.948 190.662 330.266C190.42 330.585 190.264 330.849 190.314 330.853C190.363 330.856 190.286 330.959 190.141 331.081C189.996 331.203 189.87 331.401 189.861 331.522C189.851 331.642 189.77 331.735 189.681 331.728C189.592 331.721 189.529 331.802 189.541 331.909C189.58 332.252 189.275 332.784 189.109 332.663C189.018 332.597 188.988 332.622 189.04 332.722C189.133 332.9 188.588 333.99 188.369 334.066C188.303 334.089 188.238 334.234 188.226 334.389C188.214 334.543 188.114 334.694 188.004 334.723C187.894 334.752 187.851 334.834 187.908 334.904C188.027 335.053 188.629 334.488 188.818 334.05C188.888 333.886 189.128 333.552 189.35 333.307C189.572 333.062 189.76 332.782 189.768 332.685C189.775 332.587 189.852 332.513 189.937 332.52C190.022 332.527 190.101 332.417 190.113 332.277C190.124 332.136 190.173 332.067 190.221 332.123C190.34 332.261 189.552 333.569 189.359 333.554C189.274 333.547 189.23 333.63 189.261 333.739C189.291 333.847 189.13 334.104 188.903 334.31C188.638 334.55 188.547 334.726 188.649 334.801C188.737 334.864 188.815 334.836 188.823 334.738C188.831 334.64 189.017 334.441 189.236 334.297C189.456 334.153 189.699 333.828 189.777 333.575C189.855 333.322 190.02 333.085 190.144 333.049C190.267 333.013 190.373 332.924 190.379 332.852C190.385 332.779 190.614 332.44 190.888 332.099C191.163 331.758 191.965 330.657 192.671 329.652C193.378 328.648 194.511 327.037 195.189 326.073C195.868 325.109 196.852 323.68 197.377 322.896C197.901 322.113 198.399 321.438 198.483 321.395C198.567 321.353 198.949 321.485 199.331 321.69C199.713 321.895 200.078 322.066 200.142 322.071C200.205 322.076 201.023 322.511 201.957 323.038C202.892 323.565 203.996 324.151 204.41 324.341C204.825 324.531 205.363 324.829 205.607 325.003C205.851 325.177 206.138 325.327 206.246 325.336C206.43 325.351 208.931 326.752 209.42 327.114C209.542 327.204 210.045 327.498 210.539 327.766C211.033 328.035 211.537 328.323 211.659 328.407C212.337 328.872 214.598 329.861 215.071 329.899C215.368 329.923 214.732 329.395 213.959 328.975C213.023 328.467 212.811 328.26 213.085 328.122C213.176 328.076 213.245 328.102 213.239 328.18C213.221 328.409 214.302 328.612 214.541 328.424C214.712 328.29 214.707 328.213 214.518 328.031C214.305 327.825 214.308 327.814 214.549 327.911C214.695 327.969 214.819 327.95 214.825 327.869C214.832 327.787 214.955 327.729 215.098 327.741C215.466 327.77 216.418 328.201 216.532 328.39C216.585 328.477 216.683 328.503 216.749 328.446C216.94 328.286 216.26 327.536 215.405 326.962C214.978 326.675 214.629 326.416 214.631 326.388C214.634 326.36 214.826 326.374 215.058 326.421C215.291 326.467 215.464 326.566 215.442 326.639C215.421 326.713 215.533 326.784 215.692 326.796C215.85 326.809 215.95 326.764 215.915 326.695C215.694 326.27 213.052 324.478 211.628 323.786C211.22 323.588 210.43 323.174 209.873 322.866C209.316 322.557 208.771 322.298 208.662 322.289C208.553 322.28 208.403 322.208 208.327 322.127C208.085 321.869 202.026 318.758 201.322 318.531C201.092 318.456 200.908 318.336 200.914 318.263C200.93 318.058 202.045 316.397 203.18 314.886C203.743 314.137 204.471 313.129 204.798 312.646C205.124 312.162 205.57 311.585 205.787 311.363C206.005 311.14 206.189 310.874 206.197 310.771C206.213 310.576 207.946 308.324 208.428 307.872C208.579 307.73 208.864 307.392 209.06 307.122C210.123 305.657 211.136 304.347 211.251 304.287C211.323 304.249 211.569 303.818 211.797 303.328C212.025 302.838 212.278 302.376 212.359 302.302C212.44 302.228 212.515 302.067 212.524 301.944C212.554 301.577 211.906 302.152 211.311 303.021C211.022 303.443 210.714 303.825 210.628 303.869C210.398 303.985 210.293 303.804 210.461 303.581C210.54 303.475 210.596 303.275 210.584 303.136C210.572 302.997 210.673 302.851 210.809 302.812C211.151 302.712 211.15 302.318 210.807 302.1C210.6 301.968 210.492 301.969 210.415 302.102C210.357 302.203 210.366 302.081 210.437 301.832L210.565 301.38L210.134 301.719C209.551 302.18 209.604 302.01 210.347 301.041C210.816 300.43 210.933 300.176 210.812 300.035C210.69 299.894 210.403 300.071 209.677 300.732C209.142 301.219 208.666 301.614 208.62 301.61C208.573 301.606 208.582 301.433 208.639 301.226C208.697 301.018 208.833 300.856 208.941 300.864C209.049 300.873 209.185 300.744 209.244 300.578C209.338 300.309 209.293 300.317 208.827 300.647C208.539 300.851 208.316 301.074 208.331 301.144C208.346 301.214 208.222 301.33 208.055 301.402C207.888 301.474 207.485 301.843 207.161 302.223C206.226 303.315 204.066 306.177 204.053 306.341C204.046 306.423 203.971 306.485 203.886 306.478C203.8 306.471 203.719 306.586 203.706 306.734C203.692 306.881 203.53 307.163 203.347 307.361C203.163 307.558 203.007 307.774 202.999 307.841C202.992 307.908 202.909 308.04 202.814 308.135C202.466 308.483 201.817 309.369 200.546 311.226C199.83 312.272 199.042 313.389 198.796 313.709C198.55 314.029 198.205 314.544 198.03 314.855C197.493 315.805 197.032 316.265 196.745 316.138C196.468 316.015 189.215 312.286 185.613 310.414C184.417 309.793 183.377 309.218 183.302 309.136C182.976 308.783 182.938 309.008 183.261 309.382C183.457 309.61 183.691 309.802 183.781 309.809C183.87 309.816 184.258 310.054 184.643 310.338C185.315 310.833 185.29 311.072 184.617 310.597C183.965 310.137 181.496 309.25 181.308 309.408C181.181 309.515 181.242 309.568 181.516 309.59C181.729 309.607 182.09 309.774 182.318 309.961C182.546 310.149 182.903 310.368 183.112 310.448C183.32 310.528 184.401 311.065 185.515 311.642C186.628 312.219 187.697 312.754 187.891 312.831C188.085 312.908 188.205 313.003 188.159 313.042C188.113 313.08 187.3 312.731 186.351 312.266C185.403 311.8 184.561 311.414 184.48 311.408C184.399 311.401 184.138 311.281 183.9 311.139C183.662 310.998 183.087 310.808 182.622 310.717C181.84 310.564 181.804 310.57 182.147 310.798C182.351 310.934 182.494 311.123 182.465 311.219C182.436 311.315 182.665 311.526 182.974 311.689C183.946 312.201 185.288 312.858 186.768 313.546C188.471 314.338 190.422 315.427 190.308 315.523C190.263 315.561 189.73 315.342 189.124 315.038C186.698 313.82 184.755 312.972 184.587 313.057C184.489 313.107 184.456 313.084 184.513 313.007C184.638 312.839 182.906 312.285 182.655 312.412C182.429 312.526 182.406 312.785 182.62 312.802C182.711 312.81 182.749 312.747 182.705 312.663C182.662 312.579 182.934 312.642 183.31 312.803C184.087 313.135 184.152 313.21 183.6 313.134C183.388 313.105 183.218 313.03 183.223 312.966C183.228 312.903 183.154 312.845 183.058 312.837C182.937 312.828 182.938 312.899 183.058 313.069C183.155 313.204 183.312 313.319 183.408 313.326C183.505 313.332 184.12 313.657 184.776 314.047C185.432 314.437 186.711 315.14 187.618 315.609C189.802 316.737 193.814 318.769 194.335 319.01C194.562 319.115 194.744 319.268 194.737 319.348C194.72 319.558 194.291 320.226 193.051 321.968C192.451 322.811 191.26 324.486 190.404 325.691C189.548 326.895 188.279 328.669 187.584 329.631C186.888 330.594 185.992 331.853 185.592 332.429C185.192 333.005 184.775 333.501 184.665 333.53C184.555 333.559 184.508 333.638 184.562 333.705C184.615 333.772 184.869 333.663 185.126 333.462C185.383 333.262 185.538 333.094 185.47 333.089C185.403 333.083 185.578 332.872 185.86 332.618C186.142 332.365 186.376 332.117 186.381 332.066C186.385 332.016 186.541 331.827 186.727 331.646C187.157 331.23 187.143 331.573 186.711 332.084C186.532 332.295 186.345 332.603 186.295 332.769C186.245 332.935 186.14 333.053 186.061 333.033C185.982 333.012 185.893 333.166 185.864 333.373C185.834 333.581 185.689 333.864 185.54 334.003C185.391 334.141 185.261 334.364 185.25 334.497C185.24 334.632 185.151 334.76 185.053 334.784C184.911 334.819 184.625 335.644 184.752 335.654C184.77 335.656 185.101 335.248 185.487 334.749ZM191.195 330.46C191.299 330.299 191.42 330.169 191.463 330.173C191.505 330.176 191.455 330.311 191.35 330.472C191.245 330.634 191.124 330.763 191.082 330.76C191.039 330.756 191.09 330.621 191.195 330.46ZM192.9 324.596C193.097 324.364 193.264 324.102 193.271 324.015C193.278 323.928 193.356 323.82 193.444 323.775C193.622 323.685 193.519 323.907 192.974 324.79C192.783 325.099 192.607 325.278 192.584 325.185C192.561 325.093 192.703 324.828 192.9 324.596ZM193.875 323.149C194.164 322.917 194.168 322.921 193.963 323.25C193.845 323.438 193.709 323.547 193.661 323.492C193.613 323.436 193.709 323.282 193.875 323.149ZM194.301 322.497C194.421 322.396 194.494 322.393 194.486 322.489C194.47 322.693 194.272 322.86 194.176 322.749C194.136 322.702 194.192 322.589 194.301 322.497ZM195.33 320.993C195.291 320.862 195.327 320.761 195.409 320.767C195.492 320.774 195.551 320.883 195.541 321.009C195.531 321.136 195.495 321.237 195.462 321.235C195.428 321.232 195.369 321.123 195.33 320.993ZM195.736 320.289C195.901 320.151 195.917 320.171 195.816 320.382C195.745 320.529 195.652 320.607 195.608 320.556C195.564 320.505 195.621 320.385 195.736 320.289ZM195.699 317.087C195.705 317.003 195.781 316.94 195.866 316.947C195.951 316.953 196.016 317.028 196.009 317.112C196.002 317.197 195.927 317.26 195.841 317.253C195.756 317.246 195.692 317.172 195.699 317.087ZM193.749 316.083C193.265 315.756 193.442 315.767 194.08 316.104C194.358 316.25 194.48 316.361 194.352 316.351C194.224 316.341 193.952 316.221 193.749 316.083ZM191.211 314.779C191.013 314.578 191.504 314.79 191.736 315.005C192.002 315.253 191.997 315.255 191.645 315.054C191.439 314.936 191.244 314.813 191.211 314.779ZM190.445 314.43C190.242 314.293 190.145 314.186 190.23 314.193C190.315 314.2 190.552 314.318 190.756 314.455C190.959 314.593 191.056 314.7 190.971 314.693C190.885 314.686 190.649 314.568 190.445 314.43ZM184.8 313.748C184.754 313.659 184.79 313.593 184.881 313.6C184.971 313.607 185.039 313.682 185.033 313.767C185.026 313.851 184.99 313.917 184.952 313.914C184.914 313.911 184.846 313.836 184.8 313.748ZM188.651 313.438C188.529 313.346 188.5 313.277 188.585 313.284C188.67 313.29 188.839 313.371 188.961 313.463C189.082 313.555 189.112 313.625 189.027 313.618C188.941 313.611 188.772 313.53 188.651 313.438Z" fill="#161710"></path> <path d="M185.723 335.423C185.782 335.343 185.757 335.272 185.667 335.264C185.576 335.257 185.497 335.32 185.49 335.405C185.483 335.489 185.509 335.56 185.546 335.563C185.584 335.566 185.663 335.503 185.723 335.423Z" fill="#161710"></path> <path d="M187.985 335.45C187.992 335.365 187.928 335.291 187.842 335.284C187.757 335.277 187.681 335.341 187.675 335.425C187.668 335.509 187.732 335.584 187.818 335.591C187.903 335.597 187.978 335.534 187.985 335.45Z" fill="#161710"></path> <path d="M188.392 335.318C188.456 335.232 188.477 335.127 188.44 335.083C188.402 335.04 188.322 335.108 188.261 335.234C188.134 335.495 188.22 335.55 188.392 335.318Z" fill="#161710"></path> <path d="M180.398 311.183C180.194 311.055 179.924 310.978 179.799 311.01C179.626 311.055 179.641 311.103 179.861 311.209C180.02 311.286 180.29 311.364 180.46 311.382C180.727 311.411 180.719 311.384 180.398 311.183Z" fill="#161710"></path> <path d="M180.818 309.187C180.828 309.06 180.778 308.952 180.707 308.946C180.636 308.941 180.569 309.039 180.559 309.166C180.549 309.292 180.599 309.401 180.67 309.406C180.741 309.412 180.808 309.313 180.818 309.187Z" fill="#161710"></path> <path d="M180.305 308.809C180.196 308.756 180.062 308.75 180.007 308.797C179.951 308.844 180.04 308.887 180.204 308.894C180.385 308.901 180.425 308.868 180.305 308.809Z" fill="#161710"></path> <path d="M211.207 301.817C211.161 301.728 211.054 301.65 210.968 301.643C210.883 301.637 210.851 301.703 210.897 301.792C210.943 301.881 211.05 301.959 211.136 301.965C211.221 301.972 211.253 301.905 211.207 301.817Z" fill="#161710"></path> <path d="M211.289 299.817C211.296 299.733 211.192 299.655 211.059 299.645C210.926 299.634 210.855 299.698 210.901 299.786C210.947 299.875 211.05 299.953 211.131 299.959C211.211 299.966 211.282 299.902 211.289 299.817Z" fill="#161710"></path> <path fill-rule="evenodd" clip-rule="evenodd" d="M142.526 187.701C141.136 187.961 138.271 189.568 133.93 192.52C128.026 187.571 121.731 185.096 115.046 185.096C111.225 185.096 106.927 186.659 102.152 189.785C97.4634 192.824 93.5129 196.557 90.3004 200.985C87.1747 205.413 85.6118 209.624 85.6118 213.618C85.6118 217.873 87.001 221.129 89.7794 223.386C92.7315 225.557 96.4215 226.642 100.85 226.642C103.541 226.642 106.363 226.295 109.315 225.6C112.354 224.906 115.48 223.864 118.692 222.474C125.117 219.696 130.37 216.397 134.451 212.576L134.581 216.353L134.711 222.084C134.711 231.114 133.149 239.058 130.023 245.917C126.984 252.863 121.774 256.336 114.394 256.336C108.143 256.336 103.02 254.73 99.0263 251.517C95.0323 248.305 93.0353 243.833 93.0353 238.103L92.5144 237.582C91.2988 237.842 89.9531 239.058 88.477 241.229C87.0878 243.486 86.3932 245.223 86.3932 246.438C86.3932 247.914 87.3049 249.781 89.1282 252.038C91.0384 254.296 93.5563 256.206 96.682 257.769C99.8077 259.418 103.324 260.243 107.231 260.243C119.213 260.243 128.069 256.076 133.8 247.74C136.839 243.312 139.096 238.363 140.572 232.893C142.048 227.423 142.786 221.433 142.786 214.921V198.12L143.047 189.524L142.786 188.482L142.526 187.701ZM134.711 204.241L134.19 208.018C132.454 210.883 130.153 213.271 127.288 215.181C124.509 217.091 121.384 218.48 117.911 219.349C115.045 220.304 112.18 220.781 109.315 220.781C107.492 220.781 105.668 220.521 103.845 220C102.109 219.479 100.372 218.784 98.6356 217.916C95.3362 215.919 93.6865 212.272 93.6865 206.976C93.6865 201.246 95.9874 196.991 100.589 194.213C105.278 191.434 109.879 190.045 114.394 190.045L121.167 190.696C122.122 190.87 123.381 191.174 124.944 191.608C126.506 191.955 127.722 192.259 128.59 192.52C130.761 193.301 132.107 193.996 132.628 194.604C133.235 195.125 133.669 196.166 133.93 197.729C134.364 199.292 134.581 200.421 134.581 201.115L134.711 204.241Z" fill="#161710"></path> <path d="M76.3181 188.352C76.3181 190.783 75.2762 192.78 73.1924 194.343C71.6296 195.472 66.5069 198.25 57.8244 202.678L56.3918 203.72L57.6942 203.981L61.8618 203.85C63.3378 203.85 64.4665 203.764 65.2479 203.59C66.6372 203.59 67.7225 203.72 68.5039 203.981C71.8032 205.283 73.4529 207.497 73.4529 210.623C73.4529 214.183 72.1505 217.221 69.5458 219.739C67.0279 221.997 63.5115 223.864 58.9965 225.34C54.4816 226.729 49.8799 227.423 45.1914 227.423C39.7214 227.423 35.5538 226.902 32.6886 225.861C29.8233 224.906 28.3907 222.865 28.3907 219.739C28.3907 217.916 28.6512 217.004 29.1721 217.004L37.2469 220.26C43.4983 222.431 48.7512 223.516 53.0056 223.516C56.7391 223.516 59.6477 222.909 61.7315 221.693C63.9022 220.477 64.9875 217.786 64.9875 213.618C64.9875 211.361 63.5549 209.711 60.6896 208.669L53.787 207.497C50.4877 206.976 47.6225 206.716 45.1914 206.716C46.4937 206.282 49.2287 204.588 53.3963 201.636C56.9562 199.118 59.7346 196.991 61.7315 195.255C62.8603 194.3 63.8153 193.041 64.5968 191.478C65.465 189.828 65.8991 188.482 65.8991 187.441C65.8991 186.312 65.6387 185.53 65.1177 185.096L63.1641 184.575C61.5145 184.575 58.5624 185.27 54.308 186.659L45.1914 189.655L37.5073 191.738C36.7259 191.738 36.3352 191.217 36.3352 190.175C36.3352 189.394 37.2469 188.092 39.0702 186.268C40.8935 184.445 42.2393 183.36 43.1076 183.012C44.8441 182.144 48.1868 181.71 53.1359 181.71L61.3408 182.101C63.5115 182.274 65.0309 182.448 65.8991 182.622C66.7674 182.709 67.8527 182.882 69.1551 183.143C73.9304 183.924 76.3181 185.661 76.3181 188.352Z" fill="#161710"></path> <path d="M111.743 166.163C113.74 166.163 114.738 165.902 114.738 165.382L112.915 163.167C111.526 161.778 110.05 159.391 108.487 156.004C106.143 151.837 103.147 144.934 99.5004 135.297C95.8538 125.572 93.7266 120.71 93.1188 120.71C91.8164 120.71 89.9063 122.62 87.3883 126.441L78.0112 141.809C74.1909 148.234 72.0203 151.446 71.4994 151.446C70.9784 151.272 69.4155 148.277 66.8108 142.46C63.9456 136.295 61.5579 131.433 59.6477 127.873C57.4771 124.053 55.6972 122.143 54.308 122.143C52.4847 122.143 49.3156 124.357 44.8006 128.785C40.2858 133.126 36.3352 138.118 32.949 143.762C29.6497 149.406 28 154.572 28 159.26C28 162.212 29.0853 164.513 31.2559 166.163C33.2529 167.899 35.0762 168.768 36.7259 168.768L37.5073 168.247L36.8562 163.428C36.5089 162.299 36.3352 161.127 36.3352 159.912L36.205 157.046C36.205 152.01 37.7244 146.193 40.7633 139.594C43.8022 132.909 46.5372 129.566 48.9683 129.566C50.9652 129.566 53.0925 131.824 55.3499 136.339C57.6074 140.767 60.2121 146.41 63.1641 153.269C66.1162 160.042 67.8961 163.428 68.5039 163.428C69.1117 163.167 72.2808 157.741 78.0112 147.148C83.8285 136.469 87.3449 131.129 88.5605 131.129L89.6024 131.65L90.3838 132.952L91.4257 135.687L101.584 162.647C102.626 164.991 106.012 166.163 111.743 166.163Z" fill="#161710"></path> <path fill-rule="evenodd" clip-rule="evenodd" d="M155.849 155.614C158.974 152.314 160.537 148.798 160.537 145.064C160.537 142.112 159.452 139.812 157.281 138.162C155.111 136.512 152.245 135.687 148.685 135.687C145.386 135.687 142.174 136.339 139.048 137.641C137.311 138.336 135.792 139.03 134.49 139.725C133.187 140.333 132.145 140.897 131.364 141.418L127.457 144.413L125.633 145.976C125.633 142.503 126.024 139.117 126.806 135.818L129.41 125.008C129.41 123.445 128.759 122.316 127.457 121.622C126.241 120.84 125.026 120.45 123.81 120.45C123.029 120.276 122.638 120.536 122.638 121.231L122.247 132.301L121.466 145.976C121.466 151.012 121.813 155.18 122.508 158.479C123.376 161.691 124.505 163.819 125.894 164.861C127.283 165.989 129.15 166.554 131.494 166.554C133.404 166.554 135.445 166.293 137.615 165.772C139.786 165.251 142 164.557 144.257 163.688C148.859 161.605 152.723 158.913 155.849 155.614ZM150.899 141.157C152.462 142.72 153.244 144.891 153.244 147.669C153.244 151.663 151.985 155.049 149.467 157.828C146.949 160.867 143.563 162.386 139.308 162.386C130.192 162.386 125.633 157.611 125.633 148.06C128.846 145.108 132.145 142.764 135.531 141.027C137.442 140.072 139.222 139.464 140.871 139.204C142.26 138.77 143.65 138.553 145.039 138.553C147.47 138.553 149.423 139.421 150.899 141.157Z" fill="#161710"></path> <path d="M177.859 141.548L179.682 124.747C179.422 124.14 178.293 123.445 176.296 122.664C174.299 121.709 172.606 121.231 171.217 121.231C170.696 121.491 170.435 121.839 170.435 122.273L170.826 124.747C171.173 126.137 171.347 127.786 171.347 129.696L171.477 135.687L171.086 148.841L170.435 156.004L170.175 159.391C170.435 160.519 171.173 161.344 172.389 161.865C173.604 162.386 174.733 162.647 175.775 162.647C176.122 162.56 176.556 161.995 177.077 160.953C177.077 160.693 177.294 156.569 177.728 148.581C177.815 147.018 177.859 144.674 177.859 141.548Z" fill="#161710"></path> <path fill-rule="evenodd" clip-rule="evenodd" d="M157.326 215.181C157.326 212.576 158.411 208.886 160.582 204.111C162.839 199.249 166.703 194.907 172.173 191.087C177.73 187.267 184.806 185.357 193.402 185.357C199.132 185.357 202.692 186.225 204.081 187.961C204.689 188.743 205.21 190.175 205.644 192.259C206.165 194.256 206.425 196.731 206.425 199.683C207.294 199.943 207.728 200.421 207.728 201.115C207.728 201.55 206.295 202.157 203.43 202.939L166.182 209.32C166.182 218.784 173.085 223.516 186.89 223.516C193.402 223.516 199.783 222.605 206.035 220.781C207.684 220.347 208.987 220 209.942 219.739C210.897 219.392 211.548 219.132 211.895 218.958L214.37 217.916C214.891 217.916 215.195 218.35 215.282 219.218C215.282 220 215.065 220.521 214.63 220.781C209.074 222.952 202.649 224.688 195.355 225.991C188.843 226.946 183.113 227.423 178.164 227.423C171.044 227.423 165.791 226.599 162.405 224.949C159.019 223.212 157.326 219.956 157.326 215.181ZM166.443 206.064L192.23 201.897L196.397 201.115C197.179 200.855 197.7 200.464 197.96 199.943C198.22 199.336 198.351 198.38 198.351 197.078C198.351 191.174 195.268 188.222 189.104 188.222C185.11 188.222 181.463 189.047 178.164 190.696C174.865 192.259 172.043 194.517 169.698 197.469C167.528 200.421 166.443 203.286 166.443 206.064Z" fill="#161710"></path> <path d="M228.696 199.553C224.528 204.241 222.445 209.277 222.445 214.66C222.445 223.169 229.478 227.423 243.543 227.423C248.145 227.423 253.485 226.816 259.562 225.6C265.727 224.298 270.763 222.865 274.67 221.302C278.49 219.392 280.4 217.873 280.4 216.744C280.314 216.049 280.01 215.702 279.489 215.702L274.149 218.046C270.676 219.609 267.333 220.912 264.121 221.953C260.995 222.995 257.348 223.516 253.181 223.516C239.115 223.516 232.082 218.958 232.082 209.841C232.082 203.937 234.34 198.988 238.855 194.994C243.456 191 248.839 189.003 255.004 189.003C256.741 189.003 258.824 189.177 261.255 189.524C263.773 189.872 265.857 190.262 267.507 190.696L273.368 192.259C274.062 191.999 274.409 191.261 274.409 190.045C273.889 185.617 269.895 183.403 262.428 183.403C259.649 183.403 256.741 183.794 253.702 184.575C250.663 185.357 247.624 186.442 244.585 187.831C238.16 190.87 232.864 194.777 228.696 199.553Z" fill="#161710"></path> <path fill-rule="evenodd" clip-rule="evenodd" d="M326.895 206.064C326.895 209.798 325.332 213.314 322.207 216.614C319.081 219.913 315.217 222.605 310.615 224.688C308.358 225.557 306.144 226.251 303.973 226.772C301.803 227.293 299.762 227.554 297.852 227.554C295.508 227.554 293.641 226.989 292.252 225.861C290.863 224.819 289.734 222.691 288.866 219.479C288.171 216.18 287.824 212.012 287.824 206.976L288.605 193.301L288.996 182.231C288.996 181.536 289.387 181.276 290.168 181.45C291.384 181.45 292.599 181.84 293.815 182.622C295.117 183.316 295.768 184.445 295.768 186.008L293.164 196.818C292.382 200.117 291.992 203.503 291.992 206.976L293.815 205.413L297.722 202.418C298.503 201.897 299.545 201.333 300.848 200.725C302.15 200.03 303.669 199.336 305.406 198.641C308.532 197.339 311.744 196.687 315.044 196.687C318.603 196.687 321.469 197.512 323.639 199.162C325.81 200.812 326.895 203.112 326.895 206.064ZM319.602 208.669C319.602 205.891 318.82 203.72 317.258 202.157C315.782 200.421 313.828 199.553 311.397 199.553C310.008 199.553 308.619 199.77 307.229 200.204C305.58 200.464 303.8 201.072 301.89 202.027C298.503 203.764 295.204 206.108 291.992 209.06C291.992 218.611 296.55 223.386 305.666 223.386C309.921 223.386 313.307 221.867 315.825 218.828C318.343 216.049 319.602 212.663 319.602 208.669Z" fill="#161710"></path> <path d="M176.031 43.0855C169.832 44.5078 162.427 42.4928 159.499 41.3075C163.605 48.7082 184.113 47.2395 192.132 46.6652L192.134 46.6651C194.25 46.5135 195.496 46.4243 195.341 46.577C194.746 47.1619 195.434 48.4964 195.852 49.0905L196.696 51.9696C197.037 49.8857 198.216 49.5822 198.763 49.691C203.516 51.7234 208.301 44.3562 210.109 41.3075C226.228 36.2263 232.515 26.9113 233.635 22C231.759 27.9283 223.736 31.5512 215.794 35.1378C211.483 37.0842 207.197 39.0199 203.929 41.3075C201.449 41.3075 198.074 42.4928 196.696 43.0855C192.822 40.799 183.781 41.3075 176.031 43.0855Z" fill="#161710"></path> <path d="M266.658 27.8008C266.411 27.1636 266.558 25.5944 266.983 24.3139C267.817 21.8057 269.75 21.122 269.75 23.336C269.75 24.0788 270.09 24.8954 270.507 25.1507C270.929 25.4101 271.07 26.3804 270.827 27.3452C270.329 29.3143 271.447 31.0282 273.228 31.0282C273.892 31.0281 274.992 31.6395 275.674 32.3873C276.713 33.528 276.786 34.1046 276.132 35.9694C276.077 36.1275 276.024 36.2764 275.975 36.4167C275.536 37.6565 275.337 38.2182 275.535 38.4787C275.699 38.6944 276.135 38.7035 276.932 38.7202C277.041 38.7225 277.156 38.7249 277.278 38.728C279.258 38.7788 282.699 39.9341 281.13 40.0218C279.785 40.0969 280.092 42.491 281.624 43.8682C282.566 44.7147 283.768 45.0089 285.476 44.8107C289.498 44.3447 288.23 46.2832 283.433 47.9324L280.807 48.8352L283.508 49.9759C287.645 51.7239 292.124 53.8718 296.312 56.117C300.209 58.2051 299.997 58.5306 294.962 58.1905L293.211 58.0723L297.413 61.7302L295.092 61.3421C293.049 61.0006 292.822 61.1126 293.195 62.2783C293.8 64.1716 292.751 64.5145 289.631 63.4448C282.704 61.0687 282.617 61.0576 281.761 62.4188C280.641 64.1995 280.659 64.2454 283.412 66.9003C286.28 69.6666 289.671 71.2072 294.588 71.9779L298.113 72.5302L293.211 73.9046L294.889 74.8033C296.002 75.3994 297.768 75.5524 300.141 75.2582C302.107 75.0147 305.291 74.6523 307.217 74.4534C310.69 74.0945 310.703 74.1008 308.793 75.1879C307.734 75.791 306.867 76.5874 306.867 76.9575C306.867 77.3275 307.734 77.6307 308.793 77.6314C310.336 77.6314 309.835 78.0467 306.279 79.7181C303.837 80.8651 301.237 81.8041 300.501 81.8041C299.766 81.8041 299.164 82.1171 299.164 82.4997C299.164 82.8822 300.271 83.1952 301.625 83.1952C302.978 83.1952 304.694 83.5729 305.439 84.0348C306.652 84.7874 306.385 84.9988 302.837 86.0895C300.662 86.7579 296.523 87.4708 293.639 87.6739C289.371 87.9751 288.156 87.8284 287.11 86.888C284.936 84.9335 284.129 86.737 285.868 89.6653C287.672 92.7015 290.234 93.2989 301.204 93.2447L308.498 93.2078L303.015 95.6124L308.397 95.6639C311.358 95.6924 314.592 95.4086 315.586 95.033C317.296 94.3875 317.367 94.4494 316.928 96.1911C316.526 97.7763 316.641 97.9627 317.753 97.5384C320.09 96.6481 316.888 99.6313 314.415 100.649C312.513 101.431 312.416 101.597 313.59 102.055C314.322 102.34 315.827 102.595 316.932 102.622C318.616 102.663 318.806 102.837 318.094 103.688C316.813 105.222 310.043 107.522 305.39 108.005C303.121 108.241 301.265 108.68 301.265 108.982C301.265 109.283 302.891 110.132 304.88 110.869L308.496 112.208L303.888 113.072C301.353 113.547 298.229 113.73 296.946 113.48L294.611 113.024L298.113 115.876L295.662 115.456C293.247 115.043 293.234 115.054 294.772 116.187C299.732 119.84 305.651 120.051 314.571 116.893L319.123 115.281L316.38 117.671C314.871 118.985 313.217 120.06 312.703 120.06C312.19 120.06 311.77 120.373 311.77 120.756C311.77 121.138 312.831 121.451 314.129 121.451C316.517 121.451 327.299 119.737 329.716 118.972C330.44 118.743 329.81 119.629 328.311 120.95L325.594 123.342L327.611 123.899C329.09 124.307 329.3 124.533 328.399 124.744C327.285 125.005 327.269 125.172 328.224 126.527C328.804 127.348 329.278 128.217 329.278 128.457C329.278 129.012 322.908 128.026 319.706 126.977C318.371 126.539 317.122 126.337 316.929 126.528C316.043 127.408 323.174 131.566 330.328 134.342C331.579 134.827 331.504 134.939 329.628 135.389C328.473 135.666 326.424 135.95 325.076 136.02C322.691 136.143 322.672 136.166 324.376 136.877C325.383 137.297 325.761 137.744 325.265 137.93C323.74 138.499 316.636 136.048 309.734 132.571C305.541 130.459 302.91 129.486 302.735 129.981C302.364 131.03 308.65 136.648 310.793 137.182C311.715 137.411 312.47 138.02 312.47 138.533C312.47 139.047 313.022 139.785 313.695 140.176C315.809 141.398 313.127 141.093 308.155 139.545C305.714 138.784 303.424 138.158 303.069 138.154C302.055 138.14 305.531 141.549 308.201 143.187L310.608 144.665L305.817 146.306L308.968 147.196C310.702 147.685 314.578 148.044 317.582 147.995C321.006 147.939 322.885 148.161 322.618 148.589C322.384 148.965 321.626 149.274 320.935 149.274C320.244 149.274 318.828 150.056 317.789 151.012C316.75 151.969 315.049 152.777 314.009 152.808L312.12 152.864L314.143 153.752C316.156 154.634 316.158 154.64 314.486 154.958C312.384 155.357 303.99 153.928 300.039 152.499C298.402 151.906 297.063 151.682 297.063 152.001C297.063 152.634 302.566 155.135 305.648 155.902C306.711 156.167 307.759 156.67 307.978 157.021C308.56 157.957 299.449 157.157 295.312 155.909C291.289 154.696 289.951 154.565 291.46 155.534C293.066 156.565 291.236 156.356 288.416 155.186C284.945 153.745 284.651 153.866 286.605 155.931L288.297 157.72L283.751 155.584C277.48 152.638 277.343 152.68 277.593 157.446L277.803 161.446L289.128 161.794C295.356 161.985 300.643 162.333 300.877 162.566C301.112 162.8 298.379 163.191 294.806 163.434C286.957 163.97 241.799 164.175 241.298 163.677C241.103 163.483 244.352 163.126 248.518 162.884C252.684 162.64 257.905 162.265 260.12 162.05L264.147 161.657V153.458L261.17 154.632C259.534 155.278 257.091 156.428 255.743 157.188L253.292 158.569L254.989 156.703C256.941 154.559 256.669 154.435 253.184 155.881C250.161 157.136 249.912 157.158 250.558 156.119C250.897 155.575 250.628 155.447 249.724 155.725C243.65 157.593 240.183 158.294 237.184 158.259L233.682 158.218L237.582 156.702C241.699 155.101 245.566 152.845 245.056 152.34C244.89 152.174 243.28 152.687 241.478 153.478C237.136 155.385 229.246 156.986 227.042 156.406L225.278 155.943L229.48 155.063L227.379 154.512C226.224 154.209 224.648 153.416 223.878 152.751C223.107 152.086 221.532 151.285 220.376 150.971C218.655 150.502 219.354 150.309 224.228 149.909C227.502 149.639 231.441 148.943 232.982 148.362L235.783 147.305L231.129 146.297L234.682 143.21C236.636 141.512 238.234 139.874 238.234 139.568C238.234 139.262 236.172 139.756 233.651 140.665C228.802 142.413 225.549 142.93 227.875 141.583C228.533 141.202 228.941 140.507 228.781 140.039C228.621 139.571 229.786 138.556 231.369 137.785C234.217 136.397 238.849 131.567 238.072 130.795C237.851 130.575 234.327 132.168 230.243 134.334C224.242 137.517 217.206 140.251 215.123 140.208C214.931 140.203 215.561 139.581 216.524 138.824L218.275 137.448L216.174 137.576C215.018 137.646 212.97 137.638 211.622 137.559C209.258 137.419 209.368 137.316 214.686 134.688C219.921 132.101 223.527 129.504 223.527 128.321C223.527 128.025 222.503 128.207 221.251 128.727C217.6 130.242 211.622 131.15 211.622 130.189C211.622 129.745 212.013 128.992 212.492 128.517C213.184 127.829 213.149 127.518 212.317 126.986C211.452 126.435 211.543 126.246 212.847 125.891C214.972 125.313 214.838 124.868 211.952 122.916C210.597 122 209.595 121.145 209.725 121.017C209.854 120.888 212.52 121.263 215.649 121.849C218.777 122.435 223.169 122.82 225.409 122.704L229.48 122.494L226.632 120.98C225.065 120.148 223.373 118.974 222.871 118.373C222.04 117.379 222.235 117.379 225.019 118.372C228.648 119.666 237.09 120.439 240.422 119.781C241.723 119.524 243.732 118.54 244.888 117.593L246.989 115.873L242.086 116.792L243.837 115.238C245.15 114.072 245.267 113.785 244.301 114.091C241.135 115.094 237.325 115.393 237.819 114.601C238.167 114.041 237.305 113.788 234.949 113.76L231.581 113.72L239.285 110.114L233.682 109.247C230.601 108.77 226.504 107.675 224.578 106.814L221.076 105.248L228.08 103.17L225.183 101.94C223.591 101.262 222.045 100.319 221.749 99.8435C221.38 99.2509 221.497 99.1542 222.12 99.5367C222.806 99.9576 222.943 99.6418 222.676 98.2534C222.288 96.2398 222.56 96.1466 226.329 96.9972C229.398 97.6907 237.166 96.9214 235.083 96.1306C230.921 94.551 231.144 94.4167 238.006 94.3715C247.81 94.3068 251.96 93.2878 253.301 90.6176C255.029 87.1794 254.304 85.2471 252.222 87.7393C251.505 88.597 250.223 88.734 245.658 88.4391C242.538 88.2381 238.252 87.6531 236.133 87.1404L232.282 86.2077L234.523 85.0496C235.756 84.4125 237.647 83.8602 238.725 83.8219C240.497 83.76 240.416 83.6661 237.884 82.8488C232.934 81.2518 228.594 79.0546 230.356 79.0372C232.568 79.0156 232.331 77.196 230.006 76.3523C228.153 75.6804 228.185 75.6533 230.881 75.6289C232.422 75.6157 235.101 75.8856 236.834 76.2285C240.095 76.8747 245.238 76.0414 245.238 74.868C245.238 74.5257 244.371 74.1286 243.312 73.9867L241.386 73.7279L243.487 73.1966C252.896 70.8177 259.323 65.4668 256.336 62.5002C255.854 62.0217 255.078 61.9284 254.41 62.2693C253.795 62.5837 252.11 63.0525 250.665 63.3119C249.221 63.5707 248.039 64.0812 248.039 64.4464C248.039 64.8116 247.409 65.1106 246.639 65.1107C245.615 65.1106 245.238 64.6467 245.238 63.3891C245.238 61.8158 245.078 61.7274 243.39 62.3653C240.756 63.3599 240.551 62.6776 242.881 60.6744L244.888 58.9494L242.002 59.3271C240.239 59.558 238.929 59.4036 238.634 58.9299C238.343 58.4618 238.691 58.155 239.515 58.155C240.265 58.155 242.411 57.1103 244.284 55.8332C246.157 54.5569 249.659 52.6358 252.066 51.5653C256.531 49.5795 257.604 48.4172 254.975 48.4172C253.467 48.4172 249.44 46.3681 249.44 45.6009C249.44 45.3644 250.864 45.171 252.604 45.171C254.902 45.171 256.046 44.8065 256.784 43.8383C258.164 42.0264 258.096 40.7681 256.618 40.7556C255.571 40.7465 255.545 40.6464 256.443 40.0704C257.021 39.6997 258.124 39.3867 258.894 39.3749C261.448 39.3359 262.21 38.4088 261.308 36.4417C260.647 35.0005 260.719 34.3439 261.703 32.8533C262.365 31.8496 263.463 31.0282 264.142 31.0281C265.805 31.0281 267.209 29.228 266.658 27.8008Z" fill="#161710"></path> <path d="M144.294 313.49C144.773 313.765 145.384 313.599 145.659 313.121C145.934 312.642 145.769 312.03 145.29 311.755C143.744 310.867 142.808 309.999 142.312 309.192C141.837 308.419 141.738 307.663 141.946 306.864C142.085 306.33 141.764 305.784 141.229 305.645C140.695 305.506 140.149 305.826 140.01 306.361C139.665 307.689 139.849 309.005 140.608 310.239C141.345 311.438 142.592 312.512 144.294 313.49Z" fill="#161710"></path> <path d="M152.352 314.572C151.822 314.415 151.266 314.717 151.109 315.247C150.952 315.776 151.254 316.333 151.783 316.49C153.998 317.146 156.555 317.773 159.478 318.371C160.019 318.481 160.547 318.132 160.658 317.591C160.769 317.05 160.42 316.522 159.879 316.411C156.998 315.822 154.499 315.208 152.352 314.572Z" fill="#161710"></path> <path d="M167.237 317.727C166.691 317.642 166.18 318.014 166.094 318.56C166.008 319.106 166.381 319.617 166.926 319.703C169.351 320.084 171.962 320.451 174.767 320.803C175.315 320.872 175.815 320.483 175.884 319.935C175.953 319.387 175.564 318.887 175.016 318.819C172.229 318.469 169.639 318.105 167.237 317.727Z" fill="#161710"></path> <path d="M182.714 319.694C182.164 319.637 181.673 320.037 181.616 320.586C181.559 321.135 181.959 321.627 182.508 321.684C183.873 321.825 185.277 321.963 186.718 322.098C187.268 322.149 187.756 321.745 187.807 321.195C187.859 320.645 187.455 320.158 186.905 320.106C185.469 319.972 184.072 319.834 182.714 319.694Z" fill="#161710"></path> <path d="M145.362 300.004C144.917 300.33 144.82 300.956 145.146 301.402C145.472 301.847 146.098 301.944 146.544 301.618C148.321 300.317 150.542 298.977 153.128 297.608C153.616 297.349 153.802 296.744 153.543 296.256C153.285 295.768 152.68 295.582 152.192 295.84C149.555 297.236 147.244 298.627 145.362 300.004Z" fill="#161710"></path> <path d="M159.309 292.384C158.806 292.611 158.582 293.204 158.809 293.707C159.036 294.21 159.628 294.434 160.132 294.207C162.382 293.191 164.777 292.169 167.282 291.143C167.793 290.933 168.037 290.349 167.828 289.838C167.618 289.327 167.034 289.082 166.523 289.292C164.002 290.325 161.585 291.357 159.309 292.384Z" fill="#161710"></path> <path d="M173.806 286.407C173.29 286.605 173.033 287.184 173.231 287.699C173.43 288.215 174.008 288.472 174.524 288.273C176.909 287.356 179.354 286.439 181.834 285.523C182.353 285.332 182.618 284.757 182.426 284.239C182.235 283.721 181.66 283.456 181.142 283.647C178.655 284.565 176.201 285.485 173.806 286.407Z" fill="#161710"></path> <path d="M188.511 280.965C187.992 281.152 187.722 281.725 187.909 282.245C188.096 282.764 188.669 283.034 189.188 282.847C191.642 281.964 194.105 281.086 196.557 280.213C197.077 280.028 197.349 279.456 197.164 278.936C196.979 278.416 196.407 278.144 195.886 278.329C193.434 279.202 190.968 280.081 188.511 280.965Z" fill="#161710"></path> <path d="M145.218 249.823C144.666 249.838 144.231 250.297 144.246 250.85C144.261 251.402 144.721 251.837 145.273 251.822C146.681 251.783 148.071 251.747 149.443 251.712C149.995 251.698 150.431 251.239 150.417 250.687C150.403 250.135 149.944 249.698 149.392 249.712C148.019 249.747 146.627 249.784 145.218 249.823Z" fill="#161710"></path> <path d="M203.241 275.711C202.721 275.896 202.45 276.469 202.635 276.989C202.821 277.509 203.393 277.78 203.913 277.594C206.408 276.704 208.866 275.822 211.259 274.951C211.778 274.762 212.046 274.188 211.857 273.669C211.668 273.15 211.095 272.883 210.576 273.071C208.187 273.94 205.734 274.821 203.241 275.711Z" fill="#161710"></path> <path d="M157.42 249.524C156.868 249.536 156.43 249.993 156.442 250.545C156.453 251.097 156.911 251.535 157.463 251.524C160.066 251.468 162.599 251.419 165.063 251.378C165.615 251.368 166.055 250.913 166.046 250.361C166.037 249.809 165.582 249.369 165.029 249.378C162.562 249.42 160.026 249.468 157.42 249.524Z" fill="#161710"></path> <path d="M172.821 249.266C172.269 249.273 171.827 249.726 171.833 250.278C171.839 250.83 172.292 251.273 172.845 251.266C175.6 251.234 178.26 251.212 180.828 251.199C181.381 251.196 181.826 250.746 181.823 250.194C181.821 249.642 181.371 249.196 180.818 249.199C178.246 249.212 175.581 249.234 172.821 249.266Z" fill="#161710"></path> <path d="M217.91 270.355C217.393 270.551 217.133 271.128 217.329 271.644C217.524 272.161 218.102 272.421 218.618 272.225C221.184 271.254 223.632 270.299 225.923 269.366C226.435 269.157 226.68 268.573 226.472 268.062C226.263 267.551 225.68 267.305 225.168 267.513C222.897 268.439 220.465 269.388 217.91 270.355Z" fill="#161710"></path> <path d="M188.261 249.188C187.709 249.187 187.26 249.633 187.259 250.186C187.258 250.738 187.704 251.187 188.257 251.188C191.096 251.195 193.807 251.214 196.394 251.246C196.946 251.253 197.399 250.811 197.406 250.259C197.413 249.707 196.971 249.253 196.419 249.247C193.824 249.214 191.107 249.195 188.261 249.188Z" fill="#161710"></path> <path d="M232.247 264.443C231.747 264.677 231.532 265.273 231.766 265.773C232.001 266.273 232.596 266.488 233.096 266.254C235.967 264.907 238.399 263.604 240.23 262.355C240.687 262.044 240.804 261.422 240.493 260.966C240.182 260.509 239.56 260.392 239.103 260.703C237.4 261.865 235.078 263.116 232.247 264.443Z" fill="#161710"></path> <path d="M203.982 249.385C203.43 249.371 202.971 249.808 202.957 250.36C202.944 250.912 203.38 251.371 203.932 251.384C206.782 251.455 209.452 251.543 211.951 251.649C212.503 251.673 212.969 251.244 212.992 250.692C213.016 250.141 212.587 249.674 212.036 249.651C209.524 249.544 206.842 249.455 203.982 249.385Z" fill="#161710"></path> <path d="M219.553 250.056C219.002 250.019 218.525 250.435 218.489 250.987C218.452 251.538 218.869 252.014 219.42 252.051C222.335 252.246 224.942 252.472 227.26 252.728C227.809 252.788 228.303 252.392 228.364 251.843C228.424 251.295 228.028 250.8 227.479 250.74C225.127 250.481 222.491 250.252 219.553 250.056Z" fill="#161710"></path> <path d="M235.27 251.908C234.729 251.797 234.2 252.145 234.089 252.686C233.978 253.227 234.327 253.756 234.868 253.867C236.724 254.248 238.197 254.661 239.33 255.096C240.473 255.535 241.211 255.976 241.649 256.383C242.053 256.759 242.686 256.736 243.062 256.331C243.438 255.927 243.415 255.294 243.011 254.918C242.309 254.266 241.305 253.713 240.047 253.229C238.778 252.742 237.191 252.302 235.27 251.908Z" fill="#161710"></path> </svg>