<?xml version="1.0" encoding="UTF-8"?> <svg xmlns="http://www.w3.org/2000/svg" width="1800" height="275" viewBox="0 0 1800 275" fill="none"> <g clip-path="url(#clip0_114_181)"> <path d="M164.52 192.258C164.52 189.698 165.013 187.392 165.997 185.341C166.998 183.289 168.401 181.698 170.207 180.565C172.028 179.416 174.088 178.842 176.385 178.842C179.93 178.842 182.802 180.089 185.001 182.584C187.2 185.062 188.3 188.352 188.3 192.455V193.071C188.3 195.647 187.799 197.969 186.798 200.037C185.814 202.088 184.419 203.672 182.614 204.788C180.808 205.904 178.749 206.462 176.435 206.462C172.906 206.462 170.034 205.223 167.819 202.745C165.62 200.25 164.52 196.952 164.52 192.849V192.258ZM167.474 193.071C167.474 196.254 168.295 198.872 169.936 200.923C171.593 202.958 173.76 203.976 176.435 203.976C179.093 203.976 181.243 202.958 182.884 200.923C184.542 198.872 185.371 196.172 185.371 192.824V192.258C185.371 190.223 184.993 188.361 184.238 186.67C183.483 184.98 182.425 183.675 181.063 182.756C179.701 181.821 178.141 181.353 176.385 181.353C173.76 181.353 171.618 182.387 169.961 184.455C168.303 186.506 167.474 189.197 167.474 192.529V193.071ZM205.138 181.107C208.519 181.107 211.259 182.215 213.36 184.43C215.461 186.629 216.511 189.55 216.511 193.194V193.834C216.511 196.246 216.027 198.421 215.058 200.357C214.107 202.277 212.728 203.779 210.923 204.862C209.134 205.929 207.074 206.462 204.744 206.462C201.232 206.462 198.385 205.297 196.202 202.966C194.036 200.62 192.953 197.493 192.953 193.587V191.224C192.953 185.71 194.003 181.304 196.104 178.005C198.204 174.706 201.191 172.737 205.064 172.097C207.509 171.703 209.224 171.17 210.209 170.497C211.21 169.824 211.711 168.905 211.711 167.74H214.246C214.246 169.118 213.959 170.259 213.385 171.162C212.81 172.064 211.949 172.794 210.8 173.352C209.651 173.894 207.895 174.354 205.532 174.731C202.824 175.158 200.641 176.315 198.984 178.202C197.343 180.073 196.276 182.584 195.784 185.735C196.834 184.356 198.147 183.24 199.722 182.387C201.314 181.533 203.119 181.107 205.138 181.107ZM195.907 193.218V193.834C195.907 196.837 196.719 199.282 198.344 201.169C199.968 203.04 202.102 203.976 204.744 203.976C207.403 203.976 209.536 203.032 211.144 201.145C212.753 199.241 213.557 196.747 213.557 193.661V193.021C213.557 190.248 212.736 187.983 211.095 186.227C209.47 184.471 207.337 183.593 204.695 183.593C202.053 183.593 199.927 184.487 198.319 186.276C196.711 188.049 195.907 190.363 195.907 193.218ZM224.733 179.334V203.483H236.598V179.334H239.552V203.483H251.27V179.334H254.224V203.483H257.424L257.202 213.872H254.495V205.97H221.779V179.334H224.733ZM279.702 179.334H282.656V205.97H279.702V184.085L265.326 205.97H262.397V179.334H265.326V201.243L279.702 179.334ZM308.061 179.334H311.015V205.97H308.061V184.085L293.685 205.97H290.755V179.334H293.685V201.243L308.061 179.334ZM307.913 169.734C307.913 171.621 307.265 173.147 305.968 174.313C304.688 175.478 302.965 176.06 300.799 176.06C298.665 176.06 296.942 175.486 295.629 174.337C294.333 173.172 293.685 171.638 293.685 169.734H296.195C296.195 171.096 296.597 172.138 297.402 172.86C298.222 173.582 299.355 173.943 300.799 173.943C302.243 173.943 303.367 173.566 304.171 172.811C304.992 172.056 305.402 171.03 305.402 169.734H307.913ZM345.921 201.982L356.507 179.334H360.15V205.97H357.196V184.11L346.955 205.97H344.863L334.425 183.618V205.97H331.496V179.334H335.361L345.921 201.982ZM378.366 206.462C376.102 206.462 374.05 205.904 372.212 204.788C370.39 203.672 368.971 202.121 367.953 200.136C366.936 198.133 366.427 195.893 366.427 193.415V192.357C366.427 189.796 366.919 187.491 367.904 185.439C368.905 183.388 370.292 181.78 372.064 180.614C373.837 179.433 375.757 178.842 377.825 178.842C381.058 178.842 383.618 179.95 385.505 182.165C387.409 184.364 388.361 187.376 388.361 191.2V192.849H369.357V193.415C369.357 196.435 370.218 198.954 371.941 200.973C373.681 202.975 375.864 203.976 378.489 203.976C380.065 203.976 381.452 203.689 382.65 203.114C383.864 202.54 384.964 201.621 385.948 200.357L387.794 201.76C385.628 204.895 382.485 206.462 378.366 206.462ZM377.825 181.353C375.609 181.353 373.738 182.165 372.212 183.79C370.702 185.415 369.783 187.597 369.455 190.338H385.431V190.018C385.349 187.458 384.619 185.374 383.24 183.765C381.862 182.157 380.057 181.353 377.825 181.353ZM412.928 181.845H403.229V205.97H400.275V181.845H390.945V179.334H412.928V181.845ZM439.194 192.923C439.194 197.075 438.275 200.374 436.437 202.819C434.599 205.248 432.138 206.462 429.052 206.462C425.409 206.462 422.619 205.182 420.683 202.622V216.21H417.753V179.334H420.486L420.633 183.101C422.553 180.262 425.335 178.842 428.978 178.842C432.162 178.842 434.657 180.048 436.462 182.461C438.284 184.873 439.194 188.221 439.194 192.504V192.923ZM436.24 192.406C436.24 189.009 435.543 186.326 434.148 184.356C432.753 182.387 430.808 181.402 428.314 181.402C426.509 181.402 424.958 181.837 423.661 182.707C422.365 183.577 421.372 184.84 420.683 186.498V199.274C421.388 200.8 422.398 201.965 423.71 202.77C425.023 203.574 426.574 203.976 428.363 203.976C430.841 203.976 432.769 202.991 434.148 201.022C435.543 199.036 436.24 196.164 436.24 192.406ZM462.556 205.97C462.26 205.133 462.072 203.894 461.989 202.253C460.956 203.598 459.634 204.64 458.026 205.379C456.434 206.101 454.744 206.462 452.955 206.462C450.395 206.462 448.319 205.748 446.727 204.32C445.152 202.893 444.364 201.087 444.364 198.905C444.364 196.312 445.439 194.26 447.589 192.751C449.755 191.241 452.766 190.486 456.623 190.486H461.965V187.458C461.965 185.554 461.374 184.061 460.192 182.978C459.027 181.878 457.321 181.328 455.072 181.328C453.021 181.328 451.322 181.853 449.976 182.904C448.631 183.954 447.958 185.218 447.958 186.695L445.004 186.67C445.004 184.553 445.989 182.723 447.958 181.181C449.927 179.622 452.348 178.842 455.22 178.842C458.19 178.842 460.529 179.589 462.236 181.082C463.959 182.559 464.845 184.627 464.894 187.286V199.889C464.894 202.466 465.165 204.394 465.707 205.674V205.97H462.556ZM453.3 203.853C455.269 203.853 457.025 203.377 458.568 202.425C460.127 201.473 461.259 200.201 461.965 198.609V192.751H456.697C453.759 192.783 451.462 193.325 449.804 194.375C448.147 195.409 447.318 196.837 447.318 198.659C447.318 200.152 447.868 201.391 448.967 202.376C450.083 203.36 451.527 203.853 453.3 203.853ZM493.13 193.661H489.585V205.97H486.631V193.661H483.111L473.264 205.97H469.522L480.551 192.307L470.753 179.334H474.323L483.061 191.027H486.631V179.334H489.585V191.027H493.179L501.918 179.334H505.537L495.69 192.307L506.743 205.97H502.976L493.13 193.661Z" fill="#D3E0F4"></path> <path d="M214.894 86.8659C209.534 92.5334 203.274 95.3672 196.112 95.3672C187.677 95.3672 180.955 92.4236 175.946 86.5364C170.938 80.6052 168.434 72.8288 168.434 63.2072C168.434 56.8806 169.708 51.1471 172.256 46.0068C174.804 40.8665 178.429 36.8684 183.13 34.0127C187.831 31.157 193.278 29.7291 199.473 29.7291C209.139 29.7291 216.805 33.3317 222.473 40.537C228.14 47.7422 230.974 57.3858 230.974 69.4678V73.9491C230.974 91.2593 227.064 104.462 219.244 113.556C211.423 122.65 199.759 127.264 184.25 127.395H182.339V114.149H184.645C194.091 114.017 201.34 111.755 206.393 107.361C211.445 102.924 214.279 96.0921 214.894 86.8659ZM199.473 82.8459C202.68 82.8459 205.69 81.9232 208.502 80.078C211.314 78.2327 213.488 75.6845 215.026 72.4334V66.1727C215.026 59.0993 213.576 53.4098 210.677 49.1042C207.777 44.7986 204.02 42.6458 199.407 42.6458C194.794 42.6458 191.104 44.557 188.336 48.3793C185.612 52.1576 184.25 56.9465 184.25 62.7458C184.25 68.7649 185.634 73.6196 188.402 77.3101C191.17 81.0006 194.86 82.8459 199.473 82.8459ZM306.629 56.3534C306.629 61.0544 305.421 65.2501 303.005 68.9406C300.588 72.5872 297.293 75.4649 293.12 77.5737C298.128 79.9022 301.972 83.0875 304.652 87.1295C307.376 91.1714 308.738 95.7406 308.738 100.837C308.738 109.272 305.883 115.972 300.171 120.937C294.46 125.858 286.859 128.318 277.369 128.318C267.835 128.318 260.191 125.836 254.435 120.871C248.724 115.907 245.868 109.229 245.868 100.837C245.868 95.6967 247.23 91.0836 249.954 86.9977C252.678 82.9118 256.5 79.7704 261.421 77.5737C257.291 75.4649 254.018 72.5872 251.602 68.9406C249.229 65.2501 248.043 61.0544 248.043 56.3534C248.043 48.1816 250.679 41.7012 255.951 36.9124C261.223 32.1235 268.341 29.7291 277.303 29.7291C286.31 29.7291 293.449 32.1235 298.721 36.9124C303.993 41.7012 306.629 48.1816 306.629 56.3534ZM292.724 100.046C292.724 95.3013 291.296 91.479 288.441 88.5793C285.629 85.6357 281.894 84.1639 277.237 84.1639C272.58 84.1639 268.846 85.6137 266.034 88.5134C263.266 91.4131 261.882 95.2573 261.882 100.046C261.882 104.747 263.244 108.504 265.968 111.315C268.736 114.127 272.536 115.533 277.369 115.533C282.202 115.533 285.958 114.171 288.638 111.447C291.362 108.723 292.724 104.923 292.724 100.046ZM290.681 56.9465C290.681 52.7727 289.473 49.3458 287.057 46.6658C284.64 43.9419 281.389 42.5799 277.303 42.5799C273.217 42.5799 269.988 43.876 267.616 46.4681C265.243 49.0163 264.057 52.5091 264.057 56.9465C264.057 61.3399 265.243 64.8327 267.616 67.4249C270.032 70.017 273.283 71.3131 277.369 71.3131C281.455 71.3131 284.684 70.017 287.057 67.4249C289.473 64.8327 290.681 61.3399 290.681 56.9465ZM399.88 107.295L420.969 55.6944H441.003V127H424.989V79.8144L405.35 127H394.476L374.772 79.5508V127H358.758V55.6944H378.924L399.88 107.295ZM496.295 83.0436H455.963V74.8059L474.745 57.6055C479.709 53.0803 482.192 49.3458 482.192 46.4022C482.192 44.557 481.598 43.0632 480.412 41.9209C479.226 40.7347 477.491 40.1416 475.206 40.1416C472.658 40.1416 470.659 40.8665 469.209 42.3163C467.759 43.7661 467.034 45.6773 467.034 48.0498H454.776C454.776 42.9534 456.622 38.7357 460.312 35.3966C464.047 32.0137 468.879 30.3222 474.811 30.3222C481.093 30.3222 485.948 31.7281 489.375 34.5399C492.802 37.3517 494.515 41.2839 494.515 46.3363C494.515 51.0373 492.187 55.6285 487.53 60.1098L481.071 65.8432L471.845 73.2901H496.295V83.0436Z" fill="white"></path> <g filter="url(#filter0_f_114_181)"> <path d="M97.2145 36.5735H12.838C11.8245 36.5735 11.0039 37.3941 11.0039 38.4076V122.784C11.0039 123.797 11.8245 124.618 12.838 124.618H97.214C98.2275 124.618 99.048 123.797 99.048 122.784V38.4076C99.0486 37.3946 98.228 36.5735 97.2145 36.5735ZM95.3804 120.949H95.3799H14.6726V40.2422H95.3804V120.949Z" fill="white"></path> <path d="M98.4922 38.4073V38.4076V122.784C98.4922 123.49 97.9205 124.062 97.214 124.062H12.838C12.1315 124.062 11.5597 123.49 11.5597 122.784V38.4076C11.5597 37.701 12.1315 37.1293 12.838 37.1293H97.2145C97.921 37.1293 98.4926 37.7015 98.4922 38.4073ZM95.3804 121.505H95.9362V120.949V40.2422V39.6864H95.3804H14.6726H14.1168V40.2422V120.949V121.505H14.6726H95.3799H95.3804Z" stroke="#F9C84B" stroke-width="1.11168"></path> </g> <g filter="url(#filter1_f_114_181)"> <path d="M12.838 25.5686C11.8245 25.5686 11.0039 26.3892 11.0039 27.4027V32.9055C11.0039 33.919 11.8245 34.7396 12.838 34.7396C13.8515 34.7396 14.6721 33.919 14.6721 32.9055V27.4032C14.6726 26.3892 13.8515 25.5686 12.838 25.5686Z" fill="white"></path> <path d="M14.1162 27.4029V27.4032V32.9055C14.1162 33.612 13.5445 34.1837 12.838 34.1837C12.1315 34.1837 11.5597 33.612 11.5597 32.9055V27.4027C11.5597 26.6962 12.1315 26.1244 12.838 26.1244C13.5447 26.1244 14.1166 26.6963 14.1162 27.4029Z" stroke="#F9C84B" stroke-width="1.11168"></path> </g> <g filter="url(#filter2_f_114_181)"> <path d="M7.33688 36.5735H1.83408C0.820582 36.5735 0 37.3946 0 38.4076C0 39.4205 0.820582 40.2417 1.83408 40.2417H7.33688C8.35038 40.2417 9.17096 39.4211 9.17096 38.4076C9.17096 37.3941 8.35038 36.5735 7.33688 36.5735Z" fill="white"></path> <path d="M1.83408 37.1293H7.33688C8.0434 37.1293 8.61512 37.701 8.61512 38.4076C8.61512 39.1141 8.0434 39.6858 7.33688 39.6858H1.83408C1.12767 39.6858 0.555838 39.1137 0.555838 38.4076C0.555838 37.7015 1.12767 37.1293 1.83408 37.1293Z" stroke="#F9C84B" stroke-width="1.11168"></path> </g> <g filter="url(#filter3_f_114_181)"> <path d="M7.33688 120.95H1.83408C0.820582 120.95 0 121.771 0 122.784C0 123.798 0.820582 124.618 1.83408 124.618H7.33688C8.35038 124.618 9.17096 123.798 9.17096 122.784C9.17096 121.771 8.35038 120.95 7.33688 120.95Z" fill="white"></path> <path d="M1.83408 121.506H7.33688C8.0434 121.506 8.61512 122.078 8.61512 122.784C8.61512 123.491 8.0434 124.062 7.33688 124.062H1.83408C1.12756 124.062 0.555838 123.491 0.555838 122.784C0.555838 122.078 1.12756 121.506 1.83408 121.506Z" stroke="#F9C84B" stroke-width="1.11168"></path> </g> <g filter="url(#filter4_f_114_181)"> <path d="M12.838 126.453C11.8245 126.453 11.0039 127.274 11.0039 128.287V133.79C11.0039 134.804 11.8245 135.624 12.838 135.624C13.8515 135.624 14.6721 134.804 14.6721 133.79V128.287C14.6726 127.274 13.8515 126.453 12.838 126.453Z" fill="white"></path> <path d="M14.1162 128.287V128.287V133.79C14.1162 134.497 13.5445 135.068 12.838 135.068C12.1315 135.068 11.5597 134.497 11.5597 133.79V128.287C11.5597 127.581 12.1316 127.009 12.838 127.009C13.5447 127.009 14.1166 127.581 14.1162 128.287Z" stroke="#F9C84B" stroke-width="1.11168"></path> </g> <g filter="url(#filter5_f_114_181)"> <path d="M97.2169 126.453C96.2034 126.453 95.3828 127.274 95.3828 128.287V133.79C95.3828 134.804 96.2034 135.624 97.2169 135.624C98.2304 135.624 99.051 134.804 99.051 133.79V128.287C99.051 127.274 98.2304 126.453 97.2169 126.453Z" fill="white"></path> <path d="M95.9387 128.287C95.9387 127.581 96.5105 127.009 97.2169 127.009C97.9233 127.009 98.4951 127.581 98.4951 128.287V133.79C98.4951 134.497 97.9234 135.068 97.2169 135.068C96.5104 135.068 95.9387 134.497 95.9387 133.79V128.287Z" stroke="#F9C84B" stroke-width="1.11168"></path> </g> <g filter="url(#filter6_f_114_181)"> <path d="M108.225 120.95H102.722C101.708 120.95 100.888 121.77 100.888 122.784C100.888 123.797 101.709 124.618 102.722 124.618H108.225C109.238 124.618 110.059 123.797 110.059 122.784C110.059 121.77 109.238 120.95 108.225 120.95Z" fill="white"></path> <path d="M102.722 121.506H108.225C108.931 121.506 109.503 122.077 109.503 122.784C109.503 123.49 108.931 124.062 108.225 124.062H102.722C102.016 124.062 101.444 123.49 101.444 122.784C101.444 122.077 102.015 121.506 102.722 121.506Z" stroke="#F9C84B" stroke-width="1.11168"></path> </g> <g filter="url(#filter7_f_114_181)"> <path d="M108.225 36.574H102.722C101.708 36.574 100.888 37.3946 100.888 38.4081C100.888 39.4216 101.709 40.2421 102.722 40.2421H108.225C109.238 40.2421 110.059 39.4216 110.059 38.4081C110.059 37.3946 109.238 36.574 108.225 36.574Z" fill="white"></path> <path d="M102.722 37.1298H108.225C108.931 37.1298 109.503 37.7015 109.503 38.4081C109.503 39.1146 108.931 39.6863 108.225 39.6863H102.722C102.016 39.6863 101.444 39.1145 101.444 38.4081C101.444 37.7015 102.015 37.1298 102.722 37.1298Z" stroke="#F9C84B" stroke-width="1.11168"></path> </g> <g filter="url(#filter8_f_114_181)"> <path d="M97.2169 25.5686C96.2034 25.5686 95.3828 26.3892 95.3828 27.4027V32.9055C95.3828 33.919 96.2034 34.7396 97.2169 34.7396C98.2304 34.7396 99.051 33.919 99.051 32.9055V27.4032C99.051 26.3892 98.2304 25.5686 97.2169 25.5686Z" fill="white"></path> <path d="M95.9387 27.4027C95.9387 26.6962 96.5104 26.1244 97.2169 26.1244C97.9233 26.1244 98.4951 26.6961 98.4951 27.4032V32.9055C98.4951 33.612 97.9234 34.1837 97.2169 34.1837C96.5104 34.1837 95.9387 33.612 95.9387 32.9055V27.4027Z" stroke="#F9C84B" stroke-width="1.11168"></path> </g> <path d="M770.453 205.358L779.151 186.749H782.145V208.635H779.718V190.673L771.303 208.635H769.584L761.007 190.269V208.635H758.6V186.749H761.776L770.453 205.358ZM797.113 209.04C795.252 209.04 793.567 208.581 792.057 207.664C790.56 206.747 789.393 205.473 788.557 203.841C787.721 202.196 787.303 200.355 787.303 198.319V197.449C787.303 195.346 787.708 193.451 788.517 191.765C789.339 190.08 790.479 188.758 791.935 187.801C793.392 186.83 794.969 186.344 796.668 186.344C799.325 186.344 801.429 187.255 802.979 189.075C804.544 190.882 805.326 193.357 805.326 196.499V197.854H789.71V198.319C789.71 200.8 790.418 202.87 791.834 204.529C793.263 206.174 795.057 206.997 797.215 206.997C798.509 206.997 799.649 206.761 800.633 206.289C801.631 205.817 802.534 205.062 803.344 204.023L804.861 205.176C803.081 207.752 800.498 209.04 797.113 209.04ZM796.668 188.408C794.848 188.408 793.311 189.075 792.057 190.41C790.816 191.745 790.061 193.539 789.791 195.791H802.919V195.528C802.851 193.424 802.251 191.712 801.118 190.39C799.986 189.068 798.502 188.408 796.668 188.408ZM825.513 188.812H817.543V208.635H815.116V188.812H807.45V186.749H825.513V188.812ZM847.096 197.915C847.096 201.326 846.341 204.037 844.83 206.046C843.32 208.042 841.297 209.04 838.762 209.04C835.768 209.04 833.476 207.988 831.885 205.884V217.05H829.478V186.749H831.723L831.844 189.844C833.422 187.511 835.708 186.344 838.701 186.344C841.317 186.344 843.367 187.336 844.851 189.318C846.347 191.3 847.096 194.051 847.096 197.571V197.915ZM844.668 197.49C844.668 194.698 844.095 192.494 842.949 190.875C841.803 189.257 840.205 188.448 838.155 188.448C836.672 188.448 835.398 188.805 834.332 189.52C833.267 190.235 832.451 191.273 831.885 192.635V203.133C832.465 204.387 833.294 205.345 834.373 206.006C835.451 206.666 836.726 206.997 838.196 206.997C840.232 206.997 841.816 206.188 842.949 204.57C844.095 202.938 844.668 200.578 844.668 197.49ZM866.292 208.635C866.049 207.948 865.894 206.929 865.827 205.581C864.977 206.687 863.891 207.543 862.57 208.15C861.262 208.743 859.873 209.04 858.403 209.04C856.299 209.04 854.593 208.453 853.285 207.28C851.991 206.107 851.344 204.623 851.344 202.83C851.344 200.699 852.227 199.014 853.993 197.773C855.773 196.532 858.248 195.912 861.417 195.912H865.806V193.424C865.806 191.86 865.321 190.633 864.35 189.743C863.392 188.839 861.99 188.387 860.143 188.387C858.457 188.387 857.061 188.819 855.955 189.682C854.85 190.545 854.297 191.583 854.297 192.797L851.87 192.777C851.87 191.037 852.679 189.534 854.297 188.266C855.915 186.985 857.904 186.344 860.264 186.344C862.705 186.344 864.626 186.958 866.029 188.185C867.445 189.399 868.173 191.098 868.213 193.283V203.639C868.213 205.756 868.436 207.341 868.881 208.393V208.635H866.292ZM858.686 206.896C860.304 206.896 861.747 206.505 863.015 205.722C864.296 204.94 865.226 203.895 865.806 202.587V197.773H861.478C859.064 197.8 857.176 198.245 855.814 199.108C854.452 199.958 853.771 201.131 853.771 202.628C853.771 203.855 854.223 204.873 855.126 205.682C856.043 206.491 857.23 206.896 858.686 206.896ZM891.414 198.521H888.502V208.635H886.074V198.521H883.182L875.091 208.635H872.016L881.078 197.409L873.028 186.749H875.961L883.141 196.357H886.074V186.749H888.502V196.357H891.455L898.636 186.749H901.609L893.518 197.409L902.6 208.635H899.505L891.414 198.521ZM932.274 188.812H924.305V208.635H921.877V188.812H914.211V186.749H932.274V188.812ZM943.116 209.04C941.255 209.04 939.57 208.581 938.059 207.664C936.562 206.747 935.396 205.473 934.56 203.841C933.724 202.196 933.306 200.355 933.306 198.319V197.449C933.306 195.346 933.71 193.451 934.519 191.765C935.342 190.08 936.482 188.758 937.938 187.801C939.394 186.83 940.972 186.344 942.671 186.344C945.328 186.344 947.431 187.255 948.982 189.075C950.546 190.882 951.329 193.357 951.329 196.499V197.854H935.713V198.319C935.713 200.8 936.421 202.87 937.837 204.529C939.266 206.174 941.06 206.997 943.217 206.997C944.512 206.997 945.651 206.761 946.636 206.289C947.634 205.817 948.537 205.062 949.346 204.023L950.863 205.176C949.083 207.752 946.501 209.04 943.116 209.04ZM942.671 188.408C940.851 188.408 939.313 189.075 938.059 190.41C936.819 191.745 936.063 193.539 935.794 195.791H948.921V195.528C948.854 193.424 948.254 191.712 947.121 190.39C945.988 189.068 944.505 188.408 942.671 188.408ZM973.64 197.915C973.64 201.326 972.884 204.037 971.374 206.046C969.864 208.042 967.841 209.04 965.306 209.04C962.312 209.04 960.02 207.988 958.428 205.884V217.05H956.021V186.749H958.267L958.388 189.844C959.966 187.511 962.251 186.344 965.245 186.344C967.861 186.344 969.911 187.336 971.394 189.318C972.891 191.3 973.64 194.051 973.64 197.571V197.915ZM971.212 197.49C971.212 194.698 970.639 192.494 969.493 190.875C968.347 189.257 966.749 188.448 964.699 188.448C963.216 188.448 961.941 188.805 960.876 189.52C959.811 190.235 958.995 191.273 958.428 192.635V203.133C959.008 204.387 959.838 205.345 960.916 206.006C961.995 206.666 963.27 206.997 964.739 206.997C966.776 206.997 968.36 206.188 969.493 204.57C970.639 202.938 971.212 200.578 971.212 197.49ZM996.618 197.915C996.618 201.326 995.863 204.037 994.353 206.046C992.842 208.042 990.82 209.04 988.284 209.04C985.291 209.04 982.998 207.988 981.407 205.884V217.05H979V186.749H981.245L981.367 189.844C982.944 187.511 985.23 186.344 988.224 186.344C990.84 186.344 992.89 187.336 994.373 189.318C995.87 191.3 996.618 194.051 996.618 197.571V197.915ZM994.191 197.49C994.191 194.698 993.618 192.494 992.471 190.875C991.325 189.257 989.727 188.448 987.678 188.448C986.194 188.448 984.92 188.805 983.855 189.52C982.789 190.235 981.973 191.273 981.407 192.635V203.133C981.987 204.387 982.816 205.345 983.895 206.006C984.974 206.666 986.248 206.997 987.718 206.997C989.754 206.997 991.339 206.188 992.471 204.57C993.618 202.938 994.191 200.578 994.191 197.49ZM1015.81 208.635C1015.57 207.948 1015.42 206.929 1015.35 205.581C1014.5 206.687 1013.41 207.543 1012.09 208.15C1010.78 208.743 1009.4 209.04 1007.93 209.04C1005.82 209.04 1004.12 208.453 1002.81 207.28C1001.51 206.107 1000.87 204.623 1000.87 202.83C1000.87 200.699 1001.75 199.014 1003.52 197.773C1005.3 196.532 1007.77 195.912 1010.94 195.912H1015.33V193.424C1015.33 191.86 1014.84 190.633 1013.87 189.743C1012.91 188.839 1011.51 188.387 1009.66 188.387C1007.98 188.387 1006.58 188.819 1005.48 189.682C1004.37 190.545 1003.82 191.583 1003.82 192.797L1001.39 192.777C1001.39 191.037 1002.2 189.534 1003.82 188.266C1005.44 186.985 1007.43 186.344 1009.79 186.344C1012.23 186.344 1014.15 186.958 1015.55 188.185C1016.97 189.399 1017.7 191.098 1017.74 193.283V203.639C1017.74 205.756 1017.96 207.341 1018.4 208.393V208.635H1015.81ZM1008.21 206.896C1009.83 206.896 1011.27 206.505 1012.54 205.722C1013.82 204.94 1014.75 203.895 1015.33 202.587V197.773H1011C1008.59 197.8 1006.7 198.245 1005.34 199.108C1003.97 199.958 1003.29 201.131 1003.29 202.628C1003.29 203.855 1003.74 204.873 1004.65 205.682C1005.57 206.491 1006.75 206.896 1008.21 206.896ZM1032.3 206.997C1033.99 206.997 1035.39 206.525 1036.53 205.581C1037.67 204.623 1038.29 203.39 1038.39 201.879H1040.71C1040.65 203.214 1040.23 204.435 1039.46 205.54C1038.69 206.633 1037.67 207.489 1036.39 208.109C1035.12 208.73 1033.76 209.04 1032.3 209.04C1029.43 209.04 1027.15 208.042 1025.46 206.046C1023.79 204.05 1022.95 201.367 1022.95 197.996V197.267C1022.95 195.11 1023.33 193.202 1024.09 191.543C1024.84 189.884 1025.92 188.603 1027.32 187.7C1028.74 186.796 1030.39 186.344 1032.28 186.344C1034.68 186.344 1036.66 187.059 1038.21 188.489C1039.77 189.918 1040.61 191.799 1040.71 194.132H1038.39C1038.28 192.419 1037.66 191.037 1036.53 189.985C1035.41 188.934 1033.99 188.408 1032.28 188.408C1030.09 188.408 1028.4 189.197 1027.18 190.774C1025.98 192.352 1025.38 194.564 1025.38 197.409V198.117C1025.38 200.908 1025.98 203.086 1027.18 204.65C1028.4 206.215 1030.1 206.997 1032.3 206.997ZM1048.24 194.698H1054.55C1056.17 194.698 1057.58 194.995 1058.8 195.588C1060.02 196.168 1060.95 196.977 1061.57 198.016C1062.2 199.054 1062.52 200.261 1062.52 201.637C1062.52 203.754 1061.79 205.453 1060.34 206.734C1058.89 208.001 1056.94 208.635 1054.47 208.635H1045.83V186.749H1048.24V194.698ZM1048.24 196.762V206.592H1054.51C1056.25 206.592 1057.61 206.154 1058.6 205.277C1059.59 204.401 1060.09 203.201 1060.09 201.677C1060.09 200.221 1059.61 199.047 1058.64 198.157C1057.68 197.254 1056.36 196.789 1054.69 196.762H1048.24ZM1069.94 208.635H1067.52V186.749H1069.94V208.635Z" fill="#D3E0F4"></path> <path d="M796.716 143.909H783.611V80.6062L764.279 87.2127V76.1117L795.037 64.794H796.716V143.909ZM873.773 85.8589C873.773 89.7217 872.78 93.1694 870.795 96.2018C868.809 99.1982 866.102 101.563 862.672 103.296C866.788 105.209 869.946 107.826 872.149 111.148C874.387 114.469 875.506 118.223 875.506 122.411C875.506 129.342 873.159 134.848 868.466 138.927C863.773 142.971 857.528 144.992 849.73 144.992C841.896 144.992 835.614 142.953 830.885 138.873C826.192 134.794 823.846 129.306 823.846 122.411C823.846 118.187 824.965 114.397 827.203 111.039C829.441 107.682 832.582 105.101 836.625 103.296C833.232 101.563 830.542 99.1982 828.557 96.2018C826.607 93.1694 825.633 89.7217 825.633 85.8589C825.633 79.1442 827.799 73.8193 832.131 69.8843C836.463 65.9493 842.311 63.9818 849.676 63.9818C857.076 63.9818 862.943 65.9493 867.275 69.8843C871.607 73.8193 873.773 79.1442 873.773 85.8589ZM862.347 121.761C862.347 117.862 861.174 114.722 858.827 112.339C856.517 109.92 853.448 108.711 849.622 108.711C845.795 108.711 842.726 109.902 840.416 112.285C838.142 114.667 837.004 117.826 837.004 121.761C837.004 125.624 838.123 128.711 840.362 131.021C842.636 133.332 845.759 134.487 849.73 134.487C853.701 134.487 856.788 133.368 858.99 131.129C861.228 128.891 862.347 125.768 862.347 121.761ZM860.668 86.3463C860.668 82.9167 859.676 80.1008 857.69 77.8987C855.705 75.6604 853.033 74.5413 849.676 74.5413C846.318 74.5413 843.665 75.6063 841.716 77.7362C839.766 79.8301 838.791 82.7001 838.791 86.3463C838.791 89.9564 839.766 92.8264 841.716 94.9564C843.701 97.0863 846.373 98.1513 849.73 98.1513C853.087 98.1513 855.741 97.0863 857.69 94.9564C859.676 92.8264 860.668 89.9564 860.668 86.3463ZM950.397 127.718L967.726 85.3174H984.188V143.909H971.029V105.137L954.892 143.909H945.957L929.766 104.92V143.909H916.607V85.3174H933.177L950.397 127.718ZM1029.62 107.79H996.48V101.021L1011.91 86.8878C1015.99 83.1694 1018.03 80.1008 1018.03 77.6821C1018.03 76.1658 1017.54 74.9384 1016.57 73.9998C1015.6 73.0251 1014.17 72.5377 1012.29 72.5377C1010.2 72.5377 1008.56 73.1334 1007.36 74.3247C1006.17 75.516 1005.58 77.0864 1005.58 79.0359H995.505C995.505 74.8482 997.022 71.3825 1000.05 68.6388C1003.12 65.859 1007.09 64.4691 1011.97 64.4691C1017.13 64.4691 1021.12 65.6244 1023.93 67.9348C1026.75 70.2453 1028.16 73.4763 1028.16 77.6279C1028.16 81.4907 1026.25 85.2633 1022.42 88.9456L1017.11 93.6567L1009.53 99.7758H1029.62V107.79Z" fill="white"></path> <g filter="url(#filter9_f_114_181)"> <path d="M723.356 64.5042H645.467C644.531 64.5042 643.773 65.2625 643.773 66.1991V144.174C643.773 145.11 644.531 145.869 645.467 145.869H723.355C724.291 145.869 725.048 145.11 725.048 144.174V66.1991C725.049 65.263 724.291 64.5042 723.356 64.5042ZM721.663 142.479H721.662H647.16V67.8945H721.663V142.479Z" fill="white"></path> <path d="M724.591 66.1988V66.1991V144.174C724.591 144.858 724.038 145.412 723.355 145.412H645.467C644.784 145.412 644.23 144.858 644.23 144.174V66.1991C644.23 65.5142 644.784 64.9609 645.467 64.9609H723.356C724.038 64.9609 724.592 65.5147 724.591 66.1988ZM721.663 142.935H722.119V142.479V67.8945V67.4378H721.663H647.16H646.703V67.8945V142.479V142.935H647.16H721.662H721.663Z" stroke="#F9C84B" stroke-width="0.913462"></path> </g> <g filter="url(#filter10_f_114_181)"> <path d="M715.147 64.6074C714.211 64.6074 713.453 71.713 713.453 80.4787V128.097C713.453 136.868 714.211 143.969 715.147 143.969C716.083 143.969 716.84 136.868 716.84 128.097V80.4787C716.84 71.713 716.083 64.6074 715.147 64.6074Z" fill="white"></path> <path d="M713.91 80.4787C713.91 76.1068 714.099 72.1559 714.403 69.3044C714.556 67.8757 714.735 66.7385 714.93 65.9664C715.005 65.6703 715.078 65.4426 715.147 65.2783C715.215 65.4426 715.289 65.6703 715.363 65.9664C715.558 66.7385 715.738 67.8757 715.89 69.3044C716.195 72.1559 716.384 76.1068 716.384 80.4787V128.097C716.384 132.472 716.195 136.423 715.89 139.273C715.738 140.702 715.558 141.839 715.363 142.61C715.289 142.906 715.215 143.134 715.147 143.298C715.078 143.134 715.005 142.906 714.93 142.61C714.735 141.839 714.556 140.702 714.403 139.273C714.099 136.423 713.91 132.472 713.91 128.097V80.4787Z" stroke="#F9C84B" stroke-width="0.913462"></path> </g> <g filter="url(#filter11_f_114_181)"> <path d="M695.034 64.6072C694.098 64.6072 693.341 71.7127 693.341 80.4785V128.097C693.341 136.868 694.098 143.968 695.034 143.968C695.969 143.968 696.727 136.868 696.727 128.097V80.4785C696.727 71.7127 695.969 64.6072 695.034 64.6072Z" fill="white"></path> <path d="M693.798 80.4785C693.798 76.1065 693.987 72.1556 694.291 69.3041C694.443 67.8755 694.623 66.7382 694.818 65.9661C694.892 65.6703 694.965 65.4427 695.034 65.2783C695.102 65.4427 695.176 65.6703 695.25 65.9661C695.445 66.7382 695.625 67.8755 695.777 69.3041C696.081 72.1556 696.27 76.1065 696.27 80.4785V128.097C696.27 132.471 696.081 136.422 695.777 139.273C695.625 140.702 695.445 141.838 695.25 142.61C695.176 142.906 695.102 143.133 695.034 143.298C694.965 143.133 694.892 142.906 694.817 142.61C694.623 141.838 694.443 140.702 694.291 139.273C693.987 136.422 693.798 132.471 693.798 128.097V80.4785Z" stroke="#F9C84B" stroke-width="0.913462"></path> </g> <g filter="url(#filter12_f_114_181)"> <path d="M674.92 64.6072C673.984 64.6072 673.227 71.7127 673.227 80.4785V128.097C673.227 136.868 673.984 143.968 674.92 143.968C675.856 143.968 676.614 136.868 676.614 128.097V80.4785C676.614 71.7127 675.856 64.6072 674.92 64.6072Z" fill="white"></path> <path d="M673.683 80.4785C673.683 76.1065 673.872 72.1556 674.177 69.3041C674.329 67.8755 674.509 66.7382 674.704 65.9661C674.778 65.6701 674.852 65.4424 674.92 65.278C674.989 65.4424 675.062 65.6701 675.137 65.9661C675.332 66.7382 675.511 67.8755 675.664 69.3041C675.968 72.1556 676.157 76.1065 676.157 80.4785V128.097C676.157 132.471 675.968 136.422 675.664 139.273C675.511 140.702 675.332 141.838 675.137 142.61C675.062 142.906 674.989 143.134 674.92 143.298C674.852 143.134 674.778 142.906 674.704 142.61C674.509 141.838 674.329 140.702 674.177 139.273C673.872 136.422 673.683 132.471 673.683 128.097V80.4785Z" stroke="#F9C84B" stroke-width="0.913462"></path> </g> <g filter="url(#filter13_f_114_181)"> <path d="M654.802 64.6074C653.867 64.6074 653.109 71.713 653.109 80.4787V128.097C653.109 136.868 653.867 143.969 654.802 143.969C655.738 143.969 656.496 136.868 656.496 128.097V80.4787C656.496 71.713 655.738 64.6074 654.802 64.6074Z" fill="white"></path> <path d="M653.566 80.4787C653.566 76.1067 653.755 72.1559 654.059 69.3044C654.212 67.8757 654.391 66.7385 654.586 65.9663C654.661 65.6705 654.734 65.4429 654.802 65.2786C654.871 65.4429 654.944 65.6705 655.019 65.9663C655.214 66.7385 655.393 67.8757 655.546 69.3044C655.85 72.1559 656.039 76.1067 656.039 80.4787V128.097C656.039 132.472 655.85 136.423 655.546 139.273C655.393 140.702 655.214 141.839 655.019 142.61C654.944 142.906 654.871 143.134 654.802 143.298C654.734 143.134 654.661 142.906 654.586 142.61C654.391 141.839 654.212 140.702 654.059 139.273C653.755 136.423 653.566 132.472 653.566 128.097V80.4787Z" stroke="#F9C84B" stroke-width="0.913462"></path> </g> <path d="M1285.7 198.601H1282.34V208.634H1279.89V186.748H1282.34V196.457H1285.66L1293.69 186.748H1296.74L1287.76 197.368L1297.73 208.634H1294.54L1285.7 198.601ZM1299.45 197.368C1299.45 195.264 1299.86 193.369 1300.67 191.684C1301.49 189.998 1302.64 188.69 1304.12 187.759C1305.62 186.815 1307.31 186.343 1309.2 186.343C1312.11 186.343 1314.47 187.368 1316.28 189.418C1318.09 191.454 1318.99 194.158 1318.99 197.529V198.035C1318.99 200.152 1318.58 202.06 1317.76 203.759C1316.95 205.445 1315.8 206.746 1314.32 207.663C1312.84 208.58 1311.14 209.039 1309.24 209.039C1306.34 209.039 1303.98 208.021 1302.16 205.984C1300.36 203.935 1299.45 201.224 1299.45 197.853V197.368ZM1301.88 198.035C1301.88 200.651 1302.55 202.802 1303.9 204.488C1305.26 206.16 1307.04 206.996 1309.24 206.996C1311.43 206.996 1313.19 206.16 1314.54 204.488C1315.9 202.802 1316.58 200.584 1316.58 197.833V197.368C1316.58 195.695 1316.27 194.165 1315.65 192.776C1315.03 191.387 1314.16 190.315 1313.04 189.56C1311.93 188.791 1310.64 188.407 1309.2 188.407C1307.04 188.407 1305.28 189.256 1303.92 190.955C1302.56 192.641 1301.88 194.853 1301.88 197.59V198.035ZM1336.12 205.357L1344.82 186.748H1347.82V208.634H1345.39V190.672L1336.97 208.634H1335.25L1326.68 190.268V208.634H1324.27V186.748H1327.45L1336.12 205.357ZM1371.12 208.634H1368.69V198.601H1356.9V208.634H1354.47V186.748H1356.9V196.558H1368.69V186.748H1371.12V208.634ZM1391.43 208.634C1391.18 207.947 1391.03 206.928 1390.96 205.58C1390.11 206.686 1389.03 207.542 1387.7 208.149C1386.4 208.742 1385.01 209.039 1383.54 209.039C1381.43 209.039 1379.73 208.452 1378.42 207.279C1377.13 206.106 1376.48 204.622 1376.48 202.829C1376.48 200.698 1377.36 199.013 1379.13 197.772C1380.91 196.531 1383.38 195.911 1386.55 195.911H1390.94V193.423C1390.94 191.859 1390.46 190.632 1389.48 189.742C1388.53 188.838 1387.13 188.386 1385.28 188.386C1383.59 188.386 1382.2 188.818 1381.09 189.681C1379.98 190.544 1379.43 191.582 1379.43 192.796L1377 192.776C1377 191.036 1377.81 189.533 1379.43 188.265C1381.05 186.984 1383.04 186.343 1385.4 186.343C1387.84 186.343 1389.76 186.957 1391.16 188.184C1392.58 189.398 1393.31 191.097 1393.35 193.282V203.638C1393.35 205.755 1393.57 207.34 1394.02 208.392V208.634H1391.43ZM1383.82 206.895C1385.44 206.895 1386.88 206.504 1388.15 205.722C1389.43 204.939 1390.36 203.894 1390.94 202.586V197.772H1386.61C1384.2 197.799 1382.31 198.244 1380.95 199.107C1379.59 199.957 1378.91 201.13 1378.91 202.627C1378.91 203.854 1379.36 204.872 1380.26 205.681C1381.18 206.49 1382.36 206.895 1383.82 206.895ZM1415.21 188.811H1407.24V208.634H1404.82V188.811H1397.15V186.748H1415.21V188.811ZM1421.87 194.697H1428.18C1429.8 194.697 1431.21 194.994 1432.43 195.587C1433.66 196.167 1434.58 196.976 1435.2 198.015C1435.83 199.053 1436.15 200.26 1436.15 201.636C1436.15 203.753 1435.42 205.452 1433.97 206.733C1432.52 208 1430.57 208.634 1428.1 208.634H1419.46V186.748H1421.87V194.697ZM1421.87 196.761V206.591H1428.14C1429.88 206.591 1431.24 206.153 1432.23 205.276C1433.22 204.4 1433.72 203.2 1433.72 201.676C1433.72 200.22 1433.24 199.046 1432.27 198.156C1431.31 197.253 1429.99 196.788 1428.32 196.761H1421.87ZM1443.57 208.634H1441.15V186.748H1443.57V208.634Z" fill="#D3E0F4"></path> <path d="M1297.71 98.4752H1305.73C1309.77 98.4391 1312.97 97.3922 1315.31 95.3344C1317.7 93.2767 1318.89 90.2984 1318.89 86.3995C1318.89 82.645 1317.89 79.7388 1315.91 77.6811C1313.96 75.5872 1310.96 74.5403 1306.92 74.5403C1303.38 74.5403 1300.48 75.5692 1298.2 77.6269C1295.93 79.6486 1294.79 82.302 1294.79 85.5872H1281.63C1281.63 81.5439 1282.7 77.8616 1284.83 74.5403C1286.99 71.219 1289.99 68.6378 1293.81 66.7967C1297.68 64.9194 1301.99 63.9808 1306.76 63.9808C1314.63 63.9808 1320.8 65.9664 1325.28 69.9375C1329.79 73.8724 1332.05 79.3598 1332.05 86.3995C1332.05 89.9374 1330.91 93.2767 1328.63 96.4175C1326.4 99.5221 1323.49 101.869 1319.92 103.457C1324.25 104.937 1327.53 107.266 1329.77 110.443C1332.05 113.62 1333.18 117.41 1333.18 121.814C1333.18 128.89 1330.75 134.522 1325.87 138.71C1321.03 142.897 1314.66 144.991 1306.76 144.991C1299.18 144.991 1292.97 142.97 1288.13 138.926C1283.29 134.883 1280.87 129.504 1280.87 122.789H1294.03C1294.03 126.255 1295.19 129.071 1297.5 131.237C1299.84 133.403 1302.98 134.486 1306.92 134.486C1311 134.486 1314.21 133.403 1316.56 131.237C1318.9 129.071 1320.08 125.93 1320.08 121.814C1320.08 117.663 1318.85 114.468 1316.4 112.23C1313.94 109.991 1310.29 108.872 1305.46 108.872H1297.71V98.4752Z" fill="white"></path> <g filter="url(#filter14_f_114_181)"> <path d="M1244.76 64.5032H1166.85C1165.91 64.5032 1165.15 64.7503 1165.15 65.0555V90.4645C1165.15 90.7697 1165.91 91.0168 1166.85 91.0168H1244.76C1245.69 91.0168 1246.45 90.7697 1246.45 90.4645V65.0555C1246.45 64.7504 1245.69 64.5032 1244.76 64.5032ZM1243.98 88.998H1167.63V66.5221H1243.98V88.998Z" fill="white"></path> <path d="M1244.76 64.5032H1166.85C1165.91 64.5032 1165.15 64.7503 1165.15 65.0555V90.4645C1165.15 90.7697 1165.91 91.0168 1166.85 91.0168H1244.76C1245.69 91.0168 1246.45 90.7697 1246.45 90.4645V65.0555C1246.45 64.7504 1245.69 64.5032 1244.76 64.5032ZM1243.98 88.998H1167.63V66.5221H1243.98V88.998Z" stroke="#F9C84B" stroke-width="0.913462"></path> </g> <g filter="url(#filter15_f_114_181)"> <path d="M1204.51 96.502H1165.99C1165.53 96.502 1165.16 96.962 1165.16 97.5303V144.839C1165.16 145.407 1165.53 145.867 1165.99 145.867H1204.51C1204.97 145.867 1205.35 145.407 1205.35 144.839V97.5303C1205.35 96.9623 1204.97 96.502 1204.51 96.502ZM1202.76 142.896H1167.75V99.4731H1202.76V142.896Z" fill="white"></path> <path d="M1204.89 97.5301V97.5303V144.839C1204.89 145.247 1204.64 145.41 1204.51 145.41H1165.99C1165.87 145.41 1165.61 145.247 1165.61 144.839V97.5303C1165.61 97.122 1165.87 96.9587 1165.99 96.9587H1204.51C1204.64 96.9587 1204.89 97.1222 1204.89 97.5301ZM1202.76 143.353H1203.22V142.896V99.4731V99.0164H1202.76H1167.75H1167.29V99.4731V142.896V143.353H1167.75H1202.76Z" stroke="#F9C84B" stroke-width="0.913462"></path> </g> <g filter="url(#filter16_f_114_181)"> <path d="M1245.69 96.5005H1210.68C1210.26 96.5005 1209.92 96.7135 1209.92 96.9766V118.879C1209.92 119.142 1210.26 119.355 1210.68 119.355H1245.69C1246.11 119.355 1246.45 119.142 1246.45 118.879V96.9766C1246.45 96.7136 1246.11 96.5005 1245.69 96.5005ZM1244.02 116.574H1212.35V99.2811H1244.02V116.574Z" fill="white"></path> <path d="M1244.02 117.031H1244.47V116.574V99.2811V98.8244H1244.02H1212.35H1211.9V99.2811V116.574V117.031H1212.35H1244.02ZM1210.68 96.9572H1245.69C1245.83 96.9572 1245.93 96.9932 1245.99 97.0271C1245.99 97.029 1245.99 97.0307 1246 97.0324V118.823C1245.99 118.824 1245.99 118.826 1245.99 118.828C1245.93 118.862 1245.83 118.898 1245.69 118.898H1210.68C1210.54 118.898 1210.44 118.862 1210.38 118.828C1210.38 118.826 1210.38 118.824 1210.37 118.823V97.0325C1210.38 97.0308 1210.38 97.029 1210.38 97.0271C1210.44 96.9932 1210.54 96.9572 1210.68 96.9572ZM1246.02 97.0494C1246.02 97.0495 1246.02 97.0485 1246.02 97.0463C1246.02 97.0484 1246.02 97.0494 1246.02 97.0494ZM1246.02 118.806C1246.02 118.806 1246.02 118.807 1246.01 118.809C1246.02 118.807 1246.02 118.806 1246.02 118.806ZM1210.35 118.806C1210.35 118.806 1210.35 118.807 1210.36 118.809C1210.35 118.807 1210.35 118.806 1210.35 118.806ZM1210.35 97.0495C1210.35 97.0494 1210.35 97.0484 1210.36 97.0464C1210.35 97.0485 1210.35 97.0495 1210.35 97.0495Z" stroke="#F9C84B" stroke-width="0.913462"></path> </g> <g filter="url(#filter17_f_114_181)"> <path d="M1245.69 123.928H1210.68C1210.26 123.928 1209.92 124.133 1209.92 124.385V145.411C1209.92 145.664 1210.26 145.868 1210.68 145.868H1245.69C1246.11 145.868 1246.45 145.664 1246.45 145.411V124.385C1246.45 124.133 1246.11 123.928 1245.69 123.928ZM1244.02 143.126H1212.35V126.671H1244.02V143.126Z" fill="white"></path> <path d="M1244.02 143.583H1244.47V143.126V126.671V126.214H1244.02H1212.35H1211.9V126.671V143.126V143.583H1212.35H1244.02ZM1210.68 124.385H1245.69C1245.83 124.385 1245.94 124.42 1246 124.454C1246 124.454 1246 124.454 1246 124.454V145.342C1246 145.342 1246 145.343 1246 145.343C1245.94 145.376 1245.83 145.412 1245.69 145.412H1210.68C1210.54 145.412 1210.43 145.376 1210.37 145.343C1210.37 145.343 1210.37 145.342 1210.37 145.342V124.454C1210.37 124.454 1210.37 124.454 1210.37 124.454C1210.43 124.42 1210.54 124.385 1210.68 124.385ZM1246.02 124.475C1246.02 124.475 1246.02 124.474 1246.02 124.471C1246.02 124.473 1246.02 124.475 1246.02 124.475ZM1246.02 145.322C1246.02 145.322 1246.02 145.323 1246.02 145.325C1246.02 145.323 1246.02 145.322 1246.02 145.322ZM1210.35 145.322C1210.35 145.322 1210.35 145.323 1210.35 145.325C1210.35 145.323 1210.35 145.322 1210.35 145.322ZM1210.35 124.475C1210.35 124.475 1210.35 124.473 1210.35 124.471C1210.35 124.474 1210.35 124.475 1210.35 124.475Z" stroke="#F9C84B" stroke-width="0.913462"></path> </g> <path d="M1628.6 188.832H1617.54V208.635H1615.11V186.749H1628.6V188.832ZM1630.7 197.368C1630.7 195.265 1631.11 193.37 1631.92 191.685C1632.74 189.999 1633.89 188.691 1635.38 187.76C1636.87 186.816 1638.57 186.344 1640.45 186.344C1643.37 186.344 1645.73 187.369 1647.53 189.419C1649.34 191.455 1650.24 194.159 1650.24 197.53V198.036C1650.24 200.153 1649.83 202.061 1649.01 203.76C1648.2 205.446 1647.05 206.747 1645.57 207.664C1644.09 208.581 1642.4 209.04 1640.49 209.04C1637.59 209.04 1635.24 208.022 1633.41 205.985C1631.61 203.936 1630.7 201.225 1630.7 197.854V197.368ZM1633.13 198.036C1633.13 200.652 1633.81 202.803 1635.15 204.489C1636.52 206.161 1638.3 206.997 1640.49 206.997C1642.68 206.997 1644.45 206.161 1645.79 204.489C1647.16 202.803 1647.84 200.585 1647.84 197.834V197.368C1647.84 195.696 1647.53 194.166 1646.91 192.777C1646.29 191.388 1645.42 190.316 1644.3 189.561C1643.18 188.792 1641.9 188.408 1640.45 188.408C1638.3 188.408 1636.54 189.257 1635.17 190.956C1633.81 192.642 1633.13 194.854 1633.13 197.591V198.036ZM1663.35 206.997C1665.04 206.997 1666.45 206.525 1667.58 205.581C1668.73 204.623 1669.35 203.39 1669.44 201.879H1671.77C1671.7 203.214 1671.28 204.435 1670.51 205.54C1669.74 206.633 1668.72 207.489 1667.44 208.109C1666.17 208.73 1664.81 209.04 1663.35 209.04C1660.48 209.04 1658.2 208.042 1656.51 206.046C1654.84 204.05 1654.01 201.367 1654.01 197.996V197.267C1654.01 195.11 1654.38 193.202 1655.14 191.543C1655.89 189.884 1656.97 188.603 1658.38 187.7C1659.79 186.796 1661.44 186.344 1663.33 186.344C1665.73 186.344 1667.71 187.059 1669.26 188.489C1670.82 189.918 1671.66 191.799 1671.77 194.132H1669.44C1669.33 192.419 1668.71 191.037 1667.58 189.985C1666.46 188.934 1665.04 188.408 1663.33 188.408C1661.15 188.408 1659.45 189.197 1658.23 190.774C1657.03 192.352 1656.43 194.564 1656.43 197.409V198.117C1656.43 200.908 1657.03 203.086 1658.23 204.65C1659.45 206.215 1661.15 206.997 1663.35 206.997ZM1692.34 188.812H1684.37V208.635H1681.94V188.812H1674.27V186.749H1692.34V188.812ZM1703.18 209.04C1701.32 209.04 1699.63 208.581 1698.12 207.664C1696.63 206.747 1695.46 205.473 1694.62 203.841C1693.79 202.196 1693.37 200.355 1693.37 198.319V197.449C1693.37 195.346 1693.77 193.451 1694.58 191.765C1695.41 190.08 1696.54 188.758 1698 187.801C1699.46 186.83 1701.04 186.344 1702.73 186.344C1705.39 186.344 1707.49 187.255 1709.05 189.075C1710.61 190.882 1711.39 193.357 1711.39 196.499V197.854H1695.78V198.319C1695.78 200.8 1696.48 202.87 1697.9 204.529C1699.33 206.174 1701.12 206.997 1703.28 206.997C1704.58 206.997 1705.71 206.761 1706.7 206.289C1707.7 205.817 1708.6 205.062 1709.41 204.023L1710.93 205.176C1709.15 207.752 1706.56 209.04 1703.18 209.04ZM1702.73 188.408C1700.91 188.408 1699.38 189.075 1698.12 190.41C1696.88 191.745 1696.13 193.539 1695.86 195.791H1708.98V195.528C1708.92 193.424 1708.32 191.712 1707.18 190.39C1706.05 189.068 1704.57 188.408 1702.73 188.408ZM1730.49 186.749H1732.91V208.635H1730.49V190.653L1718.67 208.635H1716.27V186.749H1718.67V204.752L1730.49 186.749ZM1730.37 178.86C1730.37 180.411 1729.83 181.665 1728.77 182.623C1727.72 183.58 1726.3 184.059 1724.52 184.059C1722.77 184.059 1721.35 183.587 1720.27 182.643C1719.21 181.685 1718.67 180.425 1718.67 178.86H1720.74C1720.74 179.98 1721.07 180.836 1721.73 181.429C1722.4 182.022 1723.33 182.319 1724.52 182.319C1725.71 182.319 1726.63 182.009 1727.29 181.389C1727.97 180.768 1728.3 179.926 1728.3 178.86H1730.37Z" fill="#D3E0F4"></path> <path d="M1662.23 115.805H1672.03V126.364H1662.23V143.909H1649.07V126.364H1615.01L1614.63 118.35L1648.63 65.0648H1662.23V115.805ZM1628.44 115.805H1649.07V82.8806L1648.09 84.6134L1628.44 115.805ZM1711.99 100.534H1732.57V112.556H1711.99V136.003H1699.21V112.556H1678.53V100.534H1699.21V78.6026H1711.99V100.534ZM1778.22 143.909H1765.11V80.6062L1745.78 87.2127V76.1117L1776.54 64.794H1778.22V143.909Z" fill="white"></path> <g filter="url(#filter18_f_114_181)"> <path d="M1552.52 64.5042H1517.99C1517.06 64.5042 1516.3 64.7513 1516.3 65.0565V90.4654C1516.3 90.7706 1517.06 91.0177 1517.99 91.0177H1552.52C1553.45 91.0177 1554.21 90.7706 1554.21 90.4654V65.0565C1554.21 64.7514 1553.45 64.5042 1552.52 64.5042ZM1551.74 88.9989H1518.77V66.5231H1551.74V88.9989Z" fill="white"></path> <path d="M1552.52 64.5042H1517.99C1517.06 64.5042 1516.3 64.7513 1516.3 65.0565V90.4654C1516.3 90.7706 1517.06 91.0177 1517.99 91.0177H1552.52C1553.45 91.0177 1554.21 90.7706 1554.21 90.4654V65.0565C1554.21 64.7514 1553.45 64.5042 1552.52 64.5042ZM1551.74 88.9989H1518.77V66.5231H1551.74V88.9989Z" stroke="#F9C84B" stroke-width="0.913462"></path> </g> <g filter="url(#filter19_f_114_181)"> <path d="M1558.95 96.5029H1511.58C1511.12 96.5029 1510.75 96.963 1510.75 97.5313L1499.64 144.84C1499.64 145.408 1500.01 145.868 1500.48 145.868H1570.05C1570.52 145.868 1570.89 145.408 1570.89 144.84L1559.78 97.5313C1559.79 96.9633 1559.41 96.5029 1558.95 96.5029ZM1568.31 142.897H1502.23L1513.33 99.4741H1557.2L1568.31 142.897Z" fill="white"></path> <path d="M1511.19 97.6357L1511.2 97.5842V97.5313C1511.2 97.1226 1511.46 96.9597 1511.58 96.9597H1558.95C1559.07 96.9597 1559.33 97.1228 1559.33 97.5311L1559.33 97.5841L1559.34 97.6357L1570.43 144.888C1570.41 145.261 1570.18 145.411 1570.05 145.411H1500.48C1500.36 145.411 1500.12 145.261 1500.1 144.888L1511.19 97.6357ZM1568.31 143.354H1568.89L1568.75 142.784L1557.64 99.3609L1557.55 99.0174H1557.2H1513.33H1512.98L1512.89 99.3609L1501.78 142.784L1501.64 143.354H1502.23H1568.31Z" stroke="#F9C84B" stroke-width="0.913462"></path> </g> </g> <defs> <filter id="filter0_f_114_181" x="8.78056" y="34.3501" width="92.4906" height="92.4909" filterUnits="userSpaceOnUse" color-interpolation-filters="sRGB"> <feFlood flood-opacity="0" result="BackgroundImageFix"></feFlood> <feBlend mode="normal" in="SourceGraphic" in2="BackgroundImageFix" result="shape"></feBlend> <feGaussianBlur stdDeviation="1.11168" result="effect1_foregroundBlur_114_181"></feGaussianBlur> </filter> <filter id="filter1_f_114_181" x="8.78056" y="23.3453" width="8.11467" height="13.6176" filterUnits="userSpaceOnUse" color-interpolation-filters="sRGB"> <feFlood flood-opacity="0" result="BackgroundImageFix"></feFlood> <feBlend mode="normal" in="SourceGraphic" in2="BackgroundImageFix" result="shape"></feBlend> <feGaussianBlur stdDeviation="1.11168" result="effect1_foregroundBlur_114_181"></feGaussianBlur> </filter> <filter id="filter2_f_114_181" x="-2.22335" y="34.3501" width="13.6176" height="8.11491" filterUnits="userSpaceOnUse" color-interpolation-filters="sRGB"> <feFlood flood-opacity="0" result="BackgroundImageFix"></feFlood> <feBlend mode="normal" in="SourceGraphic" in2="BackgroundImageFix" result="shape"></feBlend> <feGaussianBlur stdDeviation="1.11168" result="effect1_foregroundBlur_114_181"></feGaussianBlur> </filter> <filter id="filter3_f_114_181" x="-2.22335" y="118.727" width="13.6176" height="8.11491" filterUnits="userSpaceOnUse" color-interpolation-filters="sRGB"> <feFlood flood-opacity="0" result="BackgroundImageFix"></feFlood> <feBlend mode="normal" in="SourceGraphic" in2="BackgroundImageFix" result="shape"></feBlend> <feGaussianBlur stdDeviation="1.11168" result="effect1_foregroundBlur_114_181"></feGaussianBlur> </filter> <filter id="filter4_f_114_181" x="8.78056" y="124.23" width="8.11467" height="13.6176" filterUnits="userSpaceOnUse" color-interpolation-filters="sRGB"> <feFlood flood-opacity="0" result="BackgroundImageFix"></feFlood> <feBlend mode="normal" in="SourceGraphic" in2="BackgroundImageFix" result="shape"></feBlend> <feGaussianBlur stdDeviation="1.11168" result="effect1_foregroundBlur_114_181"></feGaussianBlur> </filter> <filter id="filter5_f_114_181" x="93.1595" y="124.23" width="8.11467" height="13.6176" filterUnits="userSpaceOnUse" color-interpolation-filters="sRGB"> <feFlood flood-opacity="0" result="BackgroundImageFix"></feFlood> <feBlend mode="normal" in="SourceGraphic" in2="BackgroundImageFix" result="shape"></feBlend> <feGaussianBlur stdDeviation="1.11168" result="effect1_foregroundBlur_114_181"></feGaussianBlur> </filter> <filter id="filter6_f_114_181" x="98.6643" y="118.726" width="13.6176" height="8.11491" filterUnits="userSpaceOnUse" color-interpolation-filters="sRGB"> <feFlood flood-opacity="0" result="BackgroundImageFix"></feFlood> <feBlend mode="normal" in="SourceGraphic" in2="BackgroundImageFix" result="shape"></feBlend> <feGaussianBlur stdDeviation="1.11168" result="effect1_foregroundBlur_114_181"></feGaussianBlur> </filter> <filter id="filter7_f_114_181" x="98.6643" y="34.3506" width="13.6176" height="8.11491" filterUnits="userSpaceOnUse" color-interpolation-filters="sRGB"> <feFlood flood-opacity="0" result="BackgroundImageFix"></feFlood> <feBlend mode="normal" in="SourceGraphic" in2="BackgroundImageFix" result="shape"></feBlend> <feGaussianBlur stdDeviation="1.11168" result="effect1_foregroundBlur_114_181"></feGaussianBlur> </filter> <filter id="filter8_f_114_181" x="93.1595" y="23.3453" width="8.11467" height="13.6176" filterUnits="userSpaceOnUse" color-interpolation-filters="sRGB"> <feFlood flood-opacity="0" result="BackgroundImageFix"></feFlood> <feBlend mode="normal" in="SourceGraphic" in2="BackgroundImageFix" result="shape"></feBlend> <feGaussianBlur stdDeviation="1.11168" result="effect1_foregroundBlur_114_181"></feGaussianBlur> </filter> <filter id="filter9_f_114_181" x="641.947" y="62.6772" width="84.9283" height="85.0184" filterUnits="userSpaceOnUse" color-interpolation-filters="sRGB"> <feFlood flood-opacity="0" result="BackgroundImageFix"></feFlood> <feBlend mode="normal" in="SourceGraphic" in2="BackgroundImageFix" result="shape"></feBlend> <feGaussianBlur stdDeviation="0.913462" result="effect1_foregroundBlur_114_181"></feGaussianBlur> </filter> <filter id="filter10_f_114_181" x="711.626" y="62.7805" width="7.04154" height="83.0152" filterUnits="userSpaceOnUse" color-interpolation-filters="sRGB"> <feFlood flood-opacity="0" result="BackgroundImageFix"></feFlood> <feBlend mode="normal" in="SourceGraphic" in2="BackgroundImageFix" result="shape"></feBlend> <feGaussianBlur stdDeviation="0.913462" result="effect1_foregroundBlur_114_181"></feGaussianBlur> </filter> <filter id="filter11_f_114_181" x="691.514" y="62.7803" width="7.03959" height="83.0152" filterUnits="userSpaceOnUse" color-interpolation-filters="sRGB"> <feFlood flood-opacity="0" result="BackgroundImageFix"></feFlood> <feBlend mode="normal" in="SourceGraphic" in2="BackgroundImageFix" result="shape"></feBlend> <feGaussianBlur stdDeviation="0.913462" result="effect1_foregroundBlur_114_181"></feGaussianBlur> </filter> <filter id="filter12_f_114_181" x="671.4" y="62.7803" width="7.04154" height="83.0152" filterUnits="userSpaceOnUse" color-interpolation-filters="sRGB"> <feFlood flood-opacity="0" result="BackgroundImageFix"></feFlood> <feBlend mode="normal" in="SourceGraphic" in2="BackgroundImageFix" result="shape"></feBlend> <feGaussianBlur stdDeviation="0.913462" result="effect1_foregroundBlur_114_181"></feGaussianBlur> </filter> <filter id="filter13_f_114_181" x="651.282" y="62.7805" width="7.03959" height="83.0152" filterUnits="userSpaceOnUse" color-interpolation-filters="sRGB"> <feFlood flood-opacity="0" result="BackgroundImageFix"></feFlood> <feBlend mode="normal" in="SourceGraphic" in2="BackgroundImageFix" result="shape"></feBlend> <feGaussianBlur stdDeviation="0.913462" result="effect1_foregroundBlur_114_181"></feGaussianBlur> </filter> <filter id="filter14_f_114_181" x="1162.87" y="62.2195" width="85.8648" height="31.0809" filterUnits="userSpaceOnUse" color-interpolation-filters="sRGB"> <feFlood flood-opacity="0" result="BackgroundImageFix"></feFlood> <feBlend mode="normal" in="SourceGraphic" in2="BackgroundImageFix" result="shape"></feBlend> <feGaussianBlur stdDeviation="0.913462" result="effect1_foregroundBlur_114_181"></feGaussianBlur> </filter> <filter id="filter15_f_114_181" x="1163.33" y="94.675" width="43.8443" height="53.0191" filterUnits="userSpaceOnUse" color-interpolation-filters="sRGB"> <feFlood flood-opacity="0" result="BackgroundImageFix"></feFlood> <feBlend mode="normal" in="SourceGraphic" in2="BackgroundImageFix" result="shape"></feBlend> <feGaussianBlur stdDeviation="0.913462" result="effect1_foregroundBlur_114_181"></feGaussianBlur> </filter> <filter id="filter16_f_114_181" x="1208.09" y="94.6736" width="40.19" height="26.5081" filterUnits="userSpaceOnUse" color-interpolation-filters="sRGB"> <feFlood flood-opacity="0" result="BackgroundImageFix"></feFlood> <feBlend mode="normal" in="SourceGraphic" in2="BackgroundImageFix" result="shape"></feBlend> <feGaussianBlur stdDeviation="0.913462" result="effect1_foregroundBlur_114_181"></feGaussianBlur> </filter> <filter id="filter17_f_114_181" x="1208.09" y="122.101" width="40.19" height="25.594" filterUnits="userSpaceOnUse" color-interpolation-filters="sRGB"> <feFlood flood-opacity="0" result="BackgroundImageFix"></feFlood> <feBlend mode="normal" in="SourceGraphic" in2="BackgroundImageFix" result="shape"></feBlend> <feGaussianBlur stdDeviation="0.913462" result="effect1_foregroundBlur_114_181"></feGaussianBlur> </filter> <filter id="filter18_f_114_181" x="1514.01" y="62.2204" width="42.4771" height="31.0809" filterUnits="userSpaceOnUse" color-interpolation-filters="sRGB"> <feFlood flood-opacity="0" result="BackgroundImageFix"></feFlood> <feBlend mode="normal" in="SourceGraphic" in2="BackgroundImageFix" result="shape"></feBlend> <feGaussianBlur stdDeviation="0.913462" result="effect1_foregroundBlur_114_181"></feGaussianBlur> </filter> <filter id="filter19_f_114_181" x="1497.81" y="94.676" width="74.9038" height="53.0191" filterUnits="userSpaceOnUse" color-interpolation-filters="sRGB"> <feFlood flood-opacity="0" result="BackgroundImageFix"></feFlood> <feBlend mode="normal" in="SourceGraphic" in2="BackgroundImageFix" result="shape"></feBlend> <feGaussianBlur stdDeviation="0.913462" result="effect1_foregroundBlur_114_181"></feGaussianBlur> </filter> <clipPath id="clip0_114_181"> <rect width="1800" height="275" fill="white"></rect> </clipPath> </defs> </svg> 