<?xml version="1.0" encoding="UTF-8"?> <svg xmlns="http://www.w3.org/2000/svg" width="1619" height="197" viewBox="0 0 1619 197" fill="none"> <g clip-path="url(#clip0_112_92)"> <path d="M147.993 173.666C147.993 171.363 148.436 169.289 149.322 167.443C150.222 165.598 151.484 164.166 153.108 163.148C154.747 162.114 156.6 161.597 158.666 161.597C161.855 161.597 164.438 162.719 166.417 164.963C168.395 167.192 169.384 170.152 169.384 173.843V174.397C169.384 176.714 168.934 178.803 168.033 180.663C167.147 182.509 165.893 183.933 164.269 184.937C162.645 185.941 160.792 186.443 158.711 186.443C155.537 186.443 152.953 185.328 150.96 183.099C148.982 180.855 147.993 177.888 147.993 174.197V173.666ZM150.65 174.397C150.65 177.261 151.388 179.615 152.865 181.461C154.356 183.291 156.304 184.206 158.711 184.206C161.102 184.206 163.036 183.291 164.512 181.461C166.003 179.615 166.749 177.187 166.749 174.175V173.666C166.749 171.835 166.409 170.16 165.73 168.639C165.051 167.119 164.099 165.945 162.874 165.118C161.648 164.277 160.246 163.856 158.666 163.856C156.304 163.856 154.378 164.786 152.887 166.646C151.396 168.492 150.65 170.913 150.65 173.909V174.397ZM184.53 163.635C187.571 163.635 190.037 164.631 191.926 166.624C193.816 168.602 194.761 171.23 194.761 174.507V175.083C194.761 177.253 194.325 179.209 193.454 180.951C192.598 182.678 191.358 184.029 189.734 185.004C188.125 185.963 186.272 186.443 184.176 186.443C181.017 186.443 178.456 185.395 176.492 183.298C174.543 181.187 173.569 178.375 173.569 174.862V172.736C173.569 167.776 174.514 163.812 176.404 160.845C178.293 157.877 180.98 156.106 184.464 155.53C186.664 155.176 188.206 154.696 189.092 154.091C189.992 153.485 190.443 152.659 190.443 151.611H192.724C192.724 152.851 192.465 153.877 191.949 154.689C191.432 155.501 190.657 156.157 189.623 156.659C188.59 157.147 187.01 157.56 184.885 157.899C182.449 158.283 180.485 159.324 178.994 161.022C177.518 162.705 176.559 164.963 176.116 167.798C177.06 166.558 178.241 165.554 179.659 164.786C181.091 164.019 182.715 163.635 184.53 163.635ZM176.226 174.529V175.083C176.226 177.785 176.957 179.984 178.419 181.682C179.88 183.365 181.799 184.206 184.176 184.206C186.568 184.206 188.487 183.357 189.933 181.66C191.38 179.947 192.104 177.703 192.104 174.928V174.352C192.104 171.857 191.365 169.82 189.889 168.241C188.428 166.661 186.509 165.871 184.132 165.871C181.755 165.871 179.843 166.676 178.396 168.285C176.95 169.879 176.226 171.961 176.226 174.529ZM202.157 162.04V183.763H212.83V162.04H215.487V183.763H226.028V162.04H228.685V183.763H231.564L231.365 193.108H228.929V186H199.5V162.04H202.157ZM251.604 162.04H254.261V186H251.604V166.314L238.672 186H236.037V162.04H238.672V181.748L251.604 162.04ZM277.114 162.04H279.771V186H277.114V166.314L264.182 186H261.547V162.04H264.182V181.748L277.114 162.04ZM276.981 153.404C276.981 155.102 276.398 156.475 275.232 157.523C274.08 158.571 272.53 159.095 270.581 159.095C268.662 159.095 267.112 158.579 265.931 157.545C264.765 156.497 264.182 155.117 264.182 153.404H266.441C266.441 154.63 266.802 155.567 267.526 156.216C268.264 156.866 269.282 157.191 270.581 157.191C271.881 157.191 272.892 156.851 273.615 156.172C274.353 155.493 274.722 154.57 274.722 153.404H276.981ZM311.171 182.413L320.693 162.04H323.97V186H321.313V166.336L312.101 186H310.219L300.83 165.893V186H298.195V162.04H301.671L311.171 182.413ZM340.357 186.443C338.32 186.443 336.474 185.941 334.821 184.937C333.182 183.933 331.905 182.538 330.99 180.752C330.075 178.951 329.617 176.936 329.617 174.707V173.754C329.617 171.451 330.06 169.377 330.946 167.532C331.846 165.687 333.094 164.24 334.688 163.192C336.282 162.129 338.009 161.597 339.87 161.597C342.778 161.597 345.081 162.594 346.778 164.587C348.491 166.565 349.347 169.274 349.347 172.714V174.197H332.252V174.707C332.252 177.423 333.027 179.689 334.577 181.505C336.142 183.306 338.105 184.206 340.467 184.206C341.885 184.206 343.132 183.948 344.21 183.431C345.302 182.915 346.291 182.088 347.177 180.951L348.838 182.213C346.889 185.033 344.062 186.443 340.357 186.443ZM339.87 163.856C337.877 163.856 336.194 164.587 334.821 166.048C333.463 167.51 332.636 169.473 332.341 171.939H346.712V171.651C346.638 169.348 345.981 167.473 344.741 166.026C343.501 164.579 341.877 163.856 339.87 163.856ZM371.447 164.299H362.722V186H360.065V164.299H351.672V162.04H371.447V164.299ZM395.074 174.264C395.074 177.999 394.248 180.966 392.594 183.166C390.941 185.35 388.726 186.443 385.951 186.443C382.674 186.443 380.164 185.291 378.422 182.988V195.212H375.787V162.04H378.245L378.378 165.428C380.105 162.874 382.607 161.597 385.885 161.597C388.748 161.597 390.992 162.683 392.616 164.853C394.255 167.023 395.074 170.034 395.074 173.887V174.264ZM392.417 173.799C392.417 170.743 391.79 168.329 390.535 166.558C389.28 164.786 387.531 163.9 385.287 163.9C383.663 163.9 382.268 164.292 381.101 165.074C379.935 165.856 379.042 166.993 378.422 168.484V179.977C379.057 181.35 379.965 182.398 381.146 183.121C382.327 183.845 383.722 184.206 385.331 184.206C387.56 184.206 389.295 183.321 390.535 181.549C391.79 179.763 392.417 177.179 392.417 173.799ZM416.089 186C415.823 185.247 415.653 184.133 415.579 182.656C414.649 183.867 413.461 184.804 412.014 185.469C410.582 186.118 409.062 186.443 407.453 186.443C405.15 186.443 403.282 185.801 401.85 184.516C400.433 183.232 399.724 181.608 399.724 179.645C399.724 177.312 400.691 175.467 402.625 174.109C404.574 172.751 407.283 172.072 410.752 172.072H415.557V169.348C415.557 167.635 415.026 166.292 413.963 165.318C412.915 164.329 411.38 163.834 409.357 163.834C407.512 163.834 405.984 164.306 404.773 165.251C403.563 166.196 402.957 167.333 402.957 168.661L400.3 168.639C400.3 166.735 401.186 165.089 402.957 163.701C404.729 162.299 406.906 161.597 409.49 161.597C412.162 161.597 414.266 162.269 415.801 163.613C417.351 164.941 418.148 166.801 418.192 169.193V180.53C418.192 182.848 418.436 184.583 418.923 185.734V186H416.089ZM407.763 184.096C409.534 184.096 411.114 183.668 412.501 182.811C413.904 181.955 414.923 180.811 415.557 179.379V174.109H410.819C408.176 174.138 406.109 174.625 404.618 175.57C403.127 176.5 402.382 177.785 402.382 179.423C402.382 180.767 402.876 181.881 403.865 182.767C404.869 183.653 406.168 184.096 407.763 184.096ZM443.591 174.928H440.403V186H437.746V174.928H434.579L425.721 186H422.356L432.276 173.71L423.463 162.04H426.674L434.535 172.559H437.746V162.04H440.403V172.559H443.636L451.497 162.04H454.752L445.894 173.71L455.837 186H452.449L443.591 174.928Z" fill="#D3E0F4"></path> <path d="M209.905 35.6892L175.404 114H160.287L194.729 39.2461H150.09V27.6862H209.905V35.6892ZM278.909 35.6892L244.407 114H229.29L263.733 39.2461H219.094V27.6862H278.909V35.6892ZM359.71 96.2748L378.68 49.8575H396.701V114H382.296V71.5545L364.63 114H354.849L337.123 71.3174V114H322.718V49.8575H340.858L359.71 96.2748ZM446.438 74.4593H410.158V67.0491L427.053 51.5766C431.519 47.506 433.752 44.1467 433.752 41.4988C433.752 39.8389 433.219 38.4952 432.152 37.4677C431.084 36.4006 429.523 35.8671 427.468 35.8671C425.176 35.8671 423.378 36.5192 422.074 37.8234C420.769 39.1275 420.117 40.8467 420.117 42.9808H409.091C409.091 38.3964 410.751 34.6024 414.071 31.5988C417.43 28.5557 421.777 27.0341 427.113 27.0341C432.764 27.0341 437.131 28.2988 440.214 30.8281C443.296 33.3575 444.838 36.8946 444.838 41.4395C444.838 45.6683 442.743 49.7982 438.554 53.8293L432.744 58.9868L424.445 65.6856H446.438V74.4593Z" fill="white"></path> <g filter="url(#filter0_f_112_92)"> <path d="M87.4496 32.8999H11.5493C10.6376 32.8999 9.89941 33.6381 9.89941 34.5497V110.45C9.89941 111.361 10.6376 112.099 11.5493 112.099H87.4491C88.3608 112.099 89.0989 111.361 89.0989 110.45V34.5497C89.0994 33.6385 88.3613 32.8999 87.4496 32.8999ZM85.7997 108.8H85.7992H13.1996V36.2001H85.7997V108.8Z" fill="white"></path> <path d="M88.5989 34.5495V34.5497V110.45C88.5989 111.085 88.0846 111.599 87.4491 111.599H11.5493C10.9137 111.599 10.3994 111.085 10.3994 110.45V34.5497C10.3994 33.9142 10.9137 33.3999 11.5493 33.3999H87.4496C88.0851 33.3999 88.5993 33.9146 88.5989 34.5495ZM85.7997 109.3H86.2997V108.8V36.2001V35.7001H85.7997H13.1996H12.6996V36.2001V108.8V109.3H13.1996H85.7992H85.7997Z" stroke="#F9C84B"></path> </g> <g filter="url(#filter1_f_112_92)"> <path d="M11.5493 23C10.6376 23 9.89941 23.7381 9.89941 24.6498V29.5998C9.89941 30.5115 10.6376 31.2497 11.5493 31.2497C12.4609 31.2497 13.1991 30.5115 13.1991 29.5998V24.6503C13.1996 23.7381 12.4609 23 11.5493 23Z" fill="white"></path> <path d="M12.6991 24.6501V24.6503V29.5998C12.6991 30.2354 12.1848 30.7497 11.5493 30.7497C10.9137 30.7497 10.3994 30.2354 10.3994 29.5998V24.6498C10.3994 24.0143 10.9137 23.5 11.5493 23.5C12.1849 23.5 12.6994 24.0144 12.6991 24.6501Z" stroke="#F9C84B"></path> </g> <g filter="url(#filter2_f_112_92)"> <path d="M6.59984 32.8999H1.64984C0.738149 32.8999 0 33.6385 0 34.5497C0 35.4609 0.738149 36.1996 1.64984 36.1996H6.59984C7.51153 36.1996 8.24968 35.4614 8.24968 34.5497C8.24968 33.6381 7.51153 32.8999 6.59984 32.8999Z" fill="white"></path> <path d="M1.64984 33.3999H6.59984C7.23538 33.3999 7.74968 33.9142 7.74968 34.5497C7.74968 35.1853 7.23538 35.6996 6.59984 35.6996H1.64984C1.01439 35.6996 0.5 35.1849 0.5 34.5497C0.5 33.9146 1.01439 33.3999 1.64984 33.3999Z" stroke="#F9C84B"></path> </g> <g filter="url(#filter3_f_112_92)"> <path d="M6.59984 108.8H1.64984C0.738149 108.8 0 109.538 0 110.449C0 111.361 0.738149 112.099 1.64984 112.099H6.59984C7.51153 112.099 8.24968 111.361 8.24968 110.449C8.24968 109.538 7.51153 108.8 6.59984 108.8Z" fill="white"></path> <path d="M1.64984 109.3H6.59984C7.23538 109.3 7.74968 109.814 7.74968 110.449C7.74968 111.085 7.23539 111.599 6.59984 111.599H1.64984C1.01429 111.599 0.5 111.085 0.5 110.449C0.5 109.814 1.01429 109.3 1.64984 109.3Z" stroke="#F9C84B"></path> </g> <g filter="url(#filter4_f_112_92)"> <path d="M11.5493 113.75C10.6376 113.75 9.89941 114.488 9.89941 115.4V120.35C9.89941 121.261 10.6376 121.999 11.5493 121.999C12.4609 121.999 13.1991 121.261 13.1991 120.35V115.4C13.1996 114.488 12.4609 113.75 11.5493 113.75Z" fill="white"></path> <path d="M12.6991 115.399V115.4V120.35C12.6991 120.985 12.1848 121.499 11.5493 121.499C10.9137 121.499 10.3994 120.985 10.3994 120.35V115.4C10.3994 114.764 10.9138 114.25 11.5493 114.25C12.1849 114.25 12.6994 114.765 12.6991 115.399Z" stroke="#F9C84B"></path> </g> <g filter="url(#filter5_f_112_92)"> <path d="M87.4491 113.75C86.5375 113.75 85.7993 114.488 85.7993 115.4V120.35C85.7993 121.261 86.5375 121.999 87.4491 121.999C88.3608 121.999 89.099 121.261 89.099 120.35V115.4C89.099 114.488 88.3608 113.75 87.4491 113.75Z" fill="white"></path> <path d="M86.2993 115.4C86.2993 114.764 86.8137 114.25 87.4491 114.25C88.0846 114.25 88.599 114.764 88.599 115.4V120.35C88.599 120.985 88.0847 121.499 87.4491 121.499C86.8136 121.499 86.2993 120.985 86.2993 120.35V115.4Z" stroke="#F9C84B"></path> </g> <g filter="url(#filter6_f_112_92)"> <path d="M97.3503 108.8H92.4003C91.4886 108.8 90.7505 109.538 90.7505 110.449C90.7505 111.361 91.4891 112.099 92.4003 112.099H97.3503C98.262 112.099 99.0002 111.361 99.0002 110.449C99.0002 109.538 98.262 108.8 97.3503 108.8Z" fill="white"></path> <path d="M92.4003 109.3H97.3503C97.9859 109.3 98.5002 109.814 98.5002 110.449C98.5002 111.085 97.9859 111.599 97.3503 111.599H92.4003C91.7652 111.599 91.2505 111.085 91.2505 110.449C91.2505 109.814 91.7648 109.3 92.4003 109.3Z" stroke="#F9C84B"></path> </g> <g filter="url(#filter7_f_112_92)"> <path d="M97.3503 32.8999H92.4003C91.4886 32.8999 90.7505 33.6381 90.7505 34.5497C90.7505 35.4614 91.4891 36.1996 92.4003 36.1996H97.3503C98.262 36.1996 99.0002 35.4614 99.0002 34.5497C99.0002 33.6381 98.262 32.8999 97.3503 32.8999Z" fill="white"></path> <path d="M92.4003 33.3999H97.3503C97.9859 33.3999 98.5002 33.9142 98.5002 34.5497C98.5002 35.1853 97.9859 35.6996 97.3503 35.6996H92.4003C91.7652 35.6996 91.2505 35.1852 91.2505 34.5497C91.2505 33.9142 91.7648 33.3999 92.4003 33.3999Z" stroke="#F9C84B"></path> </g> <g filter="url(#filter8_f_112_92)"> <path d="M87.4491 23C86.5375 23 85.7993 23.7381 85.7993 24.6498V29.5998C85.7993 30.5115 86.5375 31.2497 87.4491 31.2497C88.3608 31.2497 89.099 30.5115 89.099 29.5998V24.6503C89.099 23.7381 88.3608 23 87.4491 23Z" fill="white"></path> <path d="M86.2993 24.6498C86.2993 24.0143 86.8136 23.5 87.4491 23.5C88.0846 23.5 88.599 24.0142 88.599 24.6503V29.5998C88.599 30.2354 88.0847 30.7497 87.4491 30.7497C86.8136 30.7497 86.2993 30.2354 86.2993 29.5998V24.6498Z" stroke="#F9C84B"></path> </g> <path d="M693.059 184.646L700.883 167.906H703.576V187.594H701.393V171.436L693.823 187.594H692.277L684.562 171.072V187.594H682.396V167.906H685.253L693.059 184.646ZM717.041 187.958C715.367 187.958 713.85 187.545 712.492 186.72C711.145 185.895 710.096 184.749 709.344 183.281C708.592 181.801 708.216 180.146 708.216 178.314V177.532C708.216 175.639 708.58 173.935 709.308 172.419C710.048 170.902 711.073 169.714 712.383 168.852C713.693 167.979 715.112 167.542 716.64 167.542C719.03 167.542 720.922 168.361 722.317 169.999C723.725 171.624 724.428 173.85 724.428 176.676V177.895H710.381V178.314C710.381 180.546 711.018 182.408 712.292 183.9C713.578 185.38 715.191 186.12 717.132 186.12C718.296 186.12 719.321 185.908 720.207 185.483C721.104 185.058 721.917 184.379 722.645 183.445L724.01 184.482C722.408 186.799 720.085 187.958 717.041 187.958ZM716.64 169.398C715.003 169.398 713.62 169.999 712.492 171.2C711.376 172.4 710.697 174.014 710.454 176.04H722.263V175.803C722.202 173.911 721.662 172.37 720.643 171.181C719.625 169.993 718.29 169.398 716.64 169.398ZM742.587 169.762H735.418V187.594H733.235V169.762H726.339V167.906H742.587V169.762ZM762.002 177.95C762.002 181.019 761.323 183.457 759.964 185.265C758.606 187.06 756.786 187.958 754.505 187.958C751.813 187.958 749.75 187.011 748.319 185.119V195.163H746.154V167.906H748.173L748.283 170.69C749.702 168.591 751.758 167.542 754.451 167.542C756.804 167.542 758.648 168.434 759.982 170.217C761.329 172 762.002 174.475 762.002 177.641V177.95ZM759.819 177.568C759.819 175.057 759.303 173.074 758.272 171.618C757.241 170.162 755.803 169.435 753.96 169.435C752.625 169.435 751.479 169.756 750.521 170.399C749.562 171.042 748.828 171.976 748.319 173.201V182.645C748.841 183.773 749.587 184.634 750.557 185.228C751.527 185.823 752.674 186.12 753.996 186.12C755.828 186.12 757.253 185.392 758.272 183.936C759.303 182.469 759.819 180.346 759.819 177.568ZM779.27 187.594C779.051 186.975 778.912 186.059 778.851 184.846C778.087 185.841 777.11 186.611 775.922 187.157C774.745 187.691 773.496 187.958 772.173 187.958C770.281 187.958 768.747 187.43 767.57 186.375C766.405 185.319 765.823 183.985 765.823 182.372C765.823 180.455 766.618 178.939 768.207 177.823C769.808 176.707 772.034 176.149 774.885 176.149H778.833V173.911C778.833 172.504 778.396 171.4 777.523 170.599C776.662 169.786 775.4 169.38 773.738 169.38C772.222 169.38 770.966 169.768 769.972 170.544C768.977 171.321 768.48 172.255 768.48 173.347L766.296 173.328C766.296 171.764 767.024 170.411 768.48 169.271C769.935 168.118 771.725 167.542 773.847 167.542C776.043 167.542 777.772 168.094 779.033 169.198C780.307 170.29 780.962 171.818 780.998 173.783V183.099C780.998 185.004 781.198 186.429 781.599 187.375V187.594H779.27ZM772.428 186.029C773.884 186.029 775.182 185.677 776.322 184.974C777.474 184.27 778.311 183.33 778.833 182.153V177.823H774.939C772.768 177.847 771.07 178.247 769.844 179.024C768.619 179.788 768.007 180.843 768.007 182.19C768.007 183.294 768.413 184.209 769.226 184.937C770.051 185.665 771.118 186.029 772.428 186.029ZM801.869 178.496H799.248V187.594H797.065V178.496H794.463L787.185 187.594H784.419L792.571 177.495L785.329 167.906H787.967L794.427 176.549H797.065V167.906H799.248V176.549H801.905L808.364 167.906H811.039L803.761 177.495L811.931 187.594H809.147L801.869 178.496ZM838.624 169.762H831.455V187.594H829.271V169.762H822.375V167.906H838.624V169.762ZM848.377 187.958C846.703 187.958 845.186 187.545 843.828 186.72C842.481 185.895 841.432 184.749 840.68 183.281C839.928 181.801 839.552 180.146 839.552 178.314V177.532C839.552 175.639 839.916 173.935 840.643 172.419C841.383 170.902 842.408 169.714 843.718 168.852C845.029 167.979 846.448 167.542 847.976 167.542C850.366 167.542 852.258 168.361 853.653 169.999C855.06 171.624 855.764 173.85 855.764 176.676V177.895H841.717V178.314C841.717 180.546 842.354 182.408 843.627 183.9C844.913 185.38 846.527 186.12 848.468 186.12C849.632 186.12 850.657 185.908 851.543 185.483C852.44 185.058 853.253 184.379 853.981 183.445L855.345 184.482C853.744 186.799 851.421 187.958 848.377 187.958ZM847.976 169.398C846.339 169.398 844.956 169.999 843.828 171.2C842.712 172.4 842.032 174.014 841.79 176.04H853.599V175.803C853.538 173.911 852.998 172.37 851.979 171.181C850.96 169.993 849.626 169.398 847.976 169.398ZM875.834 177.95C875.834 181.019 875.154 183.457 873.796 185.265C872.437 187.06 870.618 187.958 868.337 187.958C865.644 187.958 863.582 187.011 862.151 185.119V195.163H859.985V167.906H862.005L862.114 170.69C863.533 168.591 865.59 167.542 868.283 167.542C870.636 167.542 872.48 168.434 873.814 170.217C875.16 172 875.834 174.475 875.834 177.641V177.95ZM873.65 177.568C873.65 175.057 873.135 173.074 872.104 171.618C871.073 170.162 869.635 169.435 867.791 169.435C866.457 169.435 865.311 169.756 864.352 170.399C863.394 171.042 862.66 171.976 862.151 173.201V182.645C862.672 183.773 863.418 184.634 864.389 185.228C865.359 185.823 866.505 186.12 867.828 186.12C869.659 186.12 871.085 185.392 872.104 183.936C873.135 182.469 873.65 180.346 873.65 177.568ZM896.504 177.95C896.504 181.019 895.825 183.457 894.466 185.265C893.107 187.06 891.288 187.958 889.007 187.958C886.314 187.958 884.252 187.011 882.821 185.119V195.163H880.656V167.906H882.675L882.784 170.69C884.204 168.591 886.26 167.542 888.953 167.542C891.306 167.542 893.15 168.434 894.484 170.217C895.831 172 896.504 174.475 896.504 177.641V177.95ZM894.32 177.568C894.32 175.057 893.805 173.074 892.774 171.618C891.743 170.162 890.305 169.435 888.461 169.435C887.127 169.435 885.981 169.756 885.022 170.399C884.064 171.042 883.33 171.976 882.821 173.201V182.645C883.342 183.773 884.088 184.634 885.059 185.228C886.029 185.823 887.176 186.12 888.498 186.12C890.33 186.12 891.755 185.392 892.774 183.936C893.805 182.469 894.32 180.346 894.32 177.568ZM913.772 187.594C913.553 186.975 913.414 186.059 913.353 184.846C912.589 185.841 911.612 186.611 910.424 187.157C909.247 187.691 907.997 187.958 906.675 187.958C904.783 187.958 903.248 187.43 902.072 186.375C900.907 185.319 900.325 183.985 900.325 182.372C900.325 180.455 901.12 178.939 902.709 177.823C904.31 176.707 906.536 176.149 909.386 176.149H913.335V173.911C913.335 172.504 912.898 171.4 912.025 170.599C911.163 169.786 909.902 169.38 908.24 169.38C906.724 169.38 905.468 169.768 904.474 170.544C903.479 171.321 902.982 172.255 902.982 173.347L900.798 173.328C900.798 171.764 901.526 170.411 902.982 169.271C904.437 168.118 906.226 167.542 908.349 167.542C910.545 167.542 912.273 168.094 913.535 169.198C914.809 170.29 915.464 171.818 915.5 173.783V183.099C915.5 185.004 915.7 186.429 916.101 187.375V187.594H913.772ZM906.93 186.029C908.386 186.029 909.684 185.677 910.824 184.974C911.976 184.27 912.813 183.33 913.335 182.153V177.823H909.441C907.27 177.847 905.571 178.247 904.346 179.024C903.121 179.788 902.508 180.843 902.508 182.19C902.508 183.294 902.915 184.209 903.728 184.937C904.552 185.665 905.62 186.029 906.93 186.029ZM928.601 186.12C930.117 186.12 931.385 185.695 932.404 184.846C933.435 183.985 933.993 182.875 934.078 181.516H936.17C936.11 182.717 935.734 183.815 935.042 184.81C934.351 185.792 933.429 186.563 932.276 187.121C931.136 187.679 929.911 187.958 928.601 187.958C926.017 187.958 923.967 187.06 922.451 185.265C920.947 183.469 920.195 181.055 920.195 178.023V177.368C920.195 175.427 920.534 173.711 921.214 172.218C921.893 170.726 922.863 169.574 924.125 168.761C925.399 167.949 926.884 167.542 928.583 167.542C930.742 167.542 932.519 168.185 933.914 169.471C935.321 170.757 936.073 172.449 936.17 174.548H934.078C933.981 173.007 933.423 171.764 932.404 170.817C931.397 169.871 930.123 169.398 928.583 169.398C926.618 169.398 925.089 170.108 923.997 171.527C922.918 172.946 922.378 174.936 922.378 177.495V178.132C922.378 180.643 922.918 182.602 923.997 184.009C925.089 185.416 926.624 186.12 928.601 186.12ZM942.939 175.057H948.616C950.072 175.057 951.345 175.324 952.437 175.858C953.541 176.379 954.372 177.107 954.93 178.041C955.5 178.975 955.785 180.061 955.785 181.298C955.785 183.203 955.13 184.731 953.82 185.883C952.522 187.024 950.763 187.594 948.543 187.594H940.774V167.906H942.939V175.057ZM942.939 176.913V185.756H948.58C950.145 185.756 951.37 185.362 952.255 184.573C953.153 183.785 953.602 182.705 953.602 181.334C953.602 180.024 953.165 178.969 952.292 178.168C951.43 177.356 950.248 176.937 948.743 176.913H942.939ZM962.463 187.594H960.279V167.906H962.463V187.594Z" fill="#D3E0F4"></path> <path d="M716.683 129H704.895V72.0563L687.505 77.9991V68.0132L715.173 57.8325H716.683V129ZM774.893 99.3347C770.931 103.524 766.304 105.618 761.01 105.618C754.775 105.618 749.807 103.443 746.105 99.0911C742.403 94.7071 740.552 88.9592 740.552 81.8473C740.552 77.171 741.493 72.9331 743.377 69.1336C745.26 65.3341 747.94 62.3789 751.414 60.2681C754.889 58.1573 758.916 57.1018 763.495 57.1018C770.639 57.1018 776.306 59.7647 780.495 65.0905C784.684 70.4163 786.779 77.5444 786.779 86.4749V89.7872C786.779 102.582 783.889 112.341 778.108 119.063C772.328 125.785 763.706 129.195 752.242 129.292H750.83V119.501H752.535C759.517 119.404 764.875 117.731 768.609 114.484C772.344 111.204 774.439 106.154 774.893 99.3347ZM763.495 96.3633C765.865 96.3633 768.09 95.6813 770.168 94.3174C772.247 92.9535 773.854 91.07 774.991 88.6669V84.0393C774.991 78.8109 773.919 74.6055 771.776 71.423C769.632 68.2405 766.856 66.6493 763.446 66.6493C760.036 66.6493 757.308 68.0619 755.263 70.8872C753.249 73.68 752.242 77.2197 752.242 81.5063C752.242 85.9553 753.265 89.5437 755.311 92.2715C757.357 94.9994 760.085 96.3633 763.495 96.3633ZM854.926 114.435L870.514 76.2942H885.322V129H873.485V94.1226L858.969 129H850.932L836.367 93.9277V129H824.53V76.2942H839.436L854.926 114.435ZM926.191 96.5094H896.38V90.4205L910.262 77.7068C913.932 74.3619 915.767 71.6016 915.767 69.4258C915.767 68.0619 915.328 66.9578 914.452 66.1135C913.575 65.2367 912.292 64.7983 910.603 64.7983C908.72 64.7983 907.242 65.3341 906.171 66.4057C905.099 67.4774 904.563 68.89 904.563 70.6436H895.503C895.503 66.8766 896.867 63.7591 899.595 61.291C902.355 58.7905 905.927 57.5402 910.311 57.5402C914.955 57.5402 918.543 58.5794 921.076 60.6578C923.609 62.7361 924.876 65.6426 924.876 69.3771C924.876 72.8519 923.155 76.2455 919.713 79.5578L914.939 83.7957L908.119 89.3001H926.191V96.5094Z" fill="white"></path> <g filter="url(#filter9_f_112_92)"> <path d="M650.692 58.0232H580.627C579.785 58.0232 579.104 58.7053 579.104 59.5479V129.689C579.104 130.532 579.785 131.214 580.627 131.214H650.691C651.533 131.214 652.214 130.532 652.214 129.689V59.5479C652.215 58.7058 651.533 58.0232 650.692 58.0232ZM649.169 128.165H649.168H582.15V61.073H649.169V128.165Z" fill="white"></path> <path d="M651.803 59.5476V59.5479V129.689C651.803 130.305 651.305 130.803 650.691 130.803H580.627C580.013 130.803 579.515 130.305 579.515 129.689V59.5479C579.515 58.9318 580.013 58.434 580.627 58.434H650.692C651.306 58.434 651.804 58.9322 651.803 59.5476ZM649.169 128.576H649.579V128.165V61.073V60.6621H649.169H582.15H581.74V61.073V128.165V128.576H582.15H649.168H649.169Z" stroke="#F9C84B" stroke-width="0.821699"></path> </g> <g filter="url(#filter10_f_112_92)"> <path d="M643.31 58.1162C642.468 58.1162 641.787 64.508 641.787 72.3931V115.228C641.787 123.118 642.468 129.505 643.31 129.505C644.152 129.505 644.834 123.118 644.834 115.228V72.3931C644.834 64.508 644.152 58.1162 643.31 58.1162Z" fill="white"></path> <path d="M642.197 72.3931C642.197 68.4604 642.368 64.9064 642.641 62.3413C642.778 61.0562 642.94 60.0332 643.115 59.3386C643.182 59.0723 643.248 58.8675 643.31 58.7197C643.372 58.8675 643.438 59.0723 643.505 59.3386C643.68 60.0332 643.842 61.0562 643.979 62.3413C644.253 64.9064 644.423 68.4604 644.423 72.3931V115.228C644.423 119.163 644.253 122.717 643.979 125.282C643.842 126.566 643.68 127.589 643.505 128.283C643.438 128.549 643.372 128.754 643.31 128.902C643.248 128.754 643.182 128.549 643.115 128.283C642.94 127.589 642.778 126.566 642.641 125.282C642.368 122.717 642.197 119.163 642.197 115.228V72.3931Z" stroke="#F9C84B" stroke-width="0.821699"></path> </g> <g filter="url(#filter11_f_112_92)"> <path d="M625.218 58.1165C624.377 58.1165 623.695 64.5082 623.695 72.3934V115.228C623.695 123.118 624.377 129.505 625.218 129.505C626.06 129.505 626.741 123.118 626.741 115.228V72.3934C626.741 64.5082 626.06 58.1165 625.218 58.1165Z" fill="white"></path> <path d="M624.106 72.3934C624.106 68.4606 624.276 64.9066 624.55 62.3416C624.687 61.0564 624.848 60.0334 625.024 59.3389C625.091 59.0728 625.157 58.868 625.218 58.7202C625.28 58.868 625.346 59.0728 625.413 59.3389C625.588 60.0334 625.75 61.0564 625.887 62.3416C626.16 64.9066 626.33 68.4606 626.33 72.3934V115.228C626.33 119.163 626.16 122.717 625.887 125.282C625.75 126.567 625.588 127.589 625.413 128.283C625.346 128.549 625.28 128.754 625.218 128.902C625.157 128.754 625.091 128.549 625.024 128.283C624.848 127.589 624.687 126.567 624.55 125.282C624.276 122.717 624.106 119.163 624.106 115.228V72.3934Z" stroke="#F9C84B" stroke-width="0.821699"></path> </g> <g filter="url(#filter12_f_112_92)"> <path d="M607.12 58.1162C606.278 58.1162 605.596 64.508 605.596 72.3931V115.228C605.596 123.118 606.278 129.505 607.12 129.505C607.962 129.505 608.643 123.118 608.643 115.228V72.3931C608.643 64.508 607.962 58.1162 607.12 58.1162Z" fill="white"></path> <path d="M606.007 72.3931C606.007 68.4604 606.177 64.9064 606.451 62.3413C606.588 61.0562 606.75 60.0332 606.925 59.3386C606.992 59.0723 607.058 58.8675 607.12 58.7197C607.181 58.8675 607.247 59.0723 607.315 59.3386C607.49 60.0332 607.651 61.0562 607.789 62.3413C608.062 64.9064 608.232 68.4604 608.232 72.3931V115.228C608.232 119.163 608.062 122.717 607.789 125.282C607.651 126.566 607.49 127.589 607.315 128.283C607.247 128.549 607.181 128.754 607.12 128.902C607.058 128.754 606.992 128.549 606.925 128.283C606.75 127.589 606.588 126.566 606.451 125.282C606.177 122.717 606.007 119.163 606.007 115.228V72.3931Z" stroke="#F9C84B" stroke-width="0.821699"></path> </g> <g filter="url(#filter13_f_112_92)"> <path d="M589.027 58.1165C588.186 58.1165 587.504 64.5082 587.504 72.3934V115.228C587.504 123.118 588.186 129.505 589.027 129.505C589.869 129.505 590.55 123.118 590.55 115.228V72.3934C590.55 64.5082 589.869 58.1165 589.027 58.1165Z" fill="white"></path> <path d="M587.915 72.3934C587.915 68.4606 588.085 64.9066 588.359 62.3416C588.496 61.0564 588.658 60.0334 588.833 59.3389C588.9 59.0728 588.966 58.868 589.027 58.7202C589.089 58.868 589.155 59.0728 589.222 59.3389C589.397 60.0334 589.559 61.0564 589.696 62.3416C589.97 64.9066 590.14 68.4606 590.14 72.3934V115.228C590.14 119.163 589.97 122.717 589.696 125.282C589.559 126.567 589.397 127.589 589.222 128.283C589.155 128.549 589.089 128.754 589.027 128.902C588.966 128.754 588.9 128.549 588.833 128.283C588.658 127.589 588.496 126.567 588.359 125.282C588.085 122.717 587.915 119.163 587.915 115.228V72.3934Z" stroke="#F9C84B" stroke-width="0.821699"></path> </g> <path d="M1156.54 178.569H1153.52V187.594H1151.32V167.906H1153.52V176.64H1156.5L1163.73 167.906H1166.47L1158.4 177.459L1167.37 187.594H1164.49L1156.54 178.569ZM1168.91 177.459C1168.91 175.566 1169.28 173.862 1170 172.346C1170.74 170.83 1171.78 169.653 1173.12 168.816C1174.46 167.967 1175.98 167.542 1177.68 167.542C1180.3 167.542 1182.43 168.464 1184.05 170.308C1185.68 172.14 1186.49 174.572 1186.49 177.604V178.059C1186.49 179.964 1186.12 181.68 1185.38 183.209C1184.65 184.725 1183.62 185.895 1182.29 186.72C1180.95 187.545 1179.43 187.958 1177.72 187.958C1175.11 187.958 1172.99 187.042 1171.35 185.21C1169.73 183.366 1168.91 180.928 1168.91 177.895V177.459ZM1171.1 178.059C1171.1 180.413 1171.7 182.347 1172.92 183.864C1174.14 185.368 1175.74 186.12 1177.72 186.12C1179.68 186.12 1181.27 185.368 1182.49 183.864C1183.71 182.347 1184.32 180.352 1184.32 177.877V177.459C1184.32 175.955 1184.05 174.578 1183.49 173.328C1182.93 172.079 1182.15 171.115 1181.14 170.435C1180.13 169.744 1178.98 169.398 1177.68 169.398C1175.74 169.398 1174.16 170.162 1172.93 171.691C1171.71 173.207 1171.1 175.196 1171.1 177.659V178.059ZM1201.9 184.646L1209.73 167.906H1212.42V187.594H1210.23V171.436L1202.67 187.594H1201.12L1193.4 171.072V187.594H1191.24V167.906H1194.1L1201.9 184.646ZM1233.38 187.594H1231.2V178.569H1220.59V187.594H1218.4V167.906H1220.59V176.731H1231.2V167.906H1233.38V187.594ZM1251.65 187.594C1251.43 186.975 1251.29 186.059 1251.23 184.846C1250.47 185.841 1249.49 186.611 1248.3 187.157C1247.12 187.691 1245.87 187.958 1244.55 187.958C1242.66 187.958 1241.12 187.43 1239.95 186.375C1238.78 185.319 1238.2 183.985 1238.2 182.372C1238.2 180.455 1239 178.939 1240.59 177.823C1242.19 176.707 1244.41 176.149 1247.26 176.149H1251.21V173.911C1251.21 172.504 1250.77 171.4 1249.9 170.599C1249.04 169.786 1247.78 169.38 1246.12 169.38C1244.6 169.38 1243.34 169.768 1242.35 170.544C1241.36 171.321 1240.86 172.255 1240.86 173.347L1238.67 173.328C1238.67 171.764 1239.4 170.411 1240.86 169.271C1242.31 168.118 1244.1 167.542 1246.23 167.542C1248.42 167.542 1250.15 168.094 1251.41 169.198C1252.69 170.29 1253.34 171.818 1253.38 173.783V183.099C1253.38 185.004 1253.58 186.429 1253.98 187.375V187.594H1251.65ZM1244.81 186.029C1246.26 186.029 1247.56 185.677 1248.7 184.974C1249.85 184.27 1250.69 183.33 1251.21 182.153V177.823H1247.32C1245.15 177.847 1243.45 178.247 1242.22 179.024C1241 179.788 1240.38 180.843 1240.38 182.19C1240.38 183.294 1240.79 184.209 1241.6 184.937C1242.43 185.665 1243.5 186.029 1244.81 186.029ZM1273.05 169.762H1265.88V187.594H1263.69V169.762H1256.8V167.906H1273.05V169.762ZM1279.03 175.057H1284.71C1286.16 175.057 1287.44 175.324 1288.53 175.858C1289.63 176.379 1290.47 177.107 1291.02 178.041C1291.59 178.975 1291.88 180.061 1291.88 181.298C1291.88 183.203 1291.22 184.731 1289.91 185.883C1288.62 187.024 1286.86 187.594 1284.64 187.594H1276.87V167.906H1279.03V175.057ZM1279.03 176.913V185.756H1284.67C1286.24 185.756 1287.46 185.362 1288.35 184.573C1289.25 183.785 1289.69 182.705 1289.69 181.334C1289.69 180.024 1289.26 178.969 1288.38 178.168C1287.52 177.356 1286.34 176.937 1284.84 176.913H1279.03ZM1298.56 187.594H1296.37V167.906H1298.56V187.594Z" fill="#D3E0F4"></path> <path d="M1201.35 129H1153.66V120.865L1177.29 95.0968C1180.7 91.2973 1183.12 88.1311 1184.54 85.5981C1186.01 83.0326 1186.74 80.4671 1186.74 77.9016C1186.74 74.5243 1185.78 71.7965 1183.86 69.7181C1181.98 67.6398 1179.43 66.6006 1176.21 66.6006C1172.38 66.6006 1169.41 67.7697 1167.3 70.1078C1165.19 72.446 1164.13 75.6447 1164.13 79.704H1152.3C1152.3 75.3849 1153.27 71.5042 1155.22 68.0619C1157.2 64.5872 1160.01 61.8918 1163.65 59.9758C1167.32 58.0598 1171.54 57.1018 1176.31 57.1018C1183.2 57.1018 1188.62 58.8392 1192.58 62.314C1196.58 65.7562 1198.57 70.53 1198.57 76.6351C1198.57 80.1748 1197.57 83.8932 1195.55 87.7901C1193.57 91.6545 1190.31 96.0548 1185.76 100.991L1168.42 119.55H1201.35V129Z" fill="white"></path> <g filter="url(#filter14_f_112_92)"> <path d="M1119.71 58.0232H1049.63C1048.79 58.0232 1048.11 58.2455 1048.11 58.52V81.3765C1048.11 81.651 1048.79 81.8733 1049.63 81.8733H1119.71C1120.55 81.8733 1121.24 81.651 1121.24 81.3765V58.52C1121.24 58.2456 1120.56 58.0232 1119.71 58.0232ZM1119.01 80.0573H1050.33V59.8393H1119.01V80.0573Z" fill="white"></path> <path d="M1119.71 58.0232H1049.63C1048.79 58.0232 1048.11 58.2455 1048.11 58.52V81.3765C1048.11 81.651 1048.79 81.8733 1049.63 81.8733H1119.71C1120.55 81.8733 1121.24 81.651 1121.24 81.3765V58.52C1121.24 58.2456 1120.56 58.0232 1119.71 58.0232ZM1119.01 80.0573H1050.33V59.8393H1119.01V80.0573Z" stroke="#F9C84B" stroke-width="0.821699"></path> </g> <g filter="url(#filter15_f_112_92)"> <path d="M1083.51 86.8074H1048.86C1048.45 86.8074 1048.11 87.2212 1048.11 87.7324V130.288C1048.11 130.8 1048.45 131.213 1048.86 131.213H1083.51C1083.92 131.213 1084.26 130.8 1084.26 130.288V87.7324C1084.26 87.2215 1083.93 86.8074 1083.51 86.8074ZM1081.93 128.541H1050.44V89.4801H1081.93V128.541Z" fill="white"></path> <path d="M1083.85 87.7322V87.7324V130.288C1083.85 130.656 1083.62 130.803 1083.51 130.803H1048.86C1048.75 130.803 1048.52 130.656 1048.52 130.288V87.7324C1048.52 87.3652 1048.75 87.2182 1048.86 87.2182H1083.51C1083.62 87.2182 1083.85 87.3653 1083.85 87.7322ZM1081.93 128.952H1082.34V128.541V89.4801V89.0692H1081.93H1050.44H1050.03V89.4801V128.541V128.952H1050.44H1081.93Z" stroke="#F9C84B" stroke-width="0.821699"></path> </g> <g filter="url(#filter16_f_112_92)"> <path d="M1120.55 86.8069H1089.06C1088.68 86.8069 1088.37 86.9985 1088.37 87.2351V106.937C1088.37 107.174 1088.68 107.365 1089.06 107.365H1120.55C1120.93 107.365 1121.24 107.174 1121.24 106.937V87.2351C1121.24 86.9986 1120.93 86.8069 1120.55 86.8069ZM1119.05 104.864H1090.56V89.3082H1119.05V104.864Z" fill="white"></path> <path d="M1119.05 105.275H1119.46V104.864V89.3082V88.8974H1119.05H1090.56H1090.15V89.3082V104.864V105.275H1090.56H1119.05ZM1089.06 87.2177H1120.55C1120.68 87.2177 1120.77 87.2501 1120.82 87.2806C1120.82 87.2823 1120.83 87.2839 1120.83 87.2854V106.887C1120.83 106.888 1120.82 106.89 1120.82 106.892C1120.77 106.922 1120.68 106.954 1120.55 106.954H1089.06C1088.93 106.954 1088.84 106.922 1088.79 106.892C1088.79 106.89 1088.79 106.888 1088.78 106.887V87.2854C1088.79 87.2839 1088.79 87.2823 1088.79 87.2806C1088.84 87.2501 1088.93 87.2177 1089.06 87.2177ZM1120.85 87.3007C1120.85 87.3007 1120.85 87.2998 1120.84 87.2979C1120.85 87.2997 1120.85 87.3007 1120.85 87.3007ZM1120.85 106.871C1120.85 106.871 1120.85 106.872 1120.84 106.874C1120.85 106.872 1120.85 106.871 1120.85 106.871ZM1088.76 106.871C1088.76 106.871 1088.77 106.872 1088.77 106.874C1088.76 106.872 1088.76 106.871 1088.76 106.871ZM1088.76 87.3007C1088.76 87.3007 1088.76 87.2997 1088.77 87.2979C1088.77 87.2998 1088.76 87.3007 1088.76 87.3007Z" stroke="#F9C84B" stroke-width="0.821699"></path> </g> <g filter="url(#filter17_f_112_92)"> <path d="M1120.55 111.478H1089.06C1088.68 111.478 1088.37 111.662 1088.37 111.889V130.803C1088.37 131.03 1088.68 131.214 1089.06 131.214H1120.55C1120.93 131.214 1121.24 131.03 1121.24 130.803V111.889C1121.24 111.662 1120.93 111.478 1120.55 111.478ZM1119.05 128.747H1090.56V113.945H1119.05V128.747Z" fill="white"></path> <path d="M1119.05 129.158H1119.46V128.747V113.945V113.534H1119.05H1090.56H1090.15V113.945V128.747V129.158H1090.56H1119.05ZM1089.06 111.889H1120.55C1120.68 111.889 1120.78 111.921 1120.83 111.951C1120.83 111.951 1120.83 111.951 1120.83 111.951V130.741C1120.83 130.741 1120.83 130.741 1120.83 130.742C1120.78 130.772 1120.68 130.803 1120.55 130.803H1089.06C1088.93 130.803 1088.83 130.772 1088.78 130.742C1088.78 130.741 1088.78 130.741 1088.78 130.741V111.952C1088.78 111.951 1088.78 111.951 1088.78 111.951C1088.83 111.921 1088.93 111.889 1089.06 111.889ZM1120.85 111.97C1120.85 111.97 1120.85 111.969 1120.85 111.967C1120.85 111.969 1120.85 111.97 1120.85 111.97ZM1120.85 130.723C1120.85 130.723 1120.85 130.724 1120.85 130.726C1120.85 130.724 1120.85 130.723 1120.85 130.723ZM1088.76 130.723C1088.76 130.723 1088.76 130.724 1088.76 130.726C1088.76 130.724 1088.76 130.723 1088.76 130.723ZM1088.76 111.97C1088.76 111.97 1088.76 111.969 1088.76 111.967C1088.76 111.969 1088.76 111.97 1088.76 111.97Z" stroke="#F9C84B" stroke-width="0.821699"></path> </g> <path d="M1465 169.78H1455.04V187.594H1452.86V167.906H1465V169.78ZM1466.89 177.459C1466.89 175.566 1467.25 173.862 1467.98 172.346C1468.72 170.83 1469.76 169.653 1471.09 168.816C1472.44 167.967 1473.96 167.542 1475.66 167.542C1478.28 167.542 1480.4 168.464 1482.03 170.308C1483.65 172.14 1484.47 174.572 1484.47 177.604V178.059C1484.47 179.964 1484.1 181.68 1483.36 183.209C1482.63 184.725 1481.6 185.895 1480.26 186.72C1478.93 187.545 1477.41 187.958 1475.69 187.958C1473.09 187.958 1470.96 187.042 1469.33 185.21C1467.7 183.366 1466.89 180.928 1466.89 177.895V177.459ZM1469.07 178.059C1469.07 180.413 1469.68 182.347 1470.89 183.864C1472.12 185.368 1473.72 186.12 1475.69 186.12C1477.66 186.12 1479.25 185.368 1480.46 183.864C1481.69 182.347 1482.3 180.352 1482.3 177.877V177.459C1482.3 175.955 1482.02 174.578 1481.46 173.328C1480.9 172.079 1480.12 171.115 1479.12 170.435C1478.11 169.744 1476.96 169.398 1475.66 169.398C1473.72 169.398 1472.13 170.162 1470.91 171.691C1469.68 173.207 1469.07 175.196 1469.07 177.659V178.059ZM1496.26 186.12C1497.77 186.12 1499.04 185.695 1500.06 184.846C1501.09 183.985 1501.65 182.875 1501.73 181.516H1503.83C1503.76 182.717 1503.39 183.815 1502.7 184.81C1502.01 185.792 1501.08 186.563 1499.93 187.121C1498.79 187.679 1497.57 187.958 1496.26 187.958C1493.67 187.958 1491.62 187.06 1490.11 185.265C1488.6 183.469 1487.85 181.055 1487.85 178.023V177.368C1487.85 175.427 1488.19 173.711 1488.87 172.218C1489.55 170.726 1490.52 169.574 1491.78 168.761C1493.05 167.949 1494.54 167.542 1496.24 167.542C1498.4 167.542 1500.17 168.185 1501.57 169.471C1502.98 170.757 1503.73 172.449 1503.83 174.548H1501.73C1501.64 173.007 1501.08 171.764 1500.06 170.817C1499.05 169.871 1497.78 169.398 1496.24 169.398C1494.27 169.398 1492.74 170.108 1491.65 171.527C1490.57 172.946 1490.03 174.936 1490.03 177.495V178.132C1490.03 180.643 1490.57 182.602 1491.65 184.009C1492.74 185.416 1494.28 186.12 1496.26 186.12ZM1522.33 169.762H1515.16V187.594H1512.98V169.762H1506.08V167.906H1522.33V169.762ZM1532.08 187.958C1530.41 187.958 1528.89 187.545 1527.53 186.72C1526.19 185.895 1525.14 184.749 1524.39 183.281C1523.63 181.801 1523.26 180.146 1523.26 178.314V177.532C1523.26 175.639 1523.62 173.935 1524.35 172.419C1525.09 170.902 1526.11 169.714 1527.42 168.852C1528.74 167.979 1530.15 167.542 1531.68 167.542C1534.07 167.542 1535.96 168.361 1537.36 169.999C1538.77 171.624 1539.47 173.85 1539.47 176.676V177.895H1525.42V178.314C1525.42 180.546 1526.06 182.408 1527.33 183.9C1528.62 185.38 1530.23 186.12 1532.17 186.12C1533.34 186.12 1534.36 185.908 1535.25 185.483C1536.15 185.058 1536.96 184.379 1537.69 183.445L1539.05 184.482C1537.45 186.799 1535.13 187.958 1532.08 187.958ZM1531.68 169.398C1530.05 169.398 1528.66 169.999 1527.53 171.2C1526.42 172.4 1525.74 174.014 1525.5 176.04H1537.31V175.803C1537.24 173.911 1536.7 172.37 1535.69 171.181C1534.67 169.993 1533.33 169.398 1531.68 169.398ZM1556.65 167.906H1558.83V187.594H1556.65V171.418L1546.02 187.594H1543.86V167.906H1546.02V184.1L1556.65 167.906ZM1556.54 160.81C1556.54 162.205 1556.06 163.333 1555.1 164.194C1554.15 165.055 1552.88 165.486 1551.28 165.486C1549.7 165.486 1548.43 165.062 1547.46 164.212C1546.5 163.351 1546.02 162.217 1546.02 160.81H1547.88C1547.88 161.817 1548.17 162.587 1548.77 163.121C1549.37 163.654 1550.21 163.921 1551.28 163.921C1552.35 163.921 1553.18 163.642 1553.77 163.084C1554.38 162.526 1554.68 161.768 1554.68 160.81H1556.54Z" fill="#D3E0F4"></path> <path d="M1502.89 129H1455.2V120.865L1478.83 95.0968C1482.24 91.2973 1484.66 88.1311 1486.09 85.5981C1487.55 83.0326 1488.28 80.4671 1488.28 77.9016C1488.28 74.5243 1487.32 71.7965 1485.4 69.7181C1483.52 67.6398 1480.97 66.6006 1477.76 66.6006C1473.92 66.6006 1470.95 67.7697 1468.84 70.1078C1466.73 72.446 1465.68 75.6447 1465.68 79.704H1453.84C1453.84 75.3849 1454.81 71.5042 1456.76 68.0619C1458.74 64.5872 1461.55 61.8918 1465.19 59.9758C1468.86 58.0598 1473.08 57.1018 1477.85 57.1018C1484.74 57.1018 1490.16 58.8392 1494.12 62.314C1498.12 65.7562 1500.12 70.53 1500.12 76.6351C1500.12 80.1748 1499.11 83.8932 1497.09 87.7901C1495.11 91.6545 1491.85 96.0548 1487.3 100.991L1469.96 119.55H1502.89V129ZM1540.01 89.9821H1558.52V100.796H1540.01V121.888H1528.51V100.796H1509.91V89.9821H1528.51V70.2539H1540.01V89.9821ZM1599.58 129H1587.8V72.0563L1570.41 77.9991V68.0132L1598.07 57.8325H1599.58V129Z" fill="white"></path> <g filter="url(#filter18_f_112_92)"> <path d="M1396.56 58.0232H1365.5C1364.66 58.0232 1363.98 58.2455 1363.98 58.52V81.3765C1363.98 81.651 1364.66 81.8733 1365.5 81.8733H1396.56C1397.4 81.8733 1398.08 81.651 1398.08 81.3765V58.52C1398.08 58.2456 1397.4 58.0232 1396.56 58.0232ZM1395.86 80.0573H1366.2V59.8393H1395.86V80.0573Z" fill="white"></path> <path d="M1396.56 58.0232H1365.5C1364.66 58.0232 1363.98 58.2455 1363.98 58.52V81.3765C1363.98 81.651 1364.66 81.8733 1365.5 81.8733H1396.56C1397.4 81.8733 1398.08 81.651 1398.08 81.3765V58.52C1398.08 58.2456 1397.4 58.0232 1396.56 58.0232ZM1395.86 80.0573H1366.2V59.8393H1395.86V80.0573Z" stroke="#F9C84B" stroke-width="0.821699"></path> </g> <g filter="url(#filter19_f_112_92)"> <path d="M1402.34 86.8074H1359.73C1359.32 86.8074 1358.98 87.2212 1358.98 87.7324L1348.99 130.288C1348.99 130.8 1349.33 131.213 1349.74 131.213H1412.33C1412.75 131.213 1413.08 130.8 1413.08 130.288L1403.09 87.7324C1403.09 87.2215 1402.76 86.8074 1402.34 86.8074ZM1410.76 128.541H1351.32L1361.31 89.4801H1400.77L1410.76 128.541Z" fill="white"></path> <path d="M1359.38 87.8263L1359.39 87.78V87.7324C1359.39 87.3648 1359.62 87.2182 1359.73 87.2182H1402.34C1402.45 87.2182 1402.68 87.3649 1402.68 87.7322L1402.68 87.7799L1402.69 87.8263L1412.67 130.331C1412.66 130.668 1412.44 130.803 1412.33 130.803H1349.74C1349.63 130.803 1349.42 130.668 1349.4 130.331L1359.38 87.8263ZM1410.76 128.952H1411.29L1411.16 128.439L1401.17 89.3783L1401.09 89.0692H1400.77H1361.31H1360.99L1360.91 89.3783L1350.92 128.439L1350.79 128.952H1351.32H1410.76Z" stroke="#F9C84B" stroke-width="0.821699"></path> </g> </g> <defs> <filter id="filter0_f_112_92" x="7.89941" y="30.8999" width="83.1997" height="83.1995" filterUnits="userSpaceOnUse" color-interpolation-filters="sRGB"> <feFlood flood-opacity="0" result="BackgroundImageFix"></feFlood> <feBlend mode="normal" in="SourceGraphic" in2="BackgroundImageFix" result="shape"></feBlend> <feGaussianBlur stdDeviation="1" result="effect1_foregroundBlur_112_92"></feGaussianBlur> </filter> <filter id="filter1_f_112_92" x="7.89941" y="21" width="7.2998" height="12.2498" filterUnits="userSpaceOnUse" color-interpolation-filters="sRGB"> <feFlood flood-opacity="0" result="BackgroundImageFix"></feFlood> <feBlend mode="normal" in="SourceGraphic" in2="BackgroundImageFix" result="shape"></feBlend> <feGaussianBlur stdDeviation="1" result="effect1_foregroundBlur_112_92"></feGaussianBlur> </filter> <filter id="filter2_f_112_92" x="-2" y="30.8999" width="12.2495" height="7.29956" filterUnits="userSpaceOnUse" color-interpolation-filters="sRGB"> <feFlood flood-opacity="0" result="BackgroundImageFix"></feFlood> <feBlend mode="normal" in="SourceGraphic" in2="BackgroundImageFix" result="shape"></feBlend> <feGaussianBlur stdDeviation="1" result="effect1_foregroundBlur_112_92"></feGaussianBlur> </filter> <filter id="filter3_f_112_92" x="-2" y="106.8" width="12.2495" height="7.29956" filterUnits="userSpaceOnUse" color-interpolation-filters="sRGB"> <feFlood flood-opacity="0" result="BackgroundImageFix"></feFlood> <feBlend mode="normal" in="SourceGraphic" in2="BackgroundImageFix" result="shape"></feBlend> <feGaussianBlur stdDeviation="1" result="effect1_foregroundBlur_112_92"></feGaussianBlur> </filter> <filter id="filter4_f_112_92" x="7.89941" y="111.75" width="7.2998" height="12.2498" filterUnits="userSpaceOnUse" color-interpolation-filters="sRGB"> <feFlood flood-opacity="0" result="BackgroundImageFix"></feFlood> <feBlend mode="normal" in="SourceGraphic" in2="BackgroundImageFix" result="shape"></feBlend> <feGaussianBlur stdDeviation="1" result="effect1_foregroundBlur_112_92"></feGaussianBlur> </filter> <filter id="filter5_f_112_92" x="83.7993" y="111.75" width="7.2998" height="12.2498" filterUnits="userSpaceOnUse" color-interpolation-filters="sRGB"> <feFlood flood-opacity="0" result="BackgroundImageFix"></feFlood> <feBlend mode="normal" in="SourceGraphic" in2="BackgroundImageFix" result="shape"></feBlend> <feGaussianBlur stdDeviation="1" result="effect1_foregroundBlur_112_92"></feGaussianBlur> </filter> <filter id="filter6_f_112_92" x="88.7505" y="106.8" width="12.2495" height="7.29956" filterUnits="userSpaceOnUse" color-interpolation-filters="sRGB"> <feFlood flood-opacity="0" result="BackgroundImageFix"></feFlood> <feBlend mode="normal" in="SourceGraphic" in2="BackgroundImageFix" result="shape"></feBlend> <feGaussianBlur stdDeviation="1" result="effect1_foregroundBlur_112_92"></feGaussianBlur> </filter> <filter id="filter7_f_112_92" x="88.7505" y="30.8999" width="12.2495" height="7.29956" filterUnits="userSpaceOnUse" color-interpolation-filters="sRGB"> <feFlood flood-opacity="0" result="BackgroundImageFix"></feFlood> <feBlend mode="normal" in="SourceGraphic" in2="BackgroundImageFix" result="shape"></feBlend> <feGaussianBlur stdDeviation="1" result="effect1_foregroundBlur_112_92"></feGaussianBlur> </filter> <filter id="filter8_f_112_92" x="83.7993" y="21" width="7.2998" height="12.2498" filterUnits="userSpaceOnUse" color-interpolation-filters="sRGB"> <feFlood flood-opacity="0" result="BackgroundImageFix"></feFlood> <feBlend mode="normal" in="SourceGraphic" in2="BackgroundImageFix" result="shape"></feBlend> <feGaussianBlur stdDeviation="1" result="effect1_foregroundBlur_112_92"></feGaussianBlur> </filter> <filter id="filter9_f_112_92" x="577.461" y="56.3798" width="76.3971" height="76.4775" filterUnits="userSpaceOnUse" color-interpolation-filters="sRGB"> <feFlood flood-opacity="0" result="BackgroundImageFix"></feFlood> <feBlend mode="normal" in="SourceGraphic" in2="BackgroundImageFix" result="shape"></feBlend> <feGaussianBlur stdDeviation="0.821699" result="effect1_foregroundBlur_112_92"></feGaussianBlur> </filter> <filter id="filter10_f_112_92" x="640.143" y="56.4728" width="6.33367" height="74.6757" filterUnits="userSpaceOnUse" color-interpolation-filters="sRGB"> <feFlood flood-opacity="0" result="BackgroundImageFix"></feFlood> <feBlend mode="normal" in="SourceGraphic" in2="BackgroundImageFix" result="shape"></feBlend> <feGaussianBlur stdDeviation="0.821699" result="effect1_foregroundBlur_112_92"></feGaussianBlur> </filter> <filter id="filter11_f_112_92" x="622.052" y="56.4731" width="6.33269" height="74.6757" filterUnits="userSpaceOnUse" color-interpolation-filters="sRGB"> <feFlood flood-opacity="0" result="BackgroundImageFix"></feFlood> <feBlend mode="normal" in="SourceGraphic" in2="BackgroundImageFix" result="shape"></feBlend> <feGaussianBlur stdDeviation="0.821699" result="effect1_foregroundBlur_112_92"></feGaussianBlur> </filter> <filter id="filter12_f_112_92" x="603.953" y="56.4728" width="6.33367" height="74.6757" filterUnits="userSpaceOnUse" color-interpolation-filters="sRGB"> <feFlood flood-opacity="0" result="BackgroundImageFix"></feFlood> <feBlend mode="normal" in="SourceGraphic" in2="BackgroundImageFix" result="shape"></feBlend> <feGaussianBlur stdDeviation="0.821699" result="effect1_foregroundBlur_112_92"></feGaussianBlur> </filter> <filter id="filter13_f_112_92" x="585.861" y="56.4731" width="6.33269" height="74.6757" filterUnits="userSpaceOnUse" color-interpolation-filters="sRGB"> <feFlood flood-opacity="0" result="BackgroundImageFix"></feFlood> <feBlend mode="normal" in="SourceGraphic" in2="BackgroundImageFix" result="shape"></feBlend> <feGaussianBlur stdDeviation="0.821699" result="effect1_foregroundBlur_112_92"></feGaussianBlur> </filter> <filter id="filter14_f_112_92" x="1046.05" y="55.9689" width="77.2389" height="27.9587" filterUnits="userSpaceOnUse" color-interpolation-filters="sRGB"> <feFlood flood-opacity="0" result="BackgroundImageFix"></feFlood> <feBlend mode="normal" in="SourceGraphic" in2="BackgroundImageFix" result="shape"></feBlend> <feGaussianBlur stdDeviation="0.821699" result="effect1_foregroundBlur_112_92"></feGaussianBlur> </filter> <filter id="filter15_f_112_92" x="1046.47" y="85.164" width="39.4396" height="47.6928" filterUnits="userSpaceOnUse" color-interpolation-filters="sRGB"> <feFlood flood-opacity="0" result="BackgroundImageFix"></feFlood> <feBlend mode="normal" in="SourceGraphic" in2="BackgroundImageFix" result="shape"></feBlend> <feGaussianBlur stdDeviation="0.821699" result="effect1_foregroundBlur_112_92"></feGaussianBlur> </filter> <filter id="filter16_f_112_92" x="1086.73" y="85.1635" width="36.153" height="23.8451" filterUnits="userSpaceOnUse" color-interpolation-filters="sRGB"> <feFlood flood-opacity="0" result="BackgroundImageFix"></feFlood> <feBlend mode="normal" in="SourceGraphic" in2="BackgroundImageFix" result="shape"></feBlend> <feGaussianBlur stdDeviation="0.821699" result="effect1_foregroundBlur_112_92"></feGaussianBlur> </filter> <filter id="filter17_f_112_92" x="1086.73" y="109.835" width="36.153" height="23.0229" filterUnits="userSpaceOnUse" color-interpolation-filters="sRGB"> <feFlood flood-opacity="0" result="BackgroundImageFix"></feFlood> <feBlend mode="normal" in="SourceGraphic" in2="BackgroundImageFix" result="shape"></feBlend> <feGaussianBlur stdDeviation="0.821699" result="effect1_foregroundBlur_112_92"></feGaussianBlur> </filter> <filter id="filter18_f_112_92" x="1361.92" y="55.9689" width="38.2096" height="27.9587" filterUnits="userSpaceOnUse" color-interpolation-filters="sRGB"> <feFlood flood-opacity="0" result="BackgroundImageFix"></feFlood> <feBlend mode="normal" in="SourceGraphic" in2="BackgroundImageFix" result="shape"></feBlend> <feGaussianBlur stdDeviation="0.821699" result="effect1_foregroundBlur_112_92"></feGaussianBlur> </filter> <filter id="filter19_f_112_92" x="1347.35" y="85.164" width="67.3796" height="47.6928" filterUnits="userSpaceOnUse" color-interpolation-filters="sRGB"> <feFlood flood-opacity="0" result="BackgroundImageFix"></feFlood> <feBlend mode="normal" in="SourceGraphic" in2="BackgroundImageFix" result="shape"></feBlend> <feGaussianBlur stdDeviation="0.821699" result="effect1_foregroundBlur_112_92"></feGaussianBlur> </filter> <clipPath id="clip0_112_92"> <rect width="1619" height="197" fill="white"></rect> </clipPath> </defs> </svg> 